<svg xmlns="http://www.w3.org/2000/svg" viewBox="0 0 168 38"><defs><style>.cls-1{fill:#00a99d;}.cls-2{fill:#fff;}</style></defs><title>btn-login-laranja_2</title><g id="Camada_2" data-name="Camada 2"><g id="Camada_1-2" data-name="Camada 1"><rect class="cls-1" width="168" height="38" rx="12" ry="12"/><path class="cls-2" d="M56.35,11.6h3.08V22.82h7V25.6H56.35Z"/><path class="cls-2" d="M73.67,25.84a6.06,6.06,0,0,1-2.3-.43,5.6,5.6,0,0,1-1.83-1.18,5.48,5.48,0,0,1-1.21-1.76,5.38,5.38,0,0,1-.44-2.17v0a5.38,5.38,0,0,1,.44-2.17,5.52,5.52,0,0,1,1.22-1.77,5.77,5.77,0,0,1,1.84-1.2,6,6,0,0,1,2.32-.44,6.07,6.07,0,0,1,2.3.43,5.62,5.62,0,0,1,1.83,1.18,5.5,5.5,0,0,1,1.21,1.76,5.38,5.38,0,0,1,.44,2.17v0a5.38,5.38,0,0,1-.44,2.17,5.55,5.55,0,0,1-1.22,1.77A5.76,5.76,0,0,1,76,25.4,6,6,0,0,1,73.67,25.84Zm0-2.62A2.82,2.82,0,0,0,74.88,23a2.58,2.58,0,0,0,.87-.63,2.77,2.77,0,0,0,.55-.93,3.34,3.34,0,0,0,.19-1.13v0a3.19,3.19,0,0,0-.2-1.13,2.9,2.9,0,0,0-.58-.94,2.86,2.86,0,0,0-.9-.65,2.69,2.69,0,0,0-1.14-.24,2.82,2.82,0,0,0-1.17.23,2.58,2.58,0,0,0-.87.63,2.77,2.77,0,0,0-.55.93,3.31,3.31,0,0,0-.19,1.13v0a3.18,3.18,0,0,0,.2,1.13A2.87,2.87,0,0,0,72.56,23,2.66,2.66,0,0,0,73.71,23.22Z"/><path class="cls-2" d="M86.49,28.84A10.7,10.7,0,0,1,84,28.55a9.5,9.5,0,0,1-2.22-.83l1-2.28a9,9,0,0,0,1.69.72,6.61,6.61,0,0,0,1.93.26,3.18,3.18,0,0,0,2.31-.74,2.93,2.93,0,0,0,.75-2.18V23A5.51,5.51,0,0,1,88,24.26a4,4,0,0,1-2,.46,5,5,0,0,1-1.8-.33,4.44,4.44,0,0,1-1.52-1,4.66,4.66,0,0,1-1.05-1.57,5.47,5.47,0,0,1-.39-2.13v0a5.36,5.36,0,0,1,.4-2.13A4.82,4.82,0,0,1,82.67,16a4.46,4.46,0,0,1,1.52-1A4.93,4.93,0,0,1,86,14.68a4.05,4.05,0,0,1,2,.46,5.87,5.87,0,0,1,1.42,1.14v-1.4h3v8.3a5.75,5.75,0,0,1-1.36,4.22,4.4,4.4,0,0,1-1.91,1.1A9.61,9.61,0,0,1,86.49,28.84Zm.36-6.64a2.94,2.94,0,0,0,1-.18,2.47,2.47,0,0,0,.83-.51,2.38,2.38,0,0,0,.55-.79,2.47,2.47,0,0,0,.2-1v0a2.47,2.47,0,0,0-.2-1,2.37,2.37,0,0,0-.55-.79,2.46,2.46,0,0,0-.83-.51,3,3,0,0,0-1-.18,2.86,2.86,0,0,0-1,.18,2.47,2.47,0,0,0-.82.51,2.36,2.36,0,0,0-.55.79,2.47,2.47,0,0,0-.2,1v0a2.32,2.32,0,0,0,.74,1.8A2.64,2.64,0,0,0,86.85,22.2Z"/><path class="cls-2" d="M95.25,11h3.2v2.7h-3.2Zm.08,3.88h3V25.6h-3Z"/><path class="cls-2" d="M101.23,14.88h3v1.53a6.59,6.59,0,0,1,.57-.65,4,4,0,0,1,.69-.55,3.45,3.45,0,0,1,.84-.38,3.54,3.54,0,0,1,1-.14,3.42,3.42,0,0,1,2.69,1.06,4.22,4.22,0,0,1,1,2.92V25.6h-3v-6a2.4,2.4,0,0,0-.48-1.63,1.71,1.71,0,0,0-1.36-.55,1.8,1.8,0,0,0-1.39.55,2.31,2.31,0,0,0-.51,1.63v6h-3Z"/></g></g></svg>