<svg xmlns="http://www.w3.org/2000/svg" viewBox="0 0 1056.79 88"><defs><style>.cls-1,.cls-2{fill:#fff;}.cls-2{font-size:51px;font-family:Gotham-Book, Gotham Book;}.cls-3{letter-spacing:-0.02em;}</style></defs><title>logo-nippec-usuario</title><g id="Camada_2" data-name="Camada 2"><g id="Camada_1-2" data-name="Camada 1"><path class="cls-1" d="M69.67,21.57H80.24l24.42,32.09V21.57H116V73.69h-9.75L81,40.55V73.69H69.67Z"/><path class="cls-1" d="M129,21.57h11.47V73.69H129Z"/><path class="cls-1" d="M153.51,21.57h21.3a25.07,25.07,0,0,1,8.38,1.3,17.79,17.79,0,0,1,6.25,3.69,16.12,16.12,0,0,1,3.95,5.7,18.94,18.94,0,0,1,1.38,7.33v.15a18.28,18.28,0,0,1-1.64,8,16.26,16.26,0,0,1-4.51,5.73,19.51,19.51,0,0,1-6.7,3.46,28.39,28.39,0,0,1-8.23,1.15H165V73.69H153.51Zm20.55,26.28a9.33,9.33,0,0,0,6.7-2.27A7.46,7.46,0,0,0,183.15,40v-.15a7.11,7.11,0,0,0-2.49-5.88,10.56,10.56,0,0,0-6.81-2H165V47.85Z"/><path class="cls-1" d="M203.25,21.57h21.3a25.07,25.07,0,0,1,8.38,1.3,17.79,17.79,0,0,1,6.25,3.69,16.12,16.12,0,0,1,3.95,5.7,18.94,18.94,0,0,1,1.38,7.33v.15a18.28,18.28,0,0,1-1.64,8,16.26,16.26,0,0,1-4.51,5.73,19.51,19.51,0,0,1-6.7,3.46,28.39,28.39,0,0,1-8.23,1.15h-8.71V73.69H203.25ZM223.8,47.85a9.33,9.33,0,0,0,6.7-2.27A7.46,7.46,0,0,0,232.89,40v-.15a7.11,7.11,0,0,0-2.49-5.88,10.56,10.56,0,0,0-6.81-2h-8.86V47.85Z"/><path class="cls-1" d="M253,21.57h39.24v10.2H264.31V42.34h24.57v10.2H264.31V63.49h28.3v10.2H253Z"/><path class="cls-1" d="M327.3,74.58a27,27,0,0,1-10.65-2.08,25.7,25.7,0,0,1-14.07-14.22,27.45,27.45,0,0,1-2-10.5v-.15a27.18,27.18,0,0,1,2-10.46,26.89,26.89,0,0,1,5.58-8.56,25.88,25.88,0,0,1,8.56-5.81,27.88,27.88,0,0,1,11-2.12,34.5,34.5,0,0,1,6.66.6,27.87,27.87,0,0,1,5.47,1.64,23.81,23.81,0,0,1,4.54,2.53,30.8,30.8,0,0,1,3.87,3.28L341,37.13a27.65,27.65,0,0,0-6.22-4.32,15.84,15.84,0,0,0-7.11-1.56,14.53,14.53,0,0,0-6.07,1.27,14.37,14.37,0,0,0-4.8,3.5,16.31,16.31,0,0,0-3.13,5.17,17.58,17.58,0,0,0-1.12,6.29v.15A17.88,17.88,0,0,0,313.68,54a16.57,16.57,0,0,0,3.09,5.21A14.33,14.33,0,0,0,327.68,64a16,16,0,0,0,7.56-1.64,29.32,29.32,0,0,0,6.14-4.47l7.3,7.37a37.74,37.74,0,0,1-4.17,3.87,24.77,24.77,0,0,1-4.73,2.94,24.48,24.48,0,0,1-5.62,1.86A33.93,33.93,0,0,1,327.3,74.58Z"/><path class="cls-1" d="M47.94,25.8a72.28,72.28,0,0,0-18.16-2.17h0a81,81,0,0,0-18.13,2.16.73.73,0,0,0-.55.71V60.91c0,6.92,5.59,12.47,13.6,13.49a40.14,40.14,0,0,0,5.07.32,41.31,41.31,0,0,0,5.12-.32c8-1,13.6-6.55,13.6-13.49V26.5A.73.73,0,0,0,47.94,25.8ZM31.33,59.9,30,58.15a.87.87,0,0,1-.19-1,1.15,1.15,0,0,1,1.07-.56h0a.71.71,0,0,1,.58.31l1.11,1.5L33,59l.22.3,1.13,1.53a1,1,0,0,1,.12.22.7.7,0,0,1-.07.68l-.09.13,0,0-.07.07,0,0-.07.06,0,0-.07,0-.06,0-.07,0-.06,0-.08,0h-.32a.91.91,0,0,1-.66-.37l-.47-.63-.72-1Zm13,8.16-8.46-10.8-.14.11c-.33-.07-.77-.27-.94-.13s-.05.6,0,.94l-.2.17h0l-.35.13-.29.12h0l-.11-.15-.45-.61L33,57.51l-.85-1.15a1.58,1.58,0,0,0-1.28-.66h0a2,2,0,0,0-1.82,1,1.68,1.68,0,0,0,.24,2l.9,1.2.39.52q-.4.27-.79.57l-.65.52-.11.1-.17.14-.29.26-.06.05-.38.36c-.21.2-.41.41-.61.63a5.09,5.09,0,0,0-1.86,1.09,5.36,5.36,0,0,0-.53,2.15l-.27.49-.25.49-.22.45-.23.52-.16.4-.15.4-.14.4q-.11.32-.2.64c-.42.6-1.11,1.13-1.23,1.8a1.58,1.58,0,0,0,0,.61,15,15,0,0,1-6.18-3.37,10.93,10.93,0,0,1-3.58-8.16V53.79l.11-.28.23-.52.22-.45.25-.49.27-.49a5.36,5.36,0,0,1,.53-2.15,5.09,5.09,0,0,1,1.86-1.09c.2-.21.4-.42.61-.63l.38-.36.06-.05.29-.26.17-.14.11-.1.65-.52.64-.46,0,0,.08.1.19.25.6.8.12.16.19.25.28.38a1.77,1.77,0,0,0,1.24.71h.16a1.94,1.94,0,0,0,1.68-.93,1.57,1.57,0,0,0-.08-1.85L22.3,44.18,22.18,44l.21-.09.29-.12.35-.13h0l.2-.17c0-.33-.12-.8,0-.94s.61.07.94.13l.14-.11L12.58,27.52v-.45a80.63,80.63,0,0,1,17.2-2h0a72.21,72.21,0,0,1,17.21,2v8L46.75,35,47,35h0l-.27-.1h-.07l-.48-.16q-.55-.18-1.1-.31l-.37-.09-.07,0-.4-.08-.22,0c-.44-.29-.82-.94-1.3-1s-1,.48-1.44.69l-.46,0c-.43,0-.86,0-1.3,0l-.43,0-.43,0-.43.05-.57.09-.5.09-.61.13a6.29,6.29,0,0,0-2.46,0c-.71.27-1.19,1-1.75,1.57-.28.15-.56.3-.83.46l-.45.27-.07,0-.32.21-.18.12-.12.08-.67.49c-.3.23-.59.47-.87.71l-.13-.17-.95-1.28a1.57,1.57,0,0,0-1.28-.66h0a2,2,0,0,0-1.82,1,1.68,1.68,0,0,0,.24,2l.67.89.16.22.44.58.07.1.07.09-.09.12-.22.3v0h0l-.21.15c-.33-.09-.75-.32-.93-.19s-.09.6-.11.93l-.22.16-.08.06,11.5,14.67L36,57.2l.22-.16c0-.33-.07-.81.11-.93s.6.1.93.19l.21-.15h0v0l.22-.3.19-.25,0,0,.06.08,1.38,1.84a1.77,1.77,0,0,0,1.24.71h.16a1.94,1.94,0,0,0,1.68-.93,1.57,1.57,0,0,0-.08-1.85l-.9-1.22-.21-.29-.32-.43-.16-.22-.21-.29-.05-.07q.36-.3.73-.59l.67-.49.12-.08.18-.12.32-.21.07,0,.45-.27c.27-.16.55-.31.83-.46.56-.57,1-1.3,1.75-1.57A3.07,3.07,0,0,1,47,48.95v12A11,11,0,0,1,44.34,68.06ZM18.15,42.52l.1-.14,0,0,.07-.08,0,0,.07-.06.06,0,.08,0,.06,0,.08,0,.07,0,.08,0h.34a.71.71,0,0,1,.58.31l1.11,1.5.45.61.22.3,1.13,1.53a.73.73,0,0,1,.05.9,1.07,1.07,0,0,1-.95.53h0a.91.91,0,0,1-.66-.37l-.47-.63-.72-1-.27-.36-1.33-1.77a1.5,1.5,0,0,1-.27-.49A.68.68,0,0,1,18.15,42.52ZM40.18,54l.53.72.9,1.22a.73.73,0,0,1,.05.9,1.07,1.07,0,0,1-.95.53h0A.91.91,0,0,1,40,57l-1.38-1.84-.19-.26-.39-.52-.83-1.1a2.3,2.3,0,0,1-.16-.24,1,1,0,0,1-.11-.27A.68.68,0,0,1,37,52.2h0l.09-.13,0,0,.07-.08,0,0,.07-.06.06,0,.08,0,.06,0,.08,0,.07,0,.08,0h.34a.71.71,0,0,1,.58.31l1.1,1.49ZM30,42.21l-.09.13,0,0-.07.07,0,0-.07.06,0,0-.07,0-.06,0-.07,0-.06,0-.08,0H29a.91.91,0,0,1-.66-.37L27,40.53l-.14-.19-.44-.58-.83-1.1a.87.87,0,0,1-.19-1,1.15,1.15,0,0,1,1.07-.56h0a.71.71,0,0,1,.58.31l1.13,1.54.34.46.53.72.9,1.22A.73.73,0,0,1,30,42.21Z"/><path class="cls-1" d="M58.2,69.5c.44-2.44.86-5,1.42-8.16a27.23,27.23,0,0,1-8.25,3.54l.94.18a14.54,14.54,0,0,1,3.3,1.12l0,0,.08.05,0,0,.06.06,0,0,.05.08,0,0,0,.09v0l0,.09v.06s0,0,0,0,0,0,0,.05v0s0,0,0,0l-.61,4.76A10.41,10.41,0,0,0,58.2,69.5Z"/><path class="cls-1" d="M1.42,69.5a10.41,10.41,0,0,0,2.81,2.22l-.61-4.79h0a.72.72,0,0,1,0-.07s0,0,0-.07v-.06a.72.72,0,0,1,0-.09h0l0,0,0-.08,0-.05,0-.07,0,0,.06-.06.05,0,.07,0H4a14.54,14.54,0,0,1,3.3-1.12l.94-.18A27.23,27.23,0,0,1,0,61.34C.56,64.49,1,67.06,1.42,69.5Z"/><path class="cls-1" d="M54.53,66.73a.72.72,0,0,1,.06-.19,15.58,15.58,0,0,0-2.44-.75,27.86,27.86,0,0,0-3.08-.46l1.85,6.56A7.56,7.56,0,0,0,54.53,66.73Z"/><path class="cls-1" d="M5,66.54a.72.72,0,0,1,.06.18A7.62,7.62,0,0,0,8.7,71.86l1.85-6.54a27.86,27.86,0,0,0-3.08.46A15.58,15.58,0,0,0,5,66.54Z"/><path class="cls-1" d="M24.43,78.63h-.21s0,0,0,0v3.75s0,0,0,0h.21c.21,0,.33-.08.39-.32a7,7,0,0,0,.07-1.58A7.06,7.06,0,0,0,24.82,79C24.76,78.74,24.64,78.64,24.43,78.63Z"/><path class="cls-1" d="M27.92,78.66a.31.31,0,0,0-.31.26,9.72,9.72,0,0,0,0,1.73,9.76,9.76,0,0,0,0,1.73.32.32,0,0,0,.31.27.31.31,0,0,0,.31-.26,9.62,9.62,0,0,0,0-1.73,9.64,9.64,0,0,0,0-1.73A.32.32,0,0,0,27.92,78.66Z"/><path class="cls-1" d="M36.15,78.55H36s0,0,0,.05c0,.56,0,.87,0,1.5,0,0,0,.05,0,.05h.19c.33,0,.47-.23.48-.85S36.48,78.53,36.15,78.55Z"/><path class="cls-1" d="M36.53,76.11c-2.19.13-4.44.19-6.69.19s-4.54-.07-6.76-.19c-6-.35-17.43-1.57-18.73-9.27l1.11,8.7C6.7,82.9,17.32,84.65,23.4,84.87c2.24.08,4.49.13,6.72.13,2,0,4.07,0,6.1-.13,6-.27,16.69-1.89,17.93-9.33l1.11-8.7C54,74.54,42.6,75.75,36.53,76.11ZM9.67,75.62c-.46-.24-.69-.37-1.15-.66,0,0,0,0,0,0,0,.46,0,.71,0,1.2a.09.09,0,0,0,0,.07c.4.26.59.38,1,.6a.15.15,0,0,1,.07.12c0,.32,0,.49,0,.81,0,0,0,.07-.06,0-.38-.23-.58-.36-1-.63,0,0,0,0,0,0,.05.83.08,1.24.18,1.94,0,0,0,0-.05,0-.28-.22-.42-.34-.7-.59a.23.23,0,0,1-.07-.12,34.88,34.88,0,0,1-.39-4.9s0,0,.07,0a19.75,19.75,0,0,0,2.07,1.2.12.12,0,0,1,.07.1c0,.27,0,.42,0,.72C9.74,75.62,9.71,75.64,9.67,75.62Zm3.05,5.91a12.48,12.48,0,0,1-1.85-.87.14.14,0,0,1-.07-.1c-.15-1.83-.14-3.38-.12-5.24,0,0,0-.06.07,0l.73.3a.1.1,0,0,1,.06.1c0,1.54,0,2.74,0,4.46a.07.07,0,0,0,0,.06c.43.2.64.29,1.07.46a.11.11,0,0,1,.06.1c0,.31,0,.45,0,.73C12.79,81.52,12.76,81.54,12.73,81.52Zm3-.55c0,1.09-.42,1.41-1.13,1.22s-1.15-.74-1.17-1.81c0-1.63,0-2.69,0-4.06,0,0,0-.06.06-.05l.7.18a.08.08,0,0,1,.06.09c0,1.41,0,2.55,0,4.22,0,.3.12.51.33.57s.33-.1.33-.4c0-1.68,0-2.83,0-4.24,0,0,0-.06.06-.06l.69.14a.08.08,0,0,1,.06.08C15.76,78.21,15.75,79.32,15.75,81Zm3.06-2.92s0,.08-.07.07L17.67,78s0,0,0,0c0,.48,0,.74,0,1.27,0,0,0,.06,0,.06l.94.13s.06,0,.06.1v.89c0,.05,0,.09-.06.08l-.94-.13s0,0,0,0c0,.55,0,.83,0,1.33,0,0,0,.05,0,.05l1.09.15a.08.08,0,0,1,.07.09v.72a.05.05,0,0,1-.07.06c-.77-.1-1.14-.14-1.89-.26a.08.08,0,0,1-.06-.08c0-1.8,0-3.67,0-5.48a.05.05,0,0,1,.06-.06l1.88.28a.07.07,0,0,1,.07.08Zm3.44,5.09a.06.06,0,0,1-.06.06l-.78-.06a.09.09,0,0,1-.09-.07c-.31-1.16-.46-2.12-.76-3.66h0V83a.05.05,0,0,1-.06.06L19.84,83a.07.07,0,0,1-.07-.07V77.46a.05.05,0,0,1,.07-.06l.81.09a.09.09,0,0,1,.09.08c.29,1.16.44,2.13.73,3.66h0V77.65a.06.06,0,0,1,.06-.06l.62.05a.07.07,0,0,1,.06.07Zm3.38-.57a1,1,0,0,1-1.13.77l-1.11-.06a.07.07,0,0,1-.06-.07V77.78a.06.06,0,0,1,.06-.06l1.11.06a1,1,0,0,1,1.13.86,8.24,8.24,0,0,1,.12,2A8.12,8.12,0,0,1,25.64,82.57Zm3.41.12a1,1,0,0,1-1.13.81,1.06,1.06,0,0,1-1.13-.84,7.94,7.94,0,0,1-.09-2,7.87,7.87,0,0,1,.09-2,1,1,0,0,1,1.13-.8,1,1,0,0,1,1.13.83,7.91,7.91,0,0,1,.09,2A7.9,7.9,0,0,1,29,82.69Zm3.69-.3a.27.27,0,0,0,.29.24c.21,0,.33-.17.34-.62,0-.06,0-.09.07-.08l.68.13s.06,0,.06.1c0,1-.46,1.3-1.16,1.32a1,1,0,0,1-1.09-.78,9.08,9.08,0,0,1-.08-2,9.11,9.11,0,0,1,.09-2,1,1,0,0,1,1.1-.83c.71,0,1.12.3,1.16,1.25,0,.05,0,.09-.06.1l-.68.18s-.07,0-.07-.07c0-.45-.12-.61-.34-.61a.29.29,0,0,0-.29.26,10.45,10.45,0,0,0,0,1.75A10.47,10.47,0,0,0,32.74,82.39Zm4.8.8-.78.06a.06.06,0,0,1-.07,0c-.2-.67-.3-1.13-.49-2H36s0,0,0,.06c0,.89,0,1.34,0,2a.07.07,0,0,1-.07.07l-.72,0a.06.06,0,0,1-.06-.06c0-1.75,0-3.69,0-5.44a.07.07,0,0,1,.07-.07l1.05-.06c.78,0,1.29.21,1.28,1.52a2.25,2.25,0,0,1-.5,1.59c.24,1,.36,1.55.6,2.3C37.58,83.15,37.57,83.19,37.54,83.19Zm3-5.11a.08.08,0,0,1-.06.09l-1.09.13s0,0,0,.05c0,.48,0,.74,0,1.27,0,0,0,.05,0,0l.95-.11s.06,0,.06.08c0,.35,0,.53,0,.89,0,.05,0,.09-.06.1l-.95.11s0,0,0,.06c0,.55,0,.83,0,1.32,0,0,0,0,0,0l1.1-.12s.06,0,.06.07c0,.31,0,.46,0,.72a.07.07,0,0,1-.06.07c-.77.09-1.15.13-1.92.2a.06.06,0,0,1-.06-.06c0-1.75,0-3.69,0-5.45a.07.07,0,0,1,.06-.07c.77-.07,1.15-.12,1.91-.22a.05.05,0,0,1,.06.06C40.54,77.63,40.54,77.77,40.54,78.08Zm2.18,1,.28.09c.63.21.87.62.84,1.61,0,1.19-.4,1.74-1.28,1.89s-1.18-.21-1.19-1.2c0-.05,0-.09.05-.1l.7-.26s.07,0,.07.06c0,.54.12.71.38.66s.36-.21.37-.73-.07-.69-.41-.81l-.27-.1c-.64-.23-.85-.7-.85-1.63s.38-1.49,1.21-1.64,1.2.18,1.22,1.07a.11.11,0,0,1-.06.11l-.7.27s-.07,0-.07-.06c0-.41-.12-.59-.36-.55s-.35.23-.35.62S42.36,78.95,42.72,79.07Zm4.54-1.85-.73.38s-.07,0-.07-.05c0-.44-.11-.58-.34-.52a.43.43,0,0,0-.32.34,11.74,11.74,0,0,0-.09,1.73,12.33,12.33,0,0,0,0,1.7c0,.15.13.21.29.15s.35-.28.39-.73a.1.1,0,0,1,.08-.1l.7-.11s.06,0,.05.07a1.92,1.92,0,0,1-1.29,1.77c-.59.2-.93,0-1.06-.51a9.67,9.67,0,0,1,0-2,9.79,9.79,0,0,1,.13-2,1.58,1.58,0,0,1,1.2-1.16c.76-.21,1.2,0,1.2,1A.13.13,0,0,1,47.25,77.23Zm1.55,3.2a.16.16,0,0,1-.07.11l-.72.38s-.06,0-.06,0c.23-1.93.28-3.34.36-5.31a.11.11,0,0,1,.07-.1l.76-.31s.07,0,.06,0C49.12,77.17,49.06,78.5,48.81,80.42Zm3.66-6.36a.16.16,0,0,1-.06.12c-.26.19-.39.28-.66.46a.08.08,0,0,0,0,.07,31.09,31.09,0,0,1-.41,4,.23.23,0,0,1-.07.12c-.28.24-.42.35-.7.57,0,0-.06,0-.05,0a36,36,0,0,0,.4-4.11s0,0,0,0l-.7.38s-.06,0-.06,0c0-.3,0-.45,0-.74a.13.13,0,0,1,.07-.11,14.07,14.07,0,0,0,2.26-1.33s.06,0,.06,0C52.49,73.65,52.48,73.78,52.47,74.06Z"/><path class="cls-1" d="M34,19.36a.94.94,0,0,0-.27-.71.39.39,0,0,1,0-.58,1,1,0,0,0,.35-.68,1.07,1.07,0,0,0-1-1,25.29,25.29,0,0,0-6.52,0,1.07,1.07,0,0,0-1,1,1,1,0,0,0,.35.68.39.39,0,0,1,0,.58.94.94,0,0,0-.27.71,1,1,0,0,0-1,1,1,1,0,0,0,1.08.92,1,1,0,0,0,1.06.94l2-.05h2l2,.05a1,1,0,0,0,1.06-.94A1,1,0,0,0,35,20.4,1,1,0,0,0,34,19.36Zm-6.87-2.14a35.49,35.49,0,0,1,5.36,0,.22.22,0,1,1,0,.45,35,35,0,0,0-5.29,0h0a.22.22,0,0,1,0-.45Zm6.12,3.25h0a49.44,49.44,0,0,0-6.85,0,.23.23,0,0,1-.24-.21.22.22,0,0,1,.21-.24,49.89,49.89,0,0,1,6.91,0,.22.22,0,0,1,0,.45Z"/><path id="_Caminho_" data-name="&lt;Caminho&gt;" class="cls-1" d="M26.85,5.66a4.51,4.51,0,0,0,.6,2.78c.82,1.44,1.77,2.15,2.52,3.33a3.4,3.4,0,0,1,.09,3.51c0-1.24-2-3-2.36-3.43a6.11,6.11,0,0,1-1.51-3A5,5,0,0,1,26.85,5.66Z"/><path id="_Caminho_2" data-name="&lt;Caminho&gt;" class="cls-1" d="M31,13.69s.58-1.09-.89-3C28.49,8.5,27.4,7.55,27.4,5s2.15-5,2.15-5c0,2.29,1.43,3.49,2.81,5.26a5,5,0,0,1,1.07,3.81A4.74,4.74,0,0,1,32.77,11c.1-1.33-.2-2.27-1.64-3.87a6.28,6.28,0,0,1-2-3.68,4.8,4.8,0,0,0,1.46,4.22A5.33,5.33,0,0,1,32,10.47,4,4,0,0,1,31,13.69Z"/><path class="cls-1" d="M20.82,20.29a.81.81,0,0,0-.33-.57.33.33,0,0,1-.05-.49.81.81,0,0,0,.2-.62.92.92,0,0,0-1-.74,21.58,21.58,0,0,0-5.5.85.91.91,0,0,0-.73,1,.82.82,0,0,0,.38.53.33.33,0,0,1,.1.48.8.8,0,0,0-.13.64.85.85,0,0,0-.69,1,.87.87,0,0,0,1,.64.87.87,0,0,0,1,.65l1.69-.31,1.7-.26,1.71-.22A.86.86,0,0,0,21,22a.84.84,0,1,0-.18-1.68Zm-5.95-.78a28.76,28.76,0,0,1,4.3-.66.18.18,0,0,1,.2.17.18.18,0,0,1-.17.19,28.39,28.39,0,0,0-4.24.66h0a.18.18,0,0,1-.21-.14A.18.18,0,0,1,14.87,19.51Zm5.32,1.85h0a40.1,40.1,0,0,0-5.49.85.19.19,0,0,1-.22-.14.18.18,0,0,1,.14-.22A40.48,40.48,0,0,1,20.15,21a.18.18,0,0,1,0,.36Z"/><path id="_Caminho_3" data-name="&lt;Caminho&gt;" class="cls-1" d="M13.37,7.86a4.51,4.51,0,0,0,.6,2.78c.82,1.44,1.77,2.15,2.52,3.33a3.4,3.4,0,0,1,.09,3.51c0-1.24-2-3-2.36-3.43a6.11,6.11,0,0,1-1.51-3A5,5,0,0,1,13.37,7.86Z"/><path id="_Caminho_4" data-name="&lt;Caminho&gt;" class="cls-1" d="M17.55,15.89s.58-1.09-.89-3C15,10.69,13.92,9.75,13.92,7.19s2.15-5,2.15-5c0,2.29,1.43,3.49,2.81,5.26a5,5,0,0,1,1.07,3.81,4.74,4.74,0,0,1-.66,1.93c.1-1.33-.2-2.27-1.64-3.87a6.28,6.28,0,0,1-2-3.68,4.8,4.8,0,0,0,1.46,4.22,5.33,5.33,0,0,1,1.46,2.8A4,4,0,0,1,17.55,15.89Z"/><path class="cls-1" d="M45.84,21.39a.8.8,0,0,0-.13-.64.33.33,0,0,1,.1-.48.82.82,0,0,0,.38-.53.91.91,0,0,0-.73-1,21.58,21.58,0,0,0-5.5-.85.92.92,0,0,0-1,.74.81.81,0,0,0,.2.62.33.33,0,0,1-.05.49.81.81,0,0,0-.33.57A.84.84,0,1,0,38.6,22a.86.86,0,0,0,.77.93l1.71.22,1.7.26,1.69.31a.87.87,0,0,0,1-.65.87.87,0,0,0,1-.64A.85.85,0,0,0,45.84,21.39Zm-5.27-2.54a28.77,28.77,0,0,1,4.3.66.18.18,0,0,1,.14.22.18.18,0,0,1-.21.14h0a28.38,28.38,0,0,0-4.24-.66.18.18,0,0,1-.17-.19A.18.18,0,0,1,40.57,18.85ZM45,22.21a40.09,40.09,0,0,0-5.49-.85h0a.18.18,0,0,1,0-.36,40.48,40.48,0,0,1,5.54.86.18.18,0,0,1,.14.22A.19.19,0,0,1,45,22.21Z"/><path id="_Caminho_5" data-name="&lt;Caminho&gt;" class="cls-1" d="M40.33,7.86a4.51,4.51,0,0,0,.6,2.78c.82,1.44,1.77,2.15,2.52,3.33a3.4,3.4,0,0,1,.09,3.51c0-1.24-2-3-2.36-3.43a6.11,6.11,0,0,1-1.51-3A5,5,0,0,1,40.33,7.86Z"/><path id="_Caminho_6" data-name="&lt;Caminho&gt;" class="cls-1" d="M44.51,15.89s.58-1.09-.89-3C42,10.69,40.88,9.75,40.88,7.19S43,2.2,43,2.2c0,2.29,1.43,3.49,2.81,5.26a5,5,0,0,1,1.07,3.81,4.74,4.74,0,0,1-.66,1.93c.1-1.33-.2-2.27-1.64-3.87a6.28,6.28,0,0,1-2-3.68A4.8,4.8,0,0,0,44,9.87a5.33,5.33,0,0,1,1.46,2.8A4,4,0,0,1,44.51,15.89Z"/><text class="cls-2" transform="translate(358.49 64.03)">- Á<tspan class="cls-3" x="76.4" y="0">r</tspan><tspan x="95.93" y="0">ea do Usuário</tspan></text></g></g></svg>