<svg xmlns="http://www.w3.org/2000/svg" xmlns:xlink="http://www.w3.org/1999/xlink" viewBox="0 0 359.03 65.79"><defs><style>.cls-1{fill:#fff;}.cls-2{fill:url(#linear-gradient);}.cls-3{fill:url(#linear-gradient-2);}.cls-4{fill:url(#linear-gradient-3);}.cls-5{fill:url(#linear-gradient-4);}.cls-6{fill:url(#radial-gradient);}.cls-7{fill:#164193;}.cls-8{fill:url(#radial-gradient-2);}.cls-9{fill:#fab900;}.cls-10{fill:url(#linear-gradient-5);}.cls-11{fill:url(#linear-gradient-6);}</style><linearGradient id="linear-gradient" x1="21.23" y1="9.57" x2="23.2" y2="3.08" gradientUnits="userSpaceOnUse"><stop offset="0.11" stop-color="#fab900"/><stop offset="0.44" stop-color="#f17207"/><stop offset="0.91" stop-color="#e20613"/></linearGradient><linearGradient id="linear-gradient-2" x1="21.85" y1="9.75" x2="23.81" y2="3.27" xlink:href="#linear-gradient"/><linearGradient id="linear-gradient-3" x1="10.94" y1="11.27" x2="12.91" y2="4.79" xlink:href="#linear-gradient"/><linearGradient id="linear-gradient-4" x1="11.55" y1="11.46" x2="13.52" y2="4.97" xlink:href="#linear-gradient"/><radialGradient id="radial-gradient" cx="183.38" cy="194.12" r="28.88" gradientTransform="translate(-86.72 -77.79) scale(0.6)" gradientUnits="userSpaceOnUse"><stop offset="0" stop-color="#009ee2"/><stop offset="1" stop-color="#164193"/></radialGradient><radialGradient id="radial-gradient-2" cx="183.42" cy="228.8" r="24.47" xlink:href="#radial-gradient"/><linearGradient id="linear-gradient-5" x1="31.51" y1="11.27" x2="33.47" y2="4.79" xlink:href="#linear-gradient"/><linearGradient id="linear-gradient-6" x1="32.12" y1="11.46" x2="34.09" y2="4.97" xlink:href="#linear-gradient"/></defs><title>logo-nippec-ufs-branca</title><g id="Camada_2" data-name="Camada 2"><g id="Camada_1-2" data-name="Camada 1"><path class="cls-1" d="M180.86,65a.84.84,0,0,1-.84-.84V5.88a.84.84,0,0,1,1.67,0V64.17A.84.84,0,0,1,180.86,65Z"/><path class="cls-1" d="M63.41,19.26a5.34,5.34,0,0,1-.25,1.7,3.65,3.65,0,0,1-.78,1.36,3.52,3.52,0,0,1-1.33.91,5.49,5.49,0,0,1-1.92.31,5.34,5.34,0,0,1-1.91-.31A3.51,3.51,0,0,1,55.14,21a5.33,5.33,0,0,1-.25-1.7v-6a.8.8,0,0,1,.8-.8h1.17v6.56A4.17,4.17,0,0,0,57,20.33a2.21,2.21,0,0,0,.47.84,1.73,1.73,0,0,0,.72.48,2.43,2.43,0,0,0,.92.16,2.56,2.56,0,0,0,.94-.16,1.73,1.73,0,0,0,.72-.48,2.21,2.21,0,0,0,.47-.84,4.17,4.17,0,0,0,.17-1.25V13.22a.81.81,0,0,1,.8-.7h1.17Z"/><path class="cls-1" d="M75,23.36H73.27c-.34-.59-.75-1.23-1.19-1.92s-.89-1.38-1.36-2.06-1-1.37-1.44-2-1-1.23-1.39-1.77v7a.81.81,0,0,1-.81.75H65.94V12.5h1.63c.42.44.86,1,1.34,1.56s1,1.22,1.45,1.86,1,1.31,1.41,2,.86,1.27,1.22,1.83V13.31a.82.82,0,0,1,.81-.81H75Z"/><path class="cls-1" d="M79.46,22.47a.81.81,0,0,1-.81.81H77.47v-10a.82.82,0,0,1,.81-.81h1.17Z"/><path class="cls-1" d="M89.36,18.06c-.72,1.84-1.48,3.63-2.27,5.31H85.19c-.78-1.69-1.53-3.47-2.27-5.31s-1.41-3.7-2-5.55H82.5a.83.83,0,0,1,.77.53c.19.56.37,1.13.58,1.7.27.77.53,1.52.78,2.25s.53,1.45.8,2.14.52,1.33.77,1.91c.25-.58.5-1.2.75-1.89s.53-1.41.8-2.14l.8-2.27c.19-.56.39-1.13.56-1.67a.05.05,0,0,0,0,0,.8.8,0,0,1,.77-.53h1.53C90.77,14.36,90.08,16.22,89.36,18.06Z"/><path class="cls-1" d="M100.1,23.34H93.55a.81.81,0,0,1-.81-.81v-10h7v.86a.81.81,0,0,1-.78.81H94.72v2.69h4.45v1.64H94.72v3.19h4.59a.81.81,0,0,1,.78.81Z"/><path class="cls-1" d="M110.32,23.33h-2.2c-.19-.36-.41-.75-.63-1.13s-.47-.75-.7-1.09-.47-.7-.69-1-.44-.61-.64-.84l-.37,0h-1.25v3.27a.8.8,0,0,1-.8.8h-1.16V12.7a11,11,0,0,1,1.53-.2c.53,0,1-.06,1.44-.06a6.33,6.33,0,0,1,3.58.86,3,3,0,0,1,1.23,2.61,3,3,0,0,1-2.16,3c.19.23.41.52.66.86s.52.72.77,1.13.52.8.75,1.22S110.13,22.94,110.32,23.33Zm-2.72-7.44a1.67,1.67,0,0,0-.17-.83,1.32,1.32,0,0,0-.55-.55,2.6,2.6,0,0,0-.83-.3,7.4,7.4,0,0,0-1.06-.08c-.41,0-.8,0-1.16,0v3.48h.86a9.84,9.84,0,0,0,1.27-.08,2.39,2.39,0,0,0,.91-.28,1.36,1.36,0,0,0,.56-.55A1.79,1.79,0,0,0,107.6,15.89Z"/><path class="cls-1" d="M117.56,22.81a4.85,4.85,0,0,1-3,.8,9.32,9.32,0,0,1-1.22-.08,9.53,9.53,0,0,1-1-.22c-.28-.08-.53-.17-.73-.25a3.67,3.67,0,0,1-.5-.25l.28-.78a.8.8,0,0,1,.77-.53.73.73,0,0,1,.27,0l.39.14a5.66,5.66,0,0,0,1.73.23,2.6,2.6,0,0,0,1.53-.36,1.17,1.17,0,0,0,.48-1,1.33,1.33,0,0,0-.16-.67,1.75,1.75,0,0,0-.47-.5,3.38,3.38,0,0,0-.75-.42q-.42-.19-1-.37a11,11,0,0,1-1.08-.45,3.46,3.46,0,0,1-.92-.59,2.52,2.52,0,0,1-.88-2,2.83,2.83,0,0,1,1-2.3,4.29,4.29,0,0,1,2.77-.83,6.78,6.78,0,0,1,1.78.22,5.71,5.71,0,0,1,1.23.5l-.28.77,0,0a.78.78,0,0,1-.73.5.57.57,0,0,1-.23,0h0s0,0,0,0l-.42-.13a6,6,0,0,0-1.3-.16,2.09,2.09,0,0,0-1.25.33,1.12,1.12,0,0,0-.44.92,1.11,1.11,0,0,0,.16.61,1.62,1.62,0,0,0,.41.47,4.9,4.9,0,0,0,.64.36,6.08,6.08,0,0,0,.8.33,11.5,11.5,0,0,1,1.36.58,4.09,4.09,0,0,1,1,.67,2.54,2.54,0,0,1,.63.94,3.27,3.27,0,0,1,.22,1.3A2.71,2.71,0,0,1,117.56,22.81Z"/><path class="cls-1" d="M122.29,22.47a.81.81,0,0,1-.81.81h-1.17v-10a.82.82,0,0,1,.81-.81h1.17Z"/><path class="cls-1" d="M134.09,17.89a6.12,6.12,0,0,1-.44,2.44,4.63,4.63,0,0,1-1.23,1.73,5,5,0,0,1-1.94,1,9,9,0,0,1-2.5.33c-.44,0-.94,0-1.48,0a7.93,7.93,0,0,1-.88-.09h0a.82.82,0,0,1-.67-.8V12.64a10,10,0,0,1,1.59-.22q.84,0,1.5,0a8.84,8.84,0,0,1,2.48.33,5.21,5.21,0,0,1,1.92,1,4.46,4.46,0,0,1,1.23,1.72A6.31,6.31,0,0,1,134.09,17.89Zm-2.06,0a3.94,3.94,0,0,0-.94-2.83,4,4,0,0,0-3-1,11.39,11.39,0,0,0-1.25,0v7.56l.45,0,.77,0a4,4,0,0,0,3-1A3.85,3.85,0,0,0,132,17.89Z"/><path class="cls-1" d="M145.26,23.33h-1.58a.8.8,0,0,1-.7-.41l-.09-.27-.22-.59c-.16-.42-.31-.84-.45-1.28h-4.59c-.14.44-.3.86-.45,1.28-.08.25-.17.48-.25.73v0a.8.8,0,0,1-.7.52h-1.55c.41-1.16.8-2.23,1.16-3.2s.73-1.92,1.08-2.8.7-1.72,1-2.52.7-1.58,1.06-2.34h1.89c.36.77.72,1.55,1.06,2.34s.69,1.64,1,2.52.7,1.81,1.08,2.8S144.86,22.17,145.26,23.33Zm-3.56-4.16c-.33-.92-.66-1.8-1-2.59s-.58-1.49-.81-2c-.23.56-.52,1.23-.83,2s-.63,1.66-1,2.58Z"/><path class="cls-1" d="M155.86,17.89a6.12,6.12,0,0,1-.44,2.44,4.63,4.63,0,0,1-1.23,1.73,5,5,0,0,1-1.94,1,9,9,0,0,1-2.5.33c-.44,0-.94,0-1.48,0a7.93,7.93,0,0,1-.88-.09h0a.82.82,0,0,1-.69-.8V12.64a10,10,0,0,1,1.59-.22q.84,0,1.5,0a8.84,8.84,0,0,1,2.48.33,5.21,5.21,0,0,1,1.92,1,4.46,4.46,0,0,1,1.23,1.72A6.31,6.31,0,0,1,155.86,17.89Zm-2.06,0a3.94,3.94,0,0,0-.94-2.83,4,4,0,0,0-3-1,11.39,11.39,0,0,0-1.25,0v7.56l.45,0,.77,0a4,4,0,0,0,3-1A3.85,3.85,0,0,0,153.8,17.89Z"/><path class="cls-1" d="M165.38,23.34h-6.55a.81.81,0,0,1-.81-.81v-10h7v.86a.81.81,0,0,1-.78.81H160v2.69h4.45v1.64H160v3.19h4.59a.81.81,0,0,1,.78.81Z"/><path class="cls-1" d="M61.84,29a.8.8,0,0,1-.8.81H57v2.78H61.3v1.67H57v3.92a.81.81,0,0,1-.81.81H55V28.13h6.86Z"/><path class="cls-1" d="M70.92,39H64.37a.81.81,0,0,1-.81-.81v-10h7V29a.81.81,0,0,1-.78.81H65.55v2.69H70v1.64H65.55V37.3h4.59a.81.81,0,0,1,.78.81Z"/><path class="cls-1" d="M81.91,33.52A6.12,6.12,0,0,1,81.47,36a4.63,4.63,0,0,1-1.23,1.73,5,5,0,0,1-1.94,1,9,9,0,0,1-2.5.33c-.44,0-.94,0-1.48,0a7.93,7.93,0,0,1-.88-.09h0a.82.82,0,0,1-.67-.8V28.27A10,10,0,0,1,74.33,28q.84,0,1.5,0a8.84,8.84,0,0,1,2.48.33,5.21,5.21,0,0,1,1.92,1A4.46,4.46,0,0,1,81.47,31,6.31,6.31,0,0,1,81.91,33.52Zm-2.06,0a3.94,3.94,0,0,0-.94-2.83,4,4,0,0,0-3-1,11.39,11.39,0,0,0-1.25,0v7.56l.45,0,.77,0a4,4,0,0,0,3-1A3.85,3.85,0,0,0,79.85,33.52Z"/><path class="cls-1" d="M91.43,39H84.88a.81.81,0,0,1-.81-.81v-10h7V29a.81.81,0,0,1-.78.81H86.05v2.69H90.5v1.64H86.05V37.3h4.59a.81.81,0,0,1,.78.81Z"/><path class="cls-1" d="M101.65,39h-2.2c-.19-.36-.41-.75-.63-1.13s-.47-.75-.7-1.09-.47-.7-.69-1-.44-.61-.64-.84l-.37,0H95.16v3.27a.8.8,0,0,1-.8.8H93.21V28.33a11,11,0,0,1,1.53-.2c.53,0,1-.06,1.44-.06a6.33,6.33,0,0,1,3.58.86A3,3,0,0,1,101,31.53a3,3,0,0,1-2.16,3c.19.23.41.52.66.86s.52.72.77,1.13.52.8.75,1.22S101.46,38.57,101.65,39Zm-2.72-7.44a1.67,1.67,0,0,0-.17-.83,1.32,1.32,0,0,0-.55-.55,2.6,2.6,0,0,0-.83-.3,7.4,7.4,0,0,0-1.06-.08c-.41,0-.8,0-1.16,0V33.3H96a9.84,9.84,0,0,0,1.27-.08,2.39,2.39,0,0,0,.91-.28,1.36,1.36,0,0,0,.56-.55A1.79,1.79,0,0,0,98.93,31.52Z"/><path class="cls-1" d="M112.9,39h-1.58a.8.8,0,0,1-.7-.41l-.09-.27-.22-.59c-.16-.42-.31-.84-.45-1.28h-4.59c-.14.44-.3.86-.45,1.28-.08.25-.17.48-.25.73v0a.8.8,0,0,1-.7.52H102.3c.41-1.16.8-2.23,1.16-3.2s.73-1.92,1.08-2.8.7-1.72,1-2.52.7-1.58,1.06-2.34h1.89c.36.77.72,1.55,1.06,2.34s.69,1.64,1,2.52.7,1.81,1.08,2.8S112.49,37.8,112.9,39Zm-3.56-4.16c-.33-.92-.66-1.8-1-2.59s-.58-1.49-.81-2c-.23.56-.52,1.23-.83,2s-.63,1.66-1,2.58Z"/><path class="cls-1" d="M121.2,39h-6.89V28.92a.81.81,0,0,1,.81-.81h1.17v9.17h4.13a.82.82,0,0,1,.78.81Z"/><path class="cls-1" d="M135.48,33.52A6.12,6.12,0,0,1,135,36a4.63,4.63,0,0,1-1.23,1.73,5,5,0,0,1-1.94,1,9,9,0,0,1-2.5.33c-.44,0-.94,0-1.48,0a7.93,7.93,0,0,1-.88-.09h0a.82.82,0,0,1-.69-.8V28.27A10,10,0,0,1,127.9,28q.84,0,1.5,0a8.84,8.84,0,0,1,2.48.33,5.21,5.21,0,0,1,1.92,1A4.46,4.46,0,0,1,135,31,6.31,6.31,0,0,1,135.48,33.52Zm-2.06,0a3.94,3.94,0,0,0-.94-2.83,4,4,0,0,0-3-1,11.39,11.39,0,0,0-1.25,0v7.56l.45,0,.77,0a4,4,0,0,0,3-1A3.85,3.85,0,0,0,133.42,33.52Z"/><path class="cls-1" d="M145,39h-6.55a.81.81,0,0,1-.81-.81v-10h7V29a.81.81,0,0,1-.78.81h-4.22v2.69h4.45v1.64h-4.45V37.3h4.59a.81.81,0,0,1,.78.81Z"/><path class="cls-1" d="M60.61,54.07a4.85,4.85,0,0,1-3,.8,9.32,9.32,0,0,1-1.22-.08,9.53,9.53,0,0,1-1-.22c-.28-.08-.53-.17-.73-.25a3.67,3.67,0,0,1-.5-.25l.28-.78a.8.8,0,0,1,.77-.53.73.73,0,0,1,.27,0l.39.14a5.66,5.66,0,0,0,1.73.23,2.6,2.6,0,0,0,1.53-.36,1.17,1.17,0,0,0,.48-1,1.33,1.33,0,0,0-.16-.67,1.75,1.75,0,0,0-.47-.5,3.38,3.38,0,0,0-.75-.42q-.42-.19-1-.37a11,11,0,0,1-1.08-.45,3.46,3.46,0,0,1-.92-.59,2.52,2.52,0,0,1-.88-2,2.83,2.83,0,0,1,1-2.3,4.29,4.29,0,0,1,2.77-.83,6.78,6.78,0,0,1,1.78.22,5.71,5.71,0,0,1,1.23.5l-.28.77,0,0a.78.78,0,0,1-.73.5.57.57,0,0,1-.23,0h0s0,0,0,0l-.42-.13a6,6,0,0,0-1.3-.16,2.09,2.09,0,0,0-1.25.33,1.12,1.12,0,0,0-.44.92,1.11,1.11,0,0,0,.16.61,1.62,1.62,0,0,0,.41.47,4.9,4.9,0,0,0,.64.36,6.08,6.08,0,0,0,.8.33,11.5,11.5,0,0,1,1.36.58,4.09,4.09,0,0,1,1,.67,2.54,2.54,0,0,1,.63.94,3.27,3.27,0,0,1,.22,1.3A2.71,2.71,0,0,1,60.61,54.07Z"/><path class="cls-1" d="M70.75,54.6H64.2a.81.81,0,0,1-.81-.81v-10h7v.86a.81.81,0,0,1-.78.81H65.37V48.1h4.45v1.64H65.37v3.19H70a.81.81,0,0,1,.78.81Z"/><path class="cls-1" d="M81,54.58h-2.2c-.19-.36-.41-.75-.63-1.13s-.47-.75-.7-1.09-.47-.7-.69-1-.44-.61-.64-.84l-.37,0H74.49v3.27a.8.8,0,0,1-.8.8H72.53V44a11,11,0,0,1,1.53-.2c.53,0,1-.06,1.44-.06a6.33,6.33,0,0,1,3.58.86,3.24,3.24,0,0,1-.92,5.59c.19.23.41.52.66.86s.52.72.77,1.13.52.8.75,1.22S80.78,54.19,81,54.58Zm-2.72-7.44a1.67,1.67,0,0,0-.17-.83,1.32,1.32,0,0,0-.55-.55,2.6,2.6,0,0,0-.83-.3,7.4,7.4,0,0,0-1.06-.08c-.41,0-.8,0-1.16,0v3.48h.86a9.84,9.84,0,0,0,1.27-.08,2.39,2.39,0,0,0,.91-.28,1.36,1.36,0,0,0,.56-.55A1.79,1.79,0,0,0,78.25,47.15Z"/><path class="cls-1" d="M90.83,54.38a10.59,10.59,0,0,1-1.38.34,12.11,12.11,0,0,1-2.25.19,6,6,0,0,1-2.16-.37,4.49,4.49,0,0,1-1.66-1.11,4.85,4.85,0,0,1-1.06-1.77A7.23,7.23,0,0,1,82,49.24a6.5,6.5,0,0,1,.42-2.42A5.21,5.21,0,0,1,83.52,45a4.74,4.74,0,0,1,1.69-1.11,5.78,5.78,0,0,1,2.08-.37,7,7,0,0,1,1.34.11,9.33,9.33,0,0,1,1,.22,4.55,4.55,0,0,1,.69.27l.39.2-.28.78,0,0a.82.82,0,0,1-.75.5.76.76,0,0,1-.28,0L89,45.49a5.65,5.65,0,0,0-1.47-.19,3.13,3.13,0,0,0-2.56,1A4.3,4.3,0,0,0,84,49.24a5.75,5.75,0,0,0,.2,1.61,3.5,3.5,0,0,0,.64,1.25,2.8,2.8,0,0,0,1,.81,3.44,3.44,0,0,0,1.45.28c.34,0,.64,0,.89,0a3.35,3.35,0,0,0,.59-.11V49.15H90a.81.81,0,0,1,.81.81Z"/><path class="cls-1" d="M95,53.72a.81.81,0,0,1-.81.81H93.05v-10a.82.82,0,0,1,.81-.81H95Z"/><path class="cls-1" d="M105.59,47.22a3.62,3.62,0,0,1-.34,1.63,2.77,2.77,0,0,1-1,1.11,4.44,4.44,0,0,1-1.56.62,9.42,9.42,0,0,1-2.09.2h-1v3a.79.79,0,0,1-.8.77H97.68V44a10.13,10.13,0,0,1,1.52-.2c.55,0,1.06-.06,1.53-.06a6.39,6.39,0,0,1,3.59.86A3,3,0,0,1,105.59,47.22Zm-2.06,0a1.69,1.69,0,0,0-.2-.88,1.23,1.23,0,0,0-.56-.56,2.57,2.57,0,0,0-.84-.3,7.35,7.35,0,0,0-1-.08c-.5,0-.91,0-1.23,0v3.67h1a4.75,4.75,0,0,0,2.17-.41A1.5,1.5,0,0,0,103.52,47.21Z"/><path class="cls-1" d="M114.74,54.6H108.2a.81.81,0,0,1-.81-.81v-10h7v.86a.81.81,0,0,1-.78.81h-4.22V48.1h4.45v1.64h-4.45v3.19H114a.81.81,0,0,1,.78.81Z"/><path class="cls-1" d="M190.53,10.37h4.95l11.43,15v-15h5.3V34.76h-4.56L195.83,19.25V34.76h-5.3Z"/><path class="cls-1" d="M218.31,10.37h5.37V34.76h-5.37Z"/><path class="cls-1" d="M229.77,10.37h10a11.73,11.73,0,0,1,3.92.61,8.32,8.32,0,0,1,2.93,1.72,7.54,7.54,0,0,1,1.85,2.67,8.86,8.86,0,0,1,.64,3.43v.07a8.55,8.55,0,0,1-.77,3.73,7.61,7.61,0,0,1-2.11,2.68,9.13,9.13,0,0,1-3.14,1.62,13.29,13.29,0,0,1-3.85.54h-4.08v7.32h-5.37Zm9.62,12.3a4.36,4.36,0,0,0,3.14-1.06A3.49,3.49,0,0,0,243.64,19V18.9a3.33,3.33,0,0,0-1.17-2.75,4.94,4.94,0,0,0-3.19-.94h-4.15v7.46Z"/><path class="cls-1" d="M253,10.37h10a11.73,11.73,0,0,1,3.92.61,8.32,8.32,0,0,1,2.93,1.72,7.54,7.54,0,0,1,1.85,2.67,8.86,8.86,0,0,1,.64,3.43v.07a8.55,8.55,0,0,1-.77,3.73,7.61,7.61,0,0,1-2.11,2.68,9.13,9.13,0,0,1-3.14,1.62,13.29,13.29,0,0,1-3.85.54h-4.08v7.32H253Zm9.62,12.3a4.36,4.36,0,0,0,3.14-1.06A3.49,3.49,0,0,0,266.92,19V18.9a3.33,3.33,0,0,0-1.17-2.75,4.94,4.94,0,0,0-3.19-.94h-4.15v7.46Z"/><path class="cls-1" d="M276.32,10.37h18.36v4.77H281.62v4.95h11.5v4.77h-11.5V30h13.24v4.77H276.32Z"/><path class="cls-1" d="M311.1,35.18a12.63,12.63,0,0,1-5-1,12,12,0,0,1-6.59-6.66,12.85,12.85,0,0,1-.94-4.91v-.07a12.72,12.72,0,0,1,.94-4.9,12.58,12.58,0,0,1,2.61-4,12.11,12.11,0,0,1,4-2.72,13,13,0,0,1,5.16-1,16.15,16.15,0,0,1,3.12.28A13,13,0,0,1,317,11a11.14,11.14,0,0,1,2.13,1.18,14.41,14.41,0,0,1,1.81,1.53l-3.41,3.94a12.94,12.94,0,0,0-2.91-2,7.41,7.41,0,0,0-3.33-.73,6.8,6.8,0,0,0-2.84.59,6.72,6.72,0,0,0-2.25,1.64,7.63,7.63,0,0,0-1.46,2.42,8.23,8.23,0,0,0-.52,2.94v.07a8.37,8.37,0,0,0,.52,3A7.75,7.75,0,0,0,306.17,28a6.71,6.71,0,0,0,5.1,2.26,7.47,7.47,0,0,0,3.54-.77,13.72,13.72,0,0,0,2.87-2.09l3.42,3.45a17.66,17.66,0,0,1-2,1.81A11.59,11.59,0,0,1,316.94,34a11.46,11.46,0,0,1-2.63.87A15.88,15.88,0,0,1,311.1,35.18Z"/><path class="cls-1" d="M195,38.75h.69V45h-.56l-4.05-5.14V45h-.69V38.75h.66l4,5Z"/><path class="cls-1" d="M200.67,40.39h.68V45h-.68v-.81a1.77,1.77,0,0,1-1.59.91,1.69,1.69,0,0,1-1.77-1.86V40.39H198V43.1a1.23,1.23,0,0,0,1.28,1.4A1.37,1.37,0,0,0,200.67,43ZM199,39.73l.85-1.3.72.33-1,1Z"/><path class="cls-1" d="M205,45.14a2.42,2.42,0,1,1,1.86-4l-.46.48a1.87,1.87,0,0,0-1.41-.7,1.71,1.71,0,0,0-1.66,1.8,1.73,1.73,0,0,0,1.7,1.81,1.91,1.91,0,0,0,1.42-.69l.44.41A2.39,2.39,0,0,1,205,45.14Z"/><path class="cls-1" d="M208.08,45V38.48h.69V45Z"/><path class="cls-1" d="M212.42,44.53a1.92,1.92,0,0,0,1.46-.65l.43.39a2.39,2.39,0,0,1-1.91.87,2.43,2.43,0,0,1-.09-4.84,2.21,2.21,0,0,1,2.16,2.46,1.87,1.87,0,0,1,0,.22h-3.67A1.62,1.62,0,0,0,212.42,44.53Zm1.35-2.08a1.53,1.53,0,0,0-1.48-1.58,1.6,1.6,0,0,0-1.51,1.58Z"/><path class="cls-1" d="M217.79,45.14a2.38,2.38,0,0,1-2.4-2.41,2.42,2.42,0,1,1,2.4,2.41Zm0-4.23a1.7,1.7,0,0,0-1.69,1.8,1.74,1.74,0,0,0,1.71,1.81,1.71,1.71,0,0,0,1.7-1.79A1.75,1.75,0,0,0,217.79,40.9Z"/><path class="cls-1" d="M225,38.75V45h-.71V38.75Z"/><path class="cls-1" d="M227.45,45h-.69V40.39h.69v.81A1.75,1.75,0,0,1,229,40.3a1.69,1.69,0,0,1,1.77,1.86V45h-.69V42.32a1.24,1.24,0,0,0-1.28-1.4,1.36,1.36,0,0,0-1.39,1.45Z"/><path class="cls-1" d="M233.21,43.71a.69.69,0,0,0,.78.77,1.45,1.45,0,0,0,.67-.16v.59a1.74,1.74,0,0,1-.83.2,1.18,1.18,0,0,1-1.31-1.31V41h-.65v-.61h.65V39h.69v1.4h1.47V41h-1.47Z"/><path class="cls-1" d="M237.81,44.53a1.92,1.92,0,0,0,1.46-.65l.43.39a2.39,2.39,0,0,1-1.91.87,2.43,2.43,0,0,1-.09-4.84,2.21,2.21,0,0,1,2.16,2.46,1.87,1.87,0,0,1,0,.22h-3.67A1.62,1.62,0,0,0,237.81,44.53Zm1.35-2.08a1.53,1.53,0,0,0-1.48-1.58,1.6,1.6,0,0,0-1.51,1.58Z"/><path class="cls-1" d="M243.12,46.48a3.63,3.63,0,0,1-2.11-.65l.31-.54a3,3,0,0,0,1.78.59,1.52,1.52,0,0,0,1.68-1.65v-.55a2.2,2.2,0,0,1-1.82,1,2.19,2.19,0,0,1,0-4.37,2.17,2.17,0,0,1,1.81.93v-.83h.69v3.83A2.11,2.11,0,0,1,243.12,46.48Zm0-5.58a1.53,1.53,0,0,0-1.6,1.57,1.56,1.56,0,0,0,1.6,1.59,1.58,1.58,0,1,0,0-3.16Z"/><path class="cls-1" d="M247.71,45H247V40.39h.69V41.6a2,2,0,0,1,1.89-1.29v.74h-.05a1.87,1.87,0,0,0-1.84,2.12Z"/><path class="cls-1" d="M250.7,41.28l-.21-.56a3.83,3.83,0,0,1,1.69-.39,1.73,1.73,0,0,1,2,1.86V45h-.66v-.7a2,2,0,0,1-1.68.8,1.56,1.56,0,0,1-1.73-1.45c0-1,.81-1.51,2-1.51a4.93,4.93,0,0,1,1.43.2V42.2c0-.83-.51-1.26-1.38-1.26A3.23,3.23,0,0,0,250.7,41.28Zm.08,2.37c0,.59.54.93,1.17.93a1.4,1.4,0,0,0,1.55-1.25v-.45a4.83,4.83,0,0,0-1.36-.2C251.26,42.68,250.78,43.06,250.78,43.65Z"/><path class="cls-1" d="M259.33,45V44.1a2.08,2.08,0,0,1-1.77,1,2.42,2.42,0,0,1,0-4.83,2.09,2.09,0,0,1,1.77,1v-2.8H260V45Zm-1.65-4.11a1.64,1.64,0,0,0-1.63,1.79,1.67,1.67,0,0,0,1.63,1.8,1.8,1.8,0,0,0,0-3.59Z"/><path class="cls-1" d="M263.68,45.14a2.38,2.38,0,0,1-2.4-2.41,2.42,2.42,0,1,1,2.4,2.41Zm0-4.23a1.7,1.7,0,0,0-1.69,1.8,1.74,1.74,0,0,0,1.71,1.81,1.71,1.71,0,0,0,1.7-1.79A1.75,1.75,0,0,0,263.68,40.9Z"/><path class="cls-1" d="M273.76,45V44.1a2.08,2.08,0,0,1-1.77,1,2.42,2.42,0,0,1,0-4.83,2.09,2.09,0,0,1,1.77,1v-2.8h.69V45Zm-1.65-4.11a1.64,1.64,0,0,0-1.63,1.79,1.67,1.67,0,0,0,1.63,1.8,1.8,1.8,0,0,0,0-3.59Z"/><path class="cls-1" d="M278,44.53a1.92,1.92,0,0,0,1.46-.65l.43.39a2.39,2.39,0,0,1-1.91.87,2.43,2.43,0,0,1-.09-4.84,2.21,2.21,0,0,1,2.16,2.46,1.87,1.87,0,0,1,0,.22H276.4A1.62,1.62,0,0,0,278,44.53Zm1.35-2.08a1.53,1.53,0,0,0-1.48-1.58,1.6,1.6,0,0,0-1.51,1.58Z"/><path class="cls-1" d="M286.33,42.81h-1.52V45h-.71V38.75h2.35c1.42,0,2.35.75,2.35,2S287.67,42.81,286.33,42.81Zm.06-3.41h-1.59v2.76h1.55c1,0,1.72-.56,1.72-1.39S287.41,39.41,286.39,39.41Z"/><path class="cls-1" d="M292.08,45.14a2.38,2.38,0,0,1-2.4-2.41,2.42,2.42,0,1,1,2.4,2.41Zm0-4.23a1.7,1.7,0,0,0-1.69,1.8,1.74,1.74,0,0,0,1.71,1.81,1.71,1.71,0,0,0,1.7-1.79A1.75,1.75,0,0,0,292.08,40.9Zm-.26-1.21.85-1.3.72.33-1,1Z"/><path class="cls-1" d="M297.29,45.12a3.19,3.19,0,0,1-1.92-.68l.35-.49a2.71,2.71,0,0,0,1.6.59c.56,0,1-.29,1-.74v0c0-.47-.55-.65-1.16-.82s-1.53-.46-1.53-1.31v0a1.4,1.4,0,0,1,1.58-1.33,3.17,3.17,0,0,1,1.67.51l-.31.52a2.62,2.62,0,0,0-1.37-.45c-.55,0-.9.29-.9.67v0c0,.44.57.61,1.19.8s1.49.49,1.49,1.33v0A1.46,1.46,0,0,1,297.29,45.12Z"/><path class="cls-1" d="M300,42.7V42h2.49v.73Z"/><path class="cls-1" d="M306.9,45.14a3.08,3.08,0,0,1-3.19-3.24,3.15,3.15,0,0,1,3.15-3.25,3.31,3.31,0,0,1,2.34.83l-.46.54a2.67,2.67,0,0,0-1.91-.72,2.45,2.45,0,0,0-2.38,2.58,2.43,2.43,0,0,0,2.48,2.62,3,3,0,0,0,1.81-.63V42.31h-1.91v-.64h2.59v2.5A3.8,3.8,0,0,1,306.9,45.14Z"/><path class="cls-1" d="M311.59,45h-.69V40.39h.69V41.6a2,2,0,0,1,1.89-1.29v.74h-.05a1.87,1.87,0,0,0-1.84,2.12Z"/><path class="cls-1" d="M314.57,41.28l-.21-.56a3.83,3.83,0,0,1,1.69-.39,1.73,1.73,0,0,1,2,1.86V45h-.66v-.7a2,2,0,0,1-1.68.8A1.56,1.56,0,0,1,314,43.67c0-1,.81-1.51,2-1.51a4.93,4.93,0,0,1,1.43.2V42.2c0-.83-.51-1.26-1.38-1.26A3.23,3.23,0,0,0,314.57,41.28Zm.08,2.37c0,.59.54.93,1.17.93a1.4,1.4,0,0,0,1.55-1.25v-.45a4.83,4.83,0,0,0-1.36-.2C315.14,42.68,314.65,43.06,314.65,43.65Z"/><path class="cls-1" d="M323.21,45V44.1a2.08,2.08,0,0,1-1.77,1,2.42,2.42,0,0,1,0-4.83,2.09,2.09,0,0,1,1.77,1v-2.8h.69V45Zm-1.65-4.11a1.64,1.64,0,0,0-1.63,1.79,1.67,1.67,0,0,0,1.63,1.8,1.8,1.8,0,0,0,0-3.59Z"/><path class="cls-1" d="M328.73,40.39h.68V45h-.68v-.81a1.77,1.77,0,0,1-1.59.91,1.69,1.69,0,0,1-1.77-1.86V40.39h.69V43.1a1.23,1.23,0,0,0,1.28,1.4A1.37,1.37,0,0,0,328.73,43Z"/><path class="cls-1" d="M331.23,41.28l-.21-.56a3.83,3.83,0,0,1,1.69-.39,1.73,1.73,0,0,1,2,1.86V45H334v-.7a2,2,0,0,1-1.68.8,1.56,1.56,0,0,1-1.73-1.45c0-1,.81-1.51,2-1.51a4.93,4.93,0,0,1,1.43.2V42.2c0-.83-.51-1.26-1.38-1.26A3.23,3.23,0,0,0,331.23,41.28Zm.08,2.37c0,.59.54.93,1.17.93A1.4,1.4,0,0,0,334,43.32v-.45a4.83,4.83,0,0,0-1.36-.2C331.79,42.68,331.31,43.06,331.31,43.65Z"/><path class="cls-1" d="M335.86,42.72a2.41,2.41,0,0,1,4.23-1.6l-.46.48a1.87,1.87,0,0,0-1.41-.7,1.71,1.71,0,0,0-1.66,1.8,1.73,1.73,0,0,0,1.7,1.81,1.91,1.91,0,0,0,1.42-.69l.44.41a2.43,2.43,0,0,1-1.76.9l-.59,1.28-.67-.3.7-1A2.37,2.37,0,0,1,335.86,42.72Z"/><path class="cls-1" d="M341.53,41.28l-.21-.56a3.83,3.83,0,0,1,1.69-.39,1.73,1.73,0,0,1,2,1.86V45h-.66v-.7a2,2,0,0,1-1.68.8,1.56,1.56,0,0,1-1.73-1.45c0-1,.81-1.51,2-1.51a4.93,4.93,0,0,1,1.43.2V42.2c0-.83-.51-1.26-1.38-1.26A3.23,3.23,0,0,0,341.53,41.28Zm.08,2.37c0,.59.54.93,1.17.93a1.4,1.4,0,0,0,1.55-1.25v-.45a4.83,4.83,0,0,0-1.36-.2C342.1,42.68,341.61,43.06,341.61,43.65Zm2.12-4c-.4,0-.9-.36-1.2-.36s-.33.12-.47.44l-.42-.12c.18-.67.42-.94.85-.94s.9.36,1.2.36.33-.12.47-.44l.42.12C344.4,39.43,344.16,39.69,343.73,39.69Z"/><path class="cls-1" d="M348.57,45.14a2.38,2.38,0,0,1-2.4-2.41,2.42,2.42,0,1,1,2.4,2.41Zm0-4.23a1.7,1.7,0,0,0-1.69,1.8,1.74,1.74,0,0,0,1.71,1.81,1.71,1.71,0,0,0,1.7-1.79A1.75,1.75,0,0,0,348.57,40.9Z"/><path class="cls-1" d="M357,44.53a1.92,1.92,0,0,0,1.46-.65l.43.39a2.39,2.39,0,0,1-1.91.87,2.43,2.43,0,0,1-.09-4.84A2.21,2.21,0,0,1,359,42.75a1.87,1.87,0,0,1,0,.22h-3.67A1.62,1.62,0,0,0,357,44.53Zm1.35-2.08a1.53,1.53,0,0,0-1.48-1.58,1.6,1.6,0,0,0-1.51,1.58Z"/><path class="cls-1" d="M192.65,53.57h-1.52v2.21h-.71V49.51h2.35c1.42,0,2.35.75,2.35,2S194,53.57,192.65,53.57Zm.06-3.41h-1.59v2.76h1.55c1,0,1.72-.56,1.72-1.39S193.73,50.16,192.71,50.16Z"/><path class="cls-1" d="M198.29,55.29a1.92,1.92,0,0,0,1.46-.65l.43.39a2.39,2.39,0,0,1-1.91.87,2.43,2.43,0,0,1-.09-4.84,2.21,2.21,0,0,1,2.16,2.46,1.87,1.87,0,0,1,0,.22h-3.67A1.62,1.62,0,0,0,198.29,55.29Zm1.35-2.08a1.53,1.53,0,0,0-1.48-1.58,1.6,1.6,0,0,0-1.51,1.58Z"/><path class="cls-1" d="M203.08,55.87a3.19,3.19,0,0,1-1.92-.68l.35-.49a2.71,2.71,0,0,0,1.6.59c.56,0,1-.29,1-.74v0c0-.47-.55-.65-1.16-.82s-1.53-.46-1.53-1.31v0A1.4,1.4,0,0,1,203,51.07a3.17,3.17,0,0,1,1.67.51l-.31.52a2.62,2.62,0,0,0-1.37-.45c-.55,0-.9.29-.9.67v0c0,.44.57.61,1.19.8s1.49.49,1.49,1.33v0A1.46,1.46,0,0,1,203.08,55.87Z"/><path class="cls-1" d="M209.73,57.21V54.85a2.08,2.08,0,0,1-1.77,1A2.42,2.42,0,0,1,208,51a2.09,2.09,0,0,1,1.77,1v-.89h.69v6.07Zm-1.65-5.55a1.64,1.64,0,0,0-1.63,1.79,1.67,1.67,0,0,0,1.63,1.8,1.8,1.8,0,0,0,0-3.59Z"/><path class="cls-1" d="M215.25,51.15h.68v4.63h-.68V55a1.77,1.77,0,0,1-1.59.91A1.69,1.69,0,0,1,211.89,54V51.15h.69v2.71a1.23,1.23,0,0,0,1.28,1.4,1.37,1.37,0,0,0,1.39-1.45Z"/><path class="cls-1" d="M217.5,50.13v-.76h.79v.76Zm0,5.65V51.15h.69v4.63Z"/><path class="cls-1" d="M221.37,55.87a3.19,3.19,0,0,1-1.92-.68l.35-.49a2.71,2.71,0,0,0,1.6.59c.56,0,1-.29,1-.74v0c0-.47-.55-.65-1.16-.82s-1.53-.46-1.53-1.31v0a1.4,1.4,0,0,1,1.58-1.33,3.17,3.17,0,0,1,1.67.51l-.31.52a2.62,2.62,0,0,0-1.37-.45c-.55,0-.9.29-.9.67v0c0,.44.57.61,1.19.8s1.49.49,1.49,1.33v0A1.46,1.46,0,0,1,221.37,55.87Z"/><path class="cls-1" d="M224.57,52l-.21-.56a3.83,3.83,0,0,1,1.69-.39,1.73,1.73,0,0,1,2,1.86v2.83h-.66v-.7a2,2,0,0,1-1.68.8,1.56,1.56,0,0,1-1.73-1.45c0-1,.81-1.51,2-1.51a4.93,4.93,0,0,1,1.43.2V53c0-.83-.51-1.26-1.38-1.26A3.23,3.23,0,0,0,224.57,52Zm.08,2.37c0,.59.54.93,1.17.93a1.4,1.4,0,0,0,1.55-1.25v-.45a4.83,4.83,0,0,0-1.36-.2C225.13,53.43,224.65,53.81,224.65,54.4Z"/><path class="cls-1" d="M234.22,55.29a1.92,1.92,0,0,0,1.46-.65l.43.39a2.39,2.39,0,0,1-1.91.87,2.43,2.43,0,0,1-.09-4.84,2.21,2.21,0,0,1,2.16,2.46,1.87,1.87,0,0,1,0,.22h-3.67A1.62,1.62,0,0,0,234.22,55.29Zm1.35-2.08a1.53,1.53,0,0,0-1.48-1.58,1.6,1.6,0,0,0-1.51,1.58Z"/><path class="cls-1" d="M242.78,51a1.67,1.67,0,0,1,1.72,1.86v2.87h-.69V53.07c0-.9-.45-1.4-1.2-1.4a1.3,1.3,0,0,0-1.28,1.43v2.67h-.68V53.06c0-.87-.46-1.38-1.19-1.38a1.34,1.34,0,0,0-1.29,1.46v2.64h-.69V51.15h.69v.78a1.69,1.69,0,0,1,1.5-.88,1.57,1.57,0,0,1,1.49.92A1.85,1.85,0,0,1,242.78,51Z"/><path class="cls-1" d="M253.34,50.15h-3.83v2.14h3.42v.65h-3.42v2.2h3.87v.65H248.8V49.51h4.54Z"/><path class="cls-1" d="M258.32,55.78v-.93a2.08,2.08,0,0,1-1.77,1,2.42,2.42,0,0,1,0-4.83,2.09,2.09,0,0,1,1.77,1v-2.8H259v6.54Zm-1.65-4.11A1.64,1.64,0,0,0,255,53.46a1.67,1.67,0,0,0,1.63,1.8,1.8,1.8,0,0,0,0-3.59Z"/><path class="cls-1" d="M263.84,51.15h.68v4.63h-.68V55a1.77,1.77,0,0,1-1.59.91A1.69,1.69,0,0,1,260.48,54V51.15h.69v2.71a1.23,1.23,0,0,0,1.28,1.4,1.37,1.37,0,0,0,1.39-1.45Z"/><path class="cls-1" d="M268.16,55.89a2.42,2.42,0,1,1,1.86-4l-.46.48a1.87,1.87,0,0,0-1.41-.7,1.71,1.71,0,0,0-1.66,1.8,1.73,1.73,0,0,0,1.7,1.81,1.91,1.91,0,0,0,1.42-.69l.44.41A2.39,2.39,0,0,1,268.16,55.89Z"/><path class="cls-1" d="M271.46,52l-.21-.56a3.83,3.83,0,0,1,1.69-.39,1.73,1.73,0,0,1,2,1.86v2.83h-.66v-.7a2,2,0,0,1-1.68.8,1.56,1.56,0,0,1-1.73-1.45c0-1,.81-1.51,2-1.51a4.93,4.93,0,0,1,1.43.2V53c0-.83-.51-1.26-1.38-1.26A3.23,3.23,0,0,0,271.46,52Zm.08,2.37c0,.59.54.93,1.17.93a1.4,1.4,0,0,0,1.55-1.25v-.45a4.83,4.83,0,0,0-1.36-.2C272,53.43,271.54,53.81,271.54,54.4Z"/><path class="cls-1" d="M276.09,53.48a2.41,2.41,0,0,1,4.23-1.6l-.46.48a1.87,1.87,0,0,0-1.41-.7,1.71,1.71,0,0,0-1.66,1.8,1.73,1.73,0,0,0,1.7,1.81,1.91,1.91,0,0,0,1.42-.69l.44.41a2.43,2.43,0,0,1-1.76.9L278,57.17l-.67-.3.7-1A2.37,2.37,0,0,1,276.09,53.48Z"/><path class="cls-1" d="M281.76,52l-.21-.56a3.83,3.83,0,0,1,1.69-.39,1.73,1.73,0,0,1,2,1.86v2.83h-.66v-.7a2,2,0,0,1-1.68.8,1.56,1.56,0,0,1-1.73-1.45c0-1,.81-1.51,2-1.51a4.93,4.93,0,0,1,1.43.2V53c0-.83-.51-1.26-1.38-1.26A3.23,3.23,0,0,0,281.76,52Zm.08,2.37c0,.59.54.93,1.17.93a1.4,1.4,0,0,0,1.55-1.25v-.45a4.83,4.83,0,0,0-1.36-.2C282.33,53.43,281.84,53.81,281.84,54.4Zm2.12-4c-.4,0-.9-.36-1.2-.36s-.33.12-.47.44l-.42-.12c.18-.67.42-.94.85-.94s.9.36,1.2.36.33-.12.47-.44l.42.12C284.63,50.18,284.39,50.45,284,50.45Z"/><path class="cls-1" d="M288.8,55.89a2.38,2.38,0,0,1-2.4-2.41,2.42,2.42,0,1,1,2.4,2.41Zm0-4.23a1.7,1.7,0,0,0-1.69,1.8,1.74,1.74,0,0,0,1.71,1.81,1.71,1.71,0,0,0,1.7-1.79A1.75,1.75,0,0,0,288.8,51.66Z"/><path class="cls-1" d="M297.2,55.29a1.92,1.92,0,0,0,1.46-.65l.43.39a2.39,2.39,0,0,1-1.91.87,2.43,2.43,0,0,1-.09-4.84,2.21,2.21,0,0,1,2.16,2.46,1.87,1.87,0,0,1,0,.22h-3.67A1.62,1.62,0,0,0,297.2,55.29Zm1.35-2.08a1.53,1.53,0,0,0-1.48-1.58,1.6,1.6,0,0,0-1.51,1.58Z"/><path class="cls-1" d="M306.13,55.89a3.25,3.25,0,0,1,0-6.49,3.27,3.27,0,0,1,2.45,1l-.48.52a2.73,2.73,0,0,0-2-.86,2.6,2.6,0,0,0,0,5.18,2.72,2.72,0,0,0,2-.91l.47.46A3.27,3.27,0,0,1,306.13,55.89Z"/><path class="cls-1" d="M309.78,50.13v-.76h.79v.76Zm0,5.65V51.15h.69v4.63Z"/><path class="cls-1" d="M314.16,55.29a1.92,1.92,0,0,0,1.46-.65l.43.39a2.39,2.39,0,0,1-1.91.87,2.43,2.43,0,0,1-.09-4.84,2.21,2.21,0,0,1,2.16,2.46,1.87,1.87,0,0,1,0,.22h-3.67A1.62,1.62,0,0,0,314.16,55.29Zm1.35-2.08A1.53,1.53,0,0,0,314,51.63a1.6,1.6,0,0,0-1.51,1.58Zm-2.17-2.76h-.57l1-1.17h.61l1,1.17h-.59l-.67-.6Z"/><path class="cls-1" d="M318.11,55.78h-.69V51.15h.69V52A1.75,1.75,0,0,1,319.7,51a1.69,1.69,0,0,1,1.77,1.86v2.88h-.69V53.07a1.24,1.24,0,0,0-1.28-1.4,1.36,1.36,0,0,0-1.39,1.45Z"/><path class="cls-1" d="M325,55.89a2.42,2.42,0,1,1,1.86-4l-.46.48a1.87,1.87,0,0,0-1.41-.7,1.71,1.71,0,0,0-1.66,1.8,1.73,1.73,0,0,0,1.7,1.81,1.91,1.91,0,0,0,1.42-.69l.44.41A2.39,2.39,0,0,1,325,55.89Z"/><path class="cls-1" d="M328.08,50.13v-.76h.79v.76Zm0,5.65V51.15h.69v4.63Z"/><path class="cls-1" d="M330.68,52l-.21-.56a3.83,3.83,0,0,1,1.69-.39,1.73,1.73,0,0,1,2,1.86v2.83h-.66v-.7a2,2,0,0,1-1.68.8,1.56,1.56,0,0,1-1.73-1.45c0-1,.81-1.51,2-1.51a4.93,4.93,0,0,1,1.43.2V53c0-.83-.51-1.26-1.38-1.26A3.23,3.23,0,0,0,330.68,52Zm.08,2.37c0,.59.54.93,1.17.93a1.4,1.4,0,0,0,1.55-1.25v-.45a4.83,4.83,0,0,0-1.36-.2C331.25,53.43,330.76,53.81,330.76,54.4Z"/><path id="_Caminho_" data-name="&lt;Caminho&gt;" class="cls-2" d="M20.49,4.38a3.53,3.53,0,0,0,.46,2.15c.62,1.11,1.35,1.66,1.92,2.58a2.67,2.67,0,0,1,.07,2.72c0-1-1.52-2.32-1.8-2.65A4.75,4.75,0,0,1,20,6.89,3.89,3.89,0,0,1,20.49,4.38Z"/><path id="_Caminho_2" data-name="&lt;Caminho&gt;" class="cls-3" d="M23.68,10.59s.44-.84-.68-2.34c-1.25-1.68-2.09-2.41-2.09-4.39A7.24,7.24,0,0,1,22.55,0c0,1.78,1.09,2.7,2.14,4.07A3.93,3.93,0,0,1,25.51,7a3.71,3.71,0,0,1-.5,1.5,3.62,3.62,0,0,0-1.25-3,4.88,4.88,0,0,1-1.54-2.85,3.75,3.75,0,0,0,1.11,3.27,4.15,4.15,0,0,1,1.11,2.17A3.09,3.09,0,0,1,23.68,10.59Z"/><path id="_Caminho_3" data-name="&lt;Caminho&gt;" class="cls-4" d="M10.2,6.08a3.53,3.53,0,0,0,.46,2.15c.62,1.11,1.35,1.66,1.92,2.58a2.67,2.67,0,0,1,.07,2.72c0-1-1.52-2.32-1.8-2.65A4.75,4.75,0,0,1,9.69,8.59,3.89,3.89,0,0,1,10.2,6.08Z"/><path id="_Caminho_4" data-name="&lt;Caminho&gt;" class="cls-5" d="M13.39,12.29s.44-.84-.68-2.34c-1.25-1.68-2.09-2.41-2.09-4.39A7.24,7.24,0,0,1,12.26,1.7c0,1.78,1.09,2.7,2.14,4.07a3.93,3.93,0,0,1,.81,2.95,3.71,3.71,0,0,1-.5,1.5,3.62,3.62,0,0,0-1.25-3,4.88,4.88,0,0,1-1.54-2.85A3.75,3.75,0,0,0,13,7.64a4.15,4.15,0,0,1,1.11,2.17A3.09,3.09,0,0,1,13.39,12.29Z"/><path class="cls-1" d="M36.06,20.64A52.37,52.37,0,0,0,22.72,19h0A58.7,58.7,0,0,0,9.4,20.64a.55.55,0,0,0-.41.53V46.8C9,52,13.1,56.1,19,56.86a29.06,29.06,0,0,0,3.72.24,29.91,29.91,0,0,0,3.76-.24c5.88-.75,10-4.88,10-10.06V21.16A.55.55,0,0,0,36.06,20.64Z"/><path class="cls-6" d="M36.58,20a54.4,54.4,0,0,0-13.85-1.68h0A61,61,0,0,0,8.88,20a.57.57,0,0,0-.42.55V47.14c0,5.36,4.27,9.65,10.38,10.44a30.19,30.19,0,0,0,3.87.25,31.07,31.07,0,0,0,3.9-.24C32.72,56.81,37,52.51,37,47.14V20.51A.57.57,0,0,0,36.58,20ZM23.9,46.36l-1-1.36a.68.68,0,0,1-.14-.8.88.88,0,0,1,.81-.43h0A.54.54,0,0,1,24,44l.84,1.16.34.47.17.24.86,1.19a.8.8,0,0,1,.1.17.55.55,0,0,1-.05.52l-.07.1,0,0-.05.06,0,0-.05,0,0,0-.05,0,0,0-.05,0h0l-.06,0h-.24a.69.69,0,0,1-.5-.29l-.36-.49-.55-.74Zm9.93,6.32-6.46-8.36-.1.08c-.25-.05-.59-.21-.72-.1s0,.47,0,.72l-.15.13h0l-.27.1-.22.09h0l-.08-.11-.34-.47-.19-.27-.65-.89a1.2,1.2,0,0,0-1-.51h0a1.53,1.53,0,0,0-1.38.76,1.31,1.31,0,0,0,.18,1.53l.69.93.3.4-.6.44-.49.4-.09.08-.13.11-.22.2,0,0-.29.28-.46.49a3.87,3.87,0,0,0-1.42.85,4.2,4.2,0,0,0-.4,1.66l-.21.38-.19.38-.17.35-.17.4-.12.31-.11.31-.11.31q-.08.25-.15.49c-.32.46-.85.87-.94,1.39a1.24,1.24,0,0,0,0,.47,11.36,11.36,0,0,1-4.71-2.61,8.51,8.51,0,0,1-2.73-6.31V41.63l.09-.22.17-.4.17-.35.19-.38.21-.38a4.2,4.2,0,0,1,.4-1.66,3.87,3.87,0,0,1,1.42-.85l.46-.49.29-.28,0,0,.22-.2.13-.11.09-.08.49-.4.49-.36,0,0,.06.08.14.2.46.62.09.13.14.19.21.29a1.35,1.35,0,0,0,.95.55h.12a1.48,1.48,0,0,0,1.28-.72,1.23,1.23,0,0,0-.06-1.43L17,34.19l-.09-.13.16-.07.22-.09.27-.1h0l.15-.13c0-.26-.09-.62,0-.72s.46.05.72.1l.1-.08-9-11.66V21a60.67,60.67,0,0,1,13.12-1.53h0a54.34,54.34,0,0,1,13.13,1.52v6.18l-.19-.06.19.07h0L35.65,27h-.05l-.37-.12q-.42-.14-.84-.24l-.28-.07H34l-.31-.07-.17,0c-.33-.23-.63-.72-1-.76s-.74.37-1.1.53h-.35c-.33,0-.66,0-1,0l-.33,0-.33,0-.33,0-.43.07-.38.07-.47.1a4.73,4.73,0,0,0-1.88,0c-.54.21-.91.77-1.33,1.22l-.64.35-.34.21-.05,0-.25.16-.14.1-.1.07-.51.38c-.23.18-.45.36-.67.55l-.1-.13-.72-1a1.2,1.2,0,0,0-1-.51h0a1.53,1.53,0,0,0-1.38.76A1.31,1.31,0,0,0,19,30.31l.51.69.12.17.33.45.06.07.05.07-.07.09-.17.23v0h0l-.16.11c-.25-.07-.58-.24-.71-.15s-.07.46-.08.72l-.17.13-.06,0,8.77,11.36.06,0,.17-.13c0-.26-.05-.62.08-.72s.46.08.71.15l.16-.11h0v0l.17-.23.15-.19,0,0,0,.06,1,1.42a1.35,1.35,0,0,0,.95.55h.12a1.48,1.48,0,0,0,1.28-.72,1.23,1.23,0,0,0-.06-1.44l-.69-.95-.16-.23-.24-.34-.12-.17L30.9,41l0-.06.56-.46.51-.38L32,40l.14-.1.25-.16.05,0,.34-.21.64-.35c.43-.44.79-1,1.33-1.22a2.31,2.31,0,0,1,1.08-.07v9.26A8.56,8.56,0,0,1,33.83,52.68Zm-20-19.77.07-.11,0,0,.06-.06,0,0,.06,0,0,0,.06,0,0,0,.06,0h.05l.06,0h.26a.54.54,0,0,1,.44.24L16,33.88l.34.47.17.24.86,1.19a.58.58,0,0,1,0,.69.82.82,0,0,1-.72.41h0a.69.69,0,0,1-.5-.29l-.36-.49-.55-.74-.2-.28-1-1.37a1.16,1.16,0,0,1-.2-.38A.53.53,0,0,1,13.85,32.91Zm16.8,8.85.41.56.69.95a.57.57,0,0,1,0,.69.82.82,0,0,1-.72.41h0a.69.69,0,0,1-.5-.29l-1.05-1.42-.15-.2-.3-.4-.63-.85L28.27,41a.81.81,0,0,1-.08-.21.53.53,0,0,1,.06-.41h0l.07-.1,0,0,.05-.06,0,0,.06,0,0,0,.06,0,0,0,.06,0h.05l.06,0h.26a.54.54,0,0,1,.44.24l.84,1.15Zm-7.77-9.09-.07.1,0,0-.05.06,0,0-.05,0,0,0-.05,0,0,0-.05,0h0l-.06,0h-.24a.69.69,0,0,1-.5-.29l-1.05-1.42-.11-.15-.33-.45-.63-.85a.68.68,0,0,1-.14-.8.88.88,0,0,1,.81-.43h0a.54.54,0,0,1,.45.24l.86,1.19.26.36.41.56.69.95A.58.58,0,0,1,22.88,32.66Z"/><path class="cls-7" d="M44.4,53.79c.34-1.89.65-3.88,1.08-6.31a20.62,20.62,0,0,1-6.3,2.74l.72.14a11,11,0,0,1,2.52.87h0l.06,0,0,0,0,0,0,0,0,.06,0,0,0,.07v.15s0,0,0,0,0,0,0,0v.06l-.46,3.68A8,8,0,0,0,44.4,53.79Z"/><path class="cls-7" d="M1.08,53.79a8,8,0,0,0,2.14,1.72L2.76,51.8h0s0,0,0-.06,0,0,0-.06v0a.56.56,0,0,1,0-.07h0v0l0-.06,0,0,0-.05,0,0,0,0,0,0,.05,0h0a11,11,0,0,1,2.52-.87l.72-.14A20.62,20.62,0,0,1,0,47.48C.43,49.91.75,51.9,1.08,53.79Z"/><path class="cls-7" d="M41.6,51.65a.56.56,0,0,1,0-.15,11.76,11.76,0,0,0-1.86-.58,21,21,0,0,0-2.35-.36l1.41,5.08A5.85,5.85,0,0,0,41.6,51.65Z"/><path class="cls-7" d="M3.84,51.5a.56.56,0,0,1,0,.14,5.9,5.9,0,0,0,2.76,4L8,50.56a21,21,0,0,0-2.35.36A11.76,11.76,0,0,0,3.84,51.5Z"/><path class="cls-8" d="M41.31,58.46l.85-6.73c-1,6-9.66,6.9-14.29,7.17-1.67.1-3.39.15-5.1.15s-3.47-.05-5.16-.15C13,58.63,4.32,57.69,3.32,51.73l.85,6.73c.94,5.7,9,7.05,13.68,7.22,1.71.06,3.42.1,5.13.1,1.56,0,3.11,0,4.65-.1C32.24,65.48,40.37,64.22,41.31,58.46Z"/><path class="cls-9" d="M25.93,15a.73.73,0,0,0-.21-.55.3.3,0,0,1,0-.45.74.74,0,0,0,.27-.53.82.82,0,0,0-.79-.8,19,19,0,0,0-5,0,.83.83,0,0,0-.79.8.74.74,0,0,0,.27.53.3.3,0,0,1,0,.45.73.73,0,0,0-.21.55.76.76,0,1,0,.08,1.52.78.78,0,0,0,.81.73l1.54,0H23.5l1.54,0a.77.77,0,0,0,.81-.73.78.78,0,0,0,.83-.72A.77.77,0,0,0,25.93,15Z"/><path class="cls-1" d="M25.37,15.5a37.53,37.53,0,0,0-5.27,0,.17.17,0,0,0,0,.34,37.19,37.19,0,0,1,5.23,0h0a.17.17,0,0,0,0-.35Z"/><path class="cls-1" d="M20.7,13.67h0a26.35,26.35,0,0,1,4,0,.17.17,0,1,0,0-.34,26.68,26.68,0,0,0-4.09,0,.17.17,0,0,0,0,.34Z"/><path class="cls-9" d="M15.88,15.71a.63.63,0,0,0-.25-.44.26.26,0,0,1,0-.38.64.64,0,0,0,.15-.48.7.7,0,0,0-.77-.57,16.25,16.25,0,0,0-4.19.66.71.71,0,0,0-.56.78.64.64,0,0,0,.29.41.26.26,0,0,1,.08.37.63.63,0,0,0-.1.49.65.65,0,1,0,.27,1.28.66.66,0,0,0,.78.51l1.29-.24,1.3-.2,1.3-.17A.66.66,0,0,0,16,17a.67.67,0,0,0,.6-.71A.66.66,0,0,0,15.88,15.71Z"/><path class="cls-1" d="M15.37,16.26a30.46,30.46,0,0,0-4.23.66.14.14,0,0,0,.06.27,30.19,30.19,0,0,1,4.19-.66h0a.14.14,0,0,0,0-.28Z"/><path class="cls-1" d="M11.4,15.38h0a21.37,21.37,0,0,1,3.24-.51.14.14,0,1,0,0-.28,21.65,21.65,0,0,0-3.28.51.14.14,0,0,0,.05.27Z"/><path class="cls-9" d="M29.58,15.71a.63.63,0,0,1,.25-.44.26.26,0,0,0,0-.38.64.64,0,0,1-.15-.48.7.7,0,0,1,.77-.57,16.25,16.25,0,0,1,4.19.66.71.71,0,0,1,.56.78.64.64,0,0,1-.29.41.26.26,0,0,0-.08.37.63.63,0,0,1,.1.49.65.65,0,1,1-.27,1.28.66.66,0,0,1-.78.51l-1.29-.24-1.3-.2L30,17.72a.66.66,0,0,1-.59-.72.67.67,0,0,1-.6-.71A.66.66,0,0,1,29.58,15.71Z"/><path class="cls-1" d="M30.2,16.26a30.46,30.46,0,0,1,4.23.66.14.14,0,0,1-.06.27,30.19,30.19,0,0,0-4.19-.66h0a.14.14,0,0,1,0-.28Z"/><path class="cls-1" d="M34.17,15.38h0a21.37,21.37,0,0,0-3.24-.51.14.14,0,0,1,0-.28,21.65,21.65,0,0,1,3.28.51.14.14,0,0,1-.05.27Z"/><path id="_Caminho_5" data-name="&lt;Caminho&gt;" class="cls-10" d="M30.77,6.08a3.53,3.53,0,0,0,.46,2.15c.62,1.11,1.35,1.66,1.92,2.58a2.67,2.67,0,0,1,.07,2.72c0-1-1.52-2.32-1.8-2.65a4.75,4.75,0,0,1-1.15-2.29A3.89,3.89,0,0,1,30.77,6.08Z"/><path id="_Caminho_6" data-name="&lt;Caminho&gt;" class="cls-11" d="M34,12.29s.44-.84-.68-2.34C32,8.28,31.19,7.55,31.19,5.56A7.24,7.24,0,0,1,32.83,1.7c0,1.78,1.09,2.7,2.14,4.07a3.93,3.93,0,0,1,.81,2.95,3.71,3.71,0,0,1-.5,1.5,3.62,3.62,0,0,0-1.25-3,4.88,4.88,0,0,1-1.54-2.85A3.75,3.75,0,0,0,33.6,7.64a4.15,4.15,0,0,1,1.11,2.17A3.09,3.09,0,0,1,34,12.29Z"/><path class="cls-1" d="M5.75,56.94s0,0,.05,0a15,15,0,0,0,1.58.93.09.09,0,0,1,.05.08c0,.21,0,.32,0,.56,0,0,0,0-.05,0-.35-.19-.52-.29-.88-.51,0,0,0,0,0,0,0,.36,0,.55,0,.93a.07.07,0,0,0,0,.06c.3.2.45.29.75.47a.11.11,0,0,1,.05.09c0,.25,0,.38,0,.63,0,0,0,.05,0,0-.29-.18-.44-.28-.74-.49t0,0c0,.64.06,1,.14,1.5,0,0,0,0,0,0l-.53-.45A.18.18,0,0,1,6,60.74,27.34,27.34,0,0,1,5.75,56.94Z"/><path class="cls-1" d="M8.16,58.29s0,0,.05,0l.55.24a.08.08,0,0,1,0,.07c0,1.2,0,2.12,0,3.45a.05.05,0,0,0,0,.05c.33.16.49.23.82.35a.09.09,0,0,1,0,.08c0,.24,0,.35,0,.56,0,0,0,0,0,0a9.46,9.46,0,0,1-1.41-.67.11.11,0,0,1-.05-.08C8.14,60.93,8.15,59.73,8.16,58.29Z"/><path class="cls-1" d="M10.27,62.21c0-1.26,0-2.08,0-3.14,0,0,0,0,0,0l.53.14a.06.06,0,0,1,0,.07c0,1.09,0,2,0,3.27,0,.23.09.4.25.44s.25-.08.25-.31c0-1.3,0-2.19,0-3.28,0,0,0,0,0,0l.53.11a.06.06,0,0,1,0,.06c0,1,0,1.91,0,3.19,0,.84-.32,1.09-.86.95S10.28,63,10.27,62.21Z"/><path class="cls-1" d="M12.82,59.62s0,0,0,0l1.44.22a.06.06,0,0,1,0,.06v.55s0,.06,0,.05l-.83-.12s0,0,0,0c0,.37,0,.57,0,1,0,0,0,0,0,0l.72.1s0,0,0,.08v.69s0,.07,0,.06l-.72-.1s0,0,0,0c0,.43,0,.64,0,1,0,0,0,0,0,0l.83.12a.06.06,0,0,1,0,.07v.55a0,0,0,0,1,0,0c-.59-.07-.87-.11-1.44-.2a.06.06,0,0,1,0-.06C12.8,62.47,12.81,61,12.82,59.62Z"/><path class="cls-1" d="M15.09,60a0,0,0,0,1,0,0l.62.07a.07.07,0,0,1,.07.06c.22.9.34,1.64.56,2.83h0V60.09a0,0,0,0,1,0,0l.47,0a.05.05,0,0,1,0,.05v4.2a0,0,0,0,1,0,0l-.59,0a.07.07,0,0,1-.07-.06c-.23-.9-.35-1.64-.58-2.84h0v2.78a0,0,0,0,1,0,0l-.47,0a.05.05,0,0,1,0-.06Z"/><path class="cls-1" d="M17.8,60.2a0,0,0,0,1,0,0l.85,0a.8.8,0,0,1,.86.67,6.47,6.47,0,0,1,.09,1.52,6.38,6.38,0,0,1-.09,1.52.72.72,0,0,1-.86.6l-.85,0a.05.05,0,0,1,0-.05Zm.68,3.63h.16c.16,0,.25-.06.3-.25A5.48,5.48,0,0,0,19,62.36a5.56,5.56,0,0,0-.05-1.23c-.05-.19-.14-.27-.3-.28h-.16s0,0,0,0v2.9S18.46,63.83,18.48,63.83Z"/><path class="cls-1" d="M20.44,64a6.24,6.24,0,0,1-.07-1.57,6.18,6.18,0,0,1,.07-1.56.78.78,0,0,1,.86-.62.8.8,0,0,1,.86.64,6.22,6.22,0,0,1,.07,1.57A6.21,6.21,0,0,1,22.16,64a.78.78,0,0,1-.86.63A.81.81,0,0,1,20.44,64Zm1.1-.2a7.59,7.59,0,0,0,0-1.34,7.61,7.61,0,0,0,0-1.34.25.25,0,0,0-.24-.21.24.24,0,0,0-.24.2,7.58,7.58,0,0,0,0,1.34,7.62,7.62,0,0,0,0,1.34.25.25,0,0,0,.24.21A.24.24,0,0,0,21.54,63.77Z"/><path class="cls-1" d="M24.29,62.42a7.15,7.15,0,0,1,.07-1.58.79.79,0,0,1,.84-.64c.54,0,.86.23.88,1,0,0,0,.07,0,.08l-.52.14s-.05,0-.05-.06c0-.35-.09-.47-.26-.47a.22.22,0,0,0-.22.2,8.22,8.22,0,0,0,0,1.36,8.21,8.21,0,0,0,0,1.35.21.21,0,0,0,.22.19c.16,0,.25-.13.26-.48,0,0,0-.07.05-.06l.52.1s0,0,0,.08c0,.74-.35,1-.89,1a.74.74,0,0,1-.83-.61A7.13,7.13,0,0,1,24.29,62.42Z"/><path class="cls-1" d="M28,64.43a0,0,0,0,1-.05,0c-.15-.52-.23-.87-.38-1.58h-.19s0,0,0,0c0,.69,0,1,0,1.55a.05.05,0,0,1,0,.05l-.55,0a0,0,0,0,1,0,0c0-1.36,0-2.85,0-4.21a.05.05,0,0,1,0-.05l.8,0c.6,0,1,.16,1,1.18a1.76,1.76,0,0,1-.38,1.23c.18.79.27,1.2.45,1.78,0,0,0,.05,0,.05Zm-.11-3.06c0-.48-.11-.59-.36-.58h-.14s0,0,0,0c0,.43,0,.67,0,1.16,0,0,0,0,0,0h.14C27.83,62,27.93,61.85,27.94,61.37Z"/><path class="cls-1" d="M29.37,60.06a.05.05,0,0,1,0-.06c.59-.06.88-.09,1.46-.17a0,0,0,0,1,0,0v.55a.06.06,0,0,1,0,.07l-.83.1s0,0,0,0c0,.37,0,.57,0,1,0,0,0,0,0,0l.72-.08s0,0,0,.06v.69s0,.07,0,.08l-.72.08s0,0,0,0c0,.43,0,.64,0,1,0,0,0,0,0,0l.84-.1s0,0,0,.06v.55a.05.05,0,0,1,0,.06l-1.47.16a0,0,0,0,1,0,0C29.36,62.92,29.37,61.42,29.37,60.06Z"/><path class="cls-1" d="M32.47,64c-.61.11-.9-.16-.91-.93,0,0,0-.07,0-.08l.54-.2s.06,0,.06,0c0,.42.09.55.29.51s.27-.16.28-.57-.05-.53-.31-.63l-.21-.08c-.49-.18-.65-.54-.65-1.26s.29-1.16.92-1.27.92.14.93.83a.08.08,0,0,1,0,.08l-.53.21s-.06,0-.06,0c0-.32-.09-.46-.28-.43s-.27.17-.27.48.05.44.33.54l.21.07c.48.16.66.48.64,1.25C33.42,63.44,33.14,63.87,32.47,64Z"/><path class="cls-1" d="M34.17,61.41a7.67,7.67,0,0,1,.1-1.58,1.21,1.21,0,0,1,.91-.9c.58-.17.91,0,.92.75a.1.1,0,0,1-.05.09l-.56.3s-.06,0-.06,0c0-.34-.09-.45-.26-.4a.33.33,0,0,0-.24.26,9.26,9.26,0,0,0-.07,1.34,9.65,9.65,0,0,0,0,1.32c0,.12.1.16.22.12s.27-.22.29-.57a.08.08,0,0,1,.06-.08l.53-.09s0,0,0,.06a1.48,1.48,0,0,1-1,1.37c-.45.15-.71,0-.81-.4A7.63,7.63,0,0,1,34.17,61.41Z"/><path class="cls-1" d="M36.86,58.48a.09.09,0,0,1,.05-.08l.58-.24s.05,0,0,0c-.07,1.53-.11,2.56-.31,4a.12.12,0,0,1-.06.08l-.55.3s0,0,0,0C36.76,61.1,36.8,60,36.86,58.48Z"/><path class="cls-1" d="M38.54,61.41s0,0,0,0a28.32,28.32,0,0,0,.31-3.18s0,0,0,0l-.53.29s0,0,0,0c0-.23,0-.35,0-.57a.1.1,0,0,1,.05-.08,10.72,10.72,0,0,0,1.72-1s0,0,0,0c0,.21,0,.32,0,.53a.13.13,0,0,1,0,.09l-.5.36a.07.07,0,0,0,0,.05,24.43,24.43,0,0,1-.31,3.06.18.18,0,0,1-.06.1C38.86,61.16,38.75,61.25,38.54,61.41Z"/></g></g></svg>