<svg xmlns="http://www.w3.org/2000/svg" viewBox="0 0 507.17 143.11"><defs><style>.cls-1{fill:#fff;}</style></defs><title>logo_1</title><g id="Camada_2" data-name="Camada 2"><g id="Camada_1-2" data-name="Camada 1"><path class="cls-1" d="M42.5,108.23Q39.4,103,35.58,97.08t-7.92-12q-4.09-6-8.33-11.74T11.28,63.09v45.14H0V45.17H9.37Q13,49,17.2,54.22t8.42,10.87q4.23,5.64,8.19,11.33T40.86,87V45.17H52.23v63.06Z"/><path class="cls-1" d="M67.34,45.17H78.8v63.06H67.34Z"/><path class="cls-1" d="M111.75,44.53q13.74,0,21.07,5t7.33,15.65a21.28,21.28,0,0,1-2,9.51,16.45,16.45,0,0,1-5.69,6.46,26.37,26.37,0,0,1-9.1,3.69A57.41,57.41,0,0,1,111.11,86h-5.73v22.2H93.91V46.08a57,57,0,0,1,8.87-1.23Q107.65,44.53,111.75,44.53Zm.82,9.92q-4.37,0-7.19.27V76.2h5.55q8.28,0,12.74-2.32t4.46-8.78a10.43,10.43,0,0,0-1.18-5.19,8.51,8.51,0,0,0-3.28-3.28,15.44,15.44,0,0,0-5-1.68A35.79,35.79,0,0,0,112.56,54.45Z"/><path class="cls-1" d="M168.44,44.53q13.74,0,21.07,5t7.33,15.65a21.28,21.28,0,0,1-2,9.51,16.45,16.45,0,0,1-5.69,6.46,26.37,26.37,0,0,1-9.1,3.69A57.41,57.41,0,0,1,167.8,86h-5.73v22.2H150.6V46.08a57,57,0,0,1,8.87-1.23Q164.34,44.53,168.44,44.53Zm.82,9.92q-4.37,0-7.19.27V76.2h5.55q8.28,0,12.74-2.32t4.46-8.78a10.43,10.43,0,0,0-1.18-5.19,8.51,8.51,0,0,0-3.28-3.28,15.44,15.44,0,0,0-5-1.68A35.79,35.79,0,0,0,169.26,54.45Z"/><path class="cls-1" d="M207.29,108.23V45.17h40.49V54.9h-29V70.46H244.6V80H218.76V98.49H250v9.74Z"/><path class="cls-1" d="M286.37,109.59a35.09,35.09,0,0,1-12.74-2.18,25.2,25.2,0,0,1-9.55-6.42,28.69,28.69,0,0,1-6-10.33,43.07,43.07,0,0,1-2.09-14,37.9,37.9,0,0,1,2.41-14A30.34,30.34,0,0,1,265,52.31a27.74,27.74,0,0,1,9.83-6.42,33.23,33.23,0,0,1,12.1-2.18,39.11,39.11,0,0,1,7.1.59,50.76,50.76,0,0,1,5.55,1.32,23,23,0,0,1,3.91,1.55q1.55.82,2.18,1.18l-3.37,9.37a26.79,26.79,0,0,0-6.23-2.59,30.12,30.12,0,0,0-8.78-1.23,20.52,20.52,0,0,0-7.64,1.41,16.57,16.57,0,0,0-6.14,4.23,19.7,19.7,0,0,0-4,7.1A30.78,30.78,0,0,0,268,76.56a34.93,34.93,0,0,0,1.14,9.19,20.33,20.33,0,0,0,3.5,7.23,15.91,15.91,0,0,0,6,4.73,20.65,20.65,0,0,0,8.74,1.68,33.13,33.13,0,0,0,9.92-1.23,39.53,39.53,0,0,0,5.92-2.32l3.09,9.37a15.71,15.71,0,0,1-3,1.46,42.52,42.52,0,0,1-4.41,1.41,43.84,43.84,0,0,1-5.73,1.09A53.55,53.55,0,0,1,286.37,109.59Z"/><path class="cls-1" d="M332,79.14c0-20.26.06-40.52-.07-60.78,0-2.71,1-3,3.22-2.94,2,.07,3.38-.2,3.37,2.79q-.18,61,0,122.09c0,2.91-1.29,2.79-3.33,2.81s-3.27-.16-3.26-2.92C332.07,119.83,332,99.49,332,79.14Z"/><path class="cls-1" d="M453.13,44.55a3,3,0,0,0-.52-.26c-8.4-.8-8.4-.8-8.4,7.52q0,14.2,0,28.4c0,6.76-2.84,9.54-9.67,9.54H424.36c-3.52,0-3.52,0-3.52-3.4q0-19.82,0-39.65c0-.88.53-2.16-.88-2.46s-2.5,0-2.5,2c0,6.51.47,13.06-.27,19.54C416,76,411.41,84.28,401.73,88.61s-19.59,3.81-28.5-2.47c-8.07-5.69-11.23-14.08-11.45-23.66-.16-6.69-.09-13.39,0-20.09.05-5.19,3.21-8.21,8.47-8.25,4,0,8,.12,12.05-.06,2.18-.1,2.89.46,2.85,2.75-.15,8.12-.06,16.25-.05,24.38a19.31,19.31,0,0,0,.06,2.41,4.54,4.54,0,0,0,4.65,4.25A4.34,4.34,0,0,0,394,63.49c.14-1.87.06-3.75.06-5.62,0-5.18,0-10.36,0-15.54.06-5,3.21-8.15,8.26-8.2s10,0,15,0c3.48,0,3.53,0,3.48-3.39a33.07,33.07,0,0,1,4.05-17.25C430.7,3.28,442.06-1.72,454.22.53c11.47,2.12,20.09,11.24,21.87,23.13,1.07,7.18,1.07,7.18-6.18,7.18-4.73,0-9.47-.09-14.2,0-1.91.05-2.86-.36-2.66-2.46a5.16,5.16,0,0,0-.52-2.32,4,4,0,0,0-4-2.63,3.84,3.84,0,0,0-3.81,2.82,17.11,17.11,0,0,0-.5,6.64c.08,1.75,1.53,1.16,2.47,1.16q20.36,0,40.72,0a15.86,15.86,0,0,0,1.61,0c1.4-.15,1.88.47,1.86,1.85-.06,4.55.08,9.11-.06,13.66-.15,4.75-3.31,7.67-8.1,7.81-2.58.08-5.17-.2-7.75.25-2.41.42-4,1.61-4,4.21s1.57,3.93,3.94,4.26c2.82.39,5.7.4,8.51.82C497.65,69,507.16,80,507.17,94.22s-9.48,25.16-23.7,27.36c-5.34.82-10.7.42-16,.49s-10.54,0-15.81,0c-1.26,0-2.25,0-2.21-1.76.1-4.64-.09-9.29.08-13.93s3.58-7.71,8.53-7.75c6.16-.06,12.32,0,18.48,0a17.2,17.2,0,0,0,3.46-.24c2.21-.47,3.77-1.69,3.74-4.18s-1.56-3.76-3.78-4.17c-1.83-.34-3.73-.31-5.59-.49-23.09-2.25-33.94-23.9-21.92-43.72C452.63,45.46,452.83,45.09,453.13,44.55Zm5.36-.62c-6.89,6.73-8.92,14.93-6.82,24.08,2,8.86,7.94,14.33,16.48,17.06a29.15,29.15,0,0,0,8.44,1.28,15.67,15.67,0,0,1,5.52.87,7.48,7.48,0,0,1,5,7.2,7.4,7.4,0,0,1-5.35,7,16.77,16.77,0,0,1-5.29.69c-6.16,0-12.32,0-18.48,0-3.45,0-5.08,1.67-5.15,5.1-.06,3.21,0,6.43,0,9.64,0,1.31.33,2,1.79,1.95,9-.21,18,.53,27-.38,13.22-1.34,22.19-11.25,22.19-24.17S494.93,71.6,481.91,70c-2.74-.33-5.54-.32-8.23-.87a7.14,7.14,0,0,1-6.08-7.4c0-3.74,2.25-6.36,6.19-7.33,2.91-.71,5.87-.28,8.8-.4,3.15-.13,4.8-1.7,4.87-4.81.07-3.3,0-6.61,0-9.91,0-1.53-.47-2-2-2-3.48.1-7,0-10.45,0q-15.94,0-31.87,0c-1.05,0-2.49.48-2.38-1.5.16-3-.28-6.07.36-9.08.87-4.11,3.23-6.43,6.9-6.68s6.57,1.62,7.85,5.5c.5,1.52,1.26,1.83,2.7,1.8,4-.08,8-.15,12.05,0,2.15.09,2.49-.62,2.26-2.6C471.54,13,462.71,4.41,450.82,3.51c-12.35-.94-22.35,6.07-25.57,17.84-1.22,4.46-1.22,9-1.06,13.56.07,2-.41,2.61-2.48,2.56-6.16-.15-12.32-.06-18.48,0-4.25,0-5.84,1.58-5.85,5.79,0,6.61.06,13.21,0,19.82-.08,5.68-4.76,9.33-9.85,7.86-3.65-1.06-5.69-3.84-5.71-8.07,0-7.77-.06-15.54,0-23.3,0-1.62-.45-2.19-2.11-2.13-3.3.12-6.61,0-9.91.06-2.8.07-4.63,1.75-4.65,4.49-.05,7.68-.31,15.38.18,23,.81,12.9,10.42,22.33,22.67,22.87,13.37.59,23.21-7.24,25.54-20.5,1.14-6.46.41-13,.51-19.51.11-7.08,0-7,7.09-7.13,2.48-.06,3.11.65,3.09,3.1-.12,13.3,0,26.61-.11,39.91,0,2.13.58,2.81,2.69,2.67,2.67-.18,5.35,0,8,0,4.68,0,6-1.35,6-6.09,0-12.32,0-24.64,0-37,0-2,.54-2.6,2.55-2.56,5.88.13,11.77,0,18,0C460.65,42.38,459.42,43,458.49,43.92Z"/></g></g></svg>