<svg xmlns="http://www.w3.org/2000/svg" viewBox="0 0 1132.37 306.53"><defs><style>.cls-1{fill:#004596;}.cls-2{fill:#fff;}.cls-3{fill:#f7bd00;}.cls-4{fill:#df0109;}</style></defs><title>logo-nippec-azul_2</title><g id="Camada_2" data-name="Camada 2"><g id="Camada_1-2" data-name="Camada 1"><path class="cls-1" d="M256.76,63.07h25.71l59.4,78v-78h27.53V189.83H345.67l-61.39-80.58v80.58H256.76Z"/><path class="cls-1" d="M401.08,63.07H429V189.83H401.08Z"/><path class="cls-1" d="M460.66,63.07h51.79a61,61,0,0,1,20.37,3.17,43.25,43.25,0,0,1,15.21,9,39.21,39.21,0,0,1,9.6,13.85A46.06,46.06,0,0,1,561,106.89v.36a44.45,44.45,0,0,1-4,19.38,39.54,39.54,0,0,1-11,13.94,47.46,47.46,0,0,1-16.3,8.42,69,69,0,0,1-20,2.81H488.55v38H460.66Zm50,63.92q10.5,0,16.3-5.52a18.13,18.13,0,0,0,5.8-13.67v-.36q0-9.41-6.07-14.31T510.1,88.24H488.55V127Z"/><path class="cls-1" d="M581.63,63.07h51.79a61,61,0,0,1,20.37,3.17,43.25,43.25,0,0,1,15.21,9,39.21,39.21,0,0,1,9.6,13.85,46.06,46.06,0,0,1,3.35,17.84v.36a44.45,44.45,0,0,1-4,19.38,39.54,39.54,0,0,1-11,13.94,47.46,47.46,0,0,1-16.3,8.42,69,69,0,0,1-20,2.81H609.51v38H581.63Zm50,63.92q10.5,0,16.3-5.52a18.13,18.13,0,0,0,5.8-13.67v-.36q0-9.41-6.07-14.31t-16.57-4.89H609.51V127Z"/><path class="cls-1" d="M702.59,63.07H798V87.88H730.12v25.71h59.76V138.4H730.12V165h68.81v24.81H702.59Z"/><path class="cls-1" d="M883.32,192a65.63,65.63,0,0,1-25.89-5.07,62.5,62.5,0,0,1-34.23-34.59,66.75,66.75,0,0,1-4.89-25.53v-.36A66.09,66.09,0,0,1,823.2,101a65.39,65.39,0,0,1,13.58-20.82A63,63,0,0,1,857.6,66.05a67.8,67.8,0,0,1,26.8-5.16,83.91,83.91,0,0,1,16.21,1.45,67.77,67.77,0,0,1,13.31,4,57.91,57.91,0,0,1,11,6.16,74.91,74.91,0,0,1,9.42,8l-17.75,20.46a67.24,67.24,0,0,0-15.12-10.5,38.52,38.52,0,0,0-17.29-3.8,35.33,35.33,0,0,0-14.76,3.08,35,35,0,0,0-11.68,8.51,39.67,39.67,0,0,0-7.61,12.58,42.76,42.76,0,0,0-2.72,15.3v.36a43.49,43.49,0,0,0,2.72,15.39,40.3,40.3,0,0,0,7.52,12.68,34.86,34.86,0,0,0,26.53,11.77q10.87,0,18.38-4a71.32,71.32,0,0,0,14.94-10.86l17.75,17.93a91.77,91.77,0,0,1-10.14,9.42,60.24,60.24,0,0,1-11.5,7.15A59.53,59.53,0,0,1,900,190.46,82.51,82.51,0,0,1,883.32,192Z"/><path class="cls-1" d="M280.15,210.59h3.59V243.2H280.8l-21.05-26.74V243.2h-3.59V210.59h3.45l20.54,26.13Z"/><path class="cls-1" d="M309.44,219.12H313V243.2h-3.54V239a9.17,9.17,0,0,1-8.24,4.71c-5.82,0-9.22-3.91-9.22-9.64v-15h3.59v14.07c0,4.47,2.42,7.27,6.66,7.27s7.22-3,7.22-7.54Zm-8.71-3.45,4.42-6.75,3.73,1.72-5.26,5Z"/><path class="cls-1" d="M331.88,243.76a12.58,12.58,0,1,1,9.64-20.87l-2.37,2.51c-1.91-2-4.05-3.63-7.31-3.63-4.89,0-8.62,4.15-8.62,9.36s3.82,9.41,8.85,9.41a9.94,9.94,0,0,0,7.36-3.59l2.28,2.14A12.41,12.41,0,0,1,331.88,243.76Z"/><path class="cls-1" d="M347.94,243.2v-34h3.59v34Z"/><path class="cls-1" d="M370.48,240.64a10,10,0,0,0,7.59-3.4l2.24,2a12.43,12.43,0,0,1-9.92,4.52c-6.61,0-12-5.08-12-12.58,0-7,4.89-12.58,11.55-12.58,7.13,0,11.23,5.68,11.23,12.76a9.72,9.72,0,0,1,0,1.12H362C362.52,237.7,366.24,240.64,370.48,240.64Zm7-10.81c-.37-4.38-2.89-8.2-7.69-8.2-4.19,0-7.36,3.49-7.83,8.2Z"/><path class="cls-1" d="M398.42,243.76a12.35,12.35,0,0,1-12.48-12.53,12.55,12.55,0,1,1,12.48,12.53Zm0-22c-5.22,0-8.8,4.15-8.8,9.36s3.82,9.41,8.9,9.41,8.85-4.15,8.85-9.32S403.5,221.77,398.42,221.77Z"/><path class="cls-1" d="M436.09,210.59V243.2h-3.68V210.59Z"/><path class="cls-1" d="M448.61,243.2H445V219.12h3.59v4.19a9.12,9.12,0,0,1,8.24-4.7c5.82,0,9.22,3.91,9.22,9.64v15h-3.59V229.13c0-4.47-2.42-7.27-6.66-7.27s-7.22,3-7.22,7.55Z"/><path class="cls-1" d="M478.55,236.35c0,2.94,1.63,4,4.05,4a7.55,7.55,0,0,0,3.49-.84v3.07a9,9,0,0,1-4.33,1c-3.87,0-6.8-1.91-6.8-6.8V222.29h-3.35v-3.17H475v-7.27h3.59v7.27h7.64v3.17h-7.64Z"/><path class="cls-1" d="M502.45,240.64a10,10,0,0,0,7.59-3.4l2.24,2a12.43,12.43,0,0,1-9.92,4.52c-6.61,0-12-5.08-12-12.58,0-7,4.89-12.58,11.55-12.58,7.13,0,11.23,5.68,11.23,12.76a9.72,9.72,0,0,1,0,1.12H494C494.48,237.7,498.21,240.64,502.45,240.64Zm7-10.81c-.37-4.38-2.89-8.2-7.69-8.2-4.19,0-7.36,3.49-7.82,8.2Z"/><path class="cls-1" d="M530.06,250.75a18.88,18.88,0,0,1-10.95-3.35l1.63-2.8a15.38,15.38,0,0,0,9.27,3.07c5.31,0,8.76-2.93,8.76-8.57v-2.84c-2.1,2.79-5,5.08-9.45,5.08a11.37,11.37,0,0,1,0-22.73,11.29,11.29,0,0,1,9.41,4.84v-4.33h3.59V239C542.31,246.79,537.46,250.75,530.06,250.75Zm0-29c-4.57,0-8.34,3.12-8.34,8.15a8.13,8.13,0,0,0,8.34,8.24c4.57,0,8.85-3.26,8.85-8.2S534.58,221.77,530,221.77Z"/><path class="cls-1" d="M553.9,243.2h-3.59V219.12h3.59v6.29c1.77-4,5.26-6.89,9.83-6.71v3.87h-.28c-5.26,0-9.55,3.77-9.55,11Z"/><path class="cls-1" d="M569.4,223.73l-1.07-2.93a19.88,19.88,0,0,1,8.76-2c6.57,0,10.25,3.35,10.25,9.69V243.2h-3.45v-3.63a10.55,10.55,0,0,1-8.71,4.15c-4.47,0-9-2.52-9-7.55s4.19-7.83,10.29-7.83a25.6,25.6,0,0,1,7.41,1v-.84c0-4.33-2.66-6.57-7.17-6.57A16.78,16.78,0,0,0,569.4,223.73Zm.42,12.3c0,3.07,2.8,4.84,6.06,4.84,4.42,0,8.06-2.7,8.06-6.52V232a25.11,25.11,0,0,0-7.08-1C572.34,231,569.82,233,569.82,236Z"/><path class="cls-1" d="M614.3,243.2v-4.84c-2,2.89-4.8,5.36-9.22,5.36-5.78,0-11.5-4.57-11.5-12.53s5.73-12.58,11.5-12.58a10.86,10.86,0,0,1,9.22,5.12V209.2h3.59v34Zm-8.57-21.38c-4.66,0-8.48,3.45-8.48,9.32s3.91,9.36,8.48,9.36,8.71-3.73,8.71-9.36A9,9,0,0,0,605.73,221.82Z"/><path class="cls-1" d="M636.88,243.76a12.35,12.35,0,0,1-12.48-12.53,12.55,12.55,0,1,1,12.48,12.53Zm0-22c-5.22,0-8.8,4.15-8.8,9.36s3.82,9.41,8.9,9.41,8.85-4.15,8.85-9.32S642,221.77,636.88,221.77Z"/><path class="cls-1" d="M689.26,243.2v-4.84c-2,2.89-4.8,5.36-9.22,5.36-5.78,0-11.5-4.57-11.5-12.53s5.73-12.58,11.5-12.58a10.86,10.86,0,0,1,9.22,5.12V209.2h3.59v34Zm-8.57-21.38c-4.66,0-8.48,3.45-8.48,9.32s3.91,9.36,8.48,9.36,8.71-3.73,8.71-9.36A9,9,0,0,0,680.69,221.82Z"/><path class="cls-1" d="M711.47,240.64a10,10,0,0,0,7.59-3.4l2.24,2a12.43,12.43,0,0,1-9.92,4.52c-6.61,0-12-5.08-12-12.58,0-7,4.89-12.58,11.55-12.58,7.13,0,11.23,5.68,11.23,12.76a9.72,9.72,0,0,1,0,1.12H703C703.51,237.7,707.23,240.64,711.47,240.64Zm7-10.81c-.37-4.38-2.89-8.2-7.69-8.2-4.19,0-7.36,3.49-7.82,8.2Z"/><path class="cls-1" d="M754.59,231.69h-7.92v11.5H743V210.59h12.2c7.36,0,12.2,3.91,12.2,10.39C767.4,228.06,761.53,231.69,754.59,231.69Zm.33-17.7h-8.24v14.35h8.06c5.4,0,8.94-2.89,8.94-7.22C763.67,216.42,760.18,214,754.92,214Z"/><path class="cls-1" d="M784.49,243.76A12.35,12.35,0,0,1,772,231.23a12.55,12.55,0,1,1,12.48,12.53Zm0-22c-5.22,0-8.8,4.15-8.8,9.36s3.82,9.41,8.9,9.41,8.85-4.15,8.85-9.32S789.56,221.77,784.49,221.77Zm-1.35-6.29,4.42-6.75,3.73,1.72-5.26,5Z"/><path class="cls-1" d="M811.54,243.67a16.56,16.56,0,0,1-10-3.54l1.82-2.56a14.07,14.07,0,0,0,8.34,3.07c2.89,0,5-1.49,5-3.82v-.09c0-2.42-2.84-3.35-6-4.24-3.77-1.07-8-2.38-8-6.8v-.09c0-4.15,3.45-6.89,8.2-6.89a16.46,16.46,0,0,1,8.66,2.66l-1.63,2.7a13.62,13.62,0,0,0-7.13-2.33c-2.84,0-4.66,1.49-4.66,3.49v.09c0,2.28,3,3.17,6.2,4.15,3.73,1.12,7.73,2.56,7.73,6.89v.09C820.11,241,816.34,243.67,811.54,243.67Z"/><path class="cls-1" d="M825.79,231.09v-3.77h12.95v3.77Z"/><path class="cls-1" d="M861.51,243.76c-10.25,0-16.58-7.45-16.58-16.82,0-9,6.57-16.91,16.35-16.91a17.18,17.18,0,0,1,12.16,4.33l-2.38,2.8a13.87,13.87,0,0,0-9.92-3.73c-7.22,0-12.39,6.1-12.39,13.41,0,7.83,5,13.6,12.9,13.6a15.35,15.35,0,0,0,9.41-3.26v-8.1h-9.92v-3.31h13.46v13A19.76,19.76,0,0,1,861.51,243.76Z"/><path class="cls-1" d="M885.86,243.2h-3.59V219.12h3.59v6.29c1.77-4,5.26-6.89,9.83-6.71v3.87h-.28c-5.26,0-9.55,3.77-9.55,11Z"/><path class="cls-1" d="M901.36,223.73l-1.07-2.93a19.88,19.88,0,0,1,8.76-2c6.57,0,10.25,3.35,10.25,9.69V243.2h-3.45v-3.63a10.55,10.55,0,0,1-8.71,4.15c-4.47,0-9-2.52-9-7.55s4.19-7.83,10.29-7.83a25.6,25.6,0,0,1,7.41,1v-.84c0-4.33-2.66-6.57-7.17-6.57A16.77,16.77,0,0,0,901.36,223.73Zm.42,12.3c0,3.07,2.8,4.84,6.06,4.84,4.42,0,8.06-2.7,8.06-6.52V232a25.09,25.09,0,0,0-7.08-1C904.3,231,901.78,233,901.78,236Z"/><path class="cls-1" d="M946.25,243.2v-4.84c-2,2.89-4.8,5.36-9.22,5.36-5.78,0-11.5-4.57-11.5-12.53s5.73-12.58,11.5-12.58a10.86,10.86,0,0,1,9.22,5.12V209.2h3.59v34Zm-8.57-21.38c-4.66,0-8.48,3.45-8.48,9.32s3.91,9.36,8.48,9.36,8.71-3.73,8.71-9.36A9,9,0,0,0,937.68,221.82Z"/><path class="cls-1" d="M974.94,219.12h3.54V243.2h-3.54V239a9.17,9.17,0,0,1-8.24,4.71c-5.82,0-9.22-3.91-9.22-9.64v-15h3.59v14.07c0,4.47,2.42,7.27,6.66,7.27s7.22-3,7.22-7.54Z"/><path class="cls-1" d="M987.92,223.73l-1.07-2.93a19.88,19.88,0,0,1,8.76-2c6.57,0,10.25,3.35,10.25,9.69V243.2h-3.45v-3.63a10.55,10.55,0,0,1-8.71,4.15c-4.47,0-9-2.52-9-7.55s4.19-7.83,10.29-7.83a25.6,25.6,0,0,1,7.41,1v-.84c0-4.33-2.66-6.57-7.17-6.57A16.78,16.78,0,0,0,987.92,223.73Zm.42,12.3c0,3.07,2.8,4.84,6.06,4.84,4.42,0,8.06-2.7,8.06-6.52V232a25.11,25.11,0,0,0-7.08-1C990.86,231,988.34,233,988.34,236Z"/><path class="cls-1" d="M1012,231.23a12.54,12.54,0,0,1,22-8.34l-2.37,2.51c-1.91-2-4.05-3.63-7.31-3.63-4.89,0-8.62,4.15-8.62,9.36s3.82,9.41,8.85,9.41a9.94,9.94,0,0,0,7.36-3.59l2.28,2.14a12.6,12.6,0,0,1-9.13,4.66l-3.07,6.66-3.49-1.58,3.63-5.31A12.34,12.34,0,0,1,1012,231.23Z"/><path class="cls-1" d="M1041.47,223.73l-1.07-2.93a19.88,19.88,0,0,1,8.76-2c6.57,0,10.25,3.35,10.25,9.69V243.2H1056v-3.63a10.55,10.55,0,0,1-8.71,4.15c-4.47,0-9-2.52-9-7.55s4.19-7.83,10.29-7.83a25.6,25.6,0,0,1,7.41,1v-.84c0-4.33-2.66-6.57-7.17-6.57A16.77,16.77,0,0,0,1041.47,223.73Zm.42,12.3c0,3.07,2.8,4.84,6.06,4.84,4.42,0,8.06-2.7,8.06-6.52V232a25.09,25.09,0,0,0-7.08-1C1044.41,231,1041.89,233,1041.89,236Zm11-20.54c-2.1,0-4.66-1.86-6.24-1.86-1.21,0-1.72.61-2.42,2.28l-2.19-.61c.93-3.49,2.19-4.89,4.42-4.89s4.66,1.86,6.24,1.86c1.21,0,1.72-.61,2.42-2.28l2.19.61C1056.38,214.09,1055.12,215.48,1052.88,215.48Z"/><path class="cls-1" d="M1078,243.76a12.35,12.35,0,0,1-12.48-12.53A12.55,12.55,0,1,1,1078,243.76Zm0-22c-5.22,0-8.8,4.15-8.8,9.36s3.82,9.41,8.9,9.41,8.85-4.15,8.85-9.32S1083.11,221.77,1078,221.77Z"/><path class="cls-1" d="M1121.71,240.64a10,10,0,0,0,7.59-3.4l2.24,2a12.43,12.43,0,0,1-9.92,4.52c-6.61,0-12-5.08-12-12.58,0-7,4.89-12.58,11.55-12.58,7.13,0,11.23,5.68,11.23,12.76a9.72,9.72,0,0,1,0,1.12h-19.1C1113.74,237.7,1117.47,240.64,1121.71,240.64Zm7-10.81c-.37-4.38-2.89-8.2-7.69-8.2-4.19,0-7.36,3.49-7.83,8.2Z"/><path class="cls-1" d="M267.76,287.57h-7.92v11.5h-3.68V266.47h12.2c7.36,0,12.2,3.91,12.2,10.39C280.57,283.94,274.7,287.57,267.76,287.57Zm.33-17.7h-8.24v14.35h8.06c5.4,0,8.94-2.89,8.94-7.22C276.84,272.29,273.35,269.87,268.09,269.87Z"/><path class="cls-1" d="M297,296.51a10,10,0,0,0,7.59-3.4l2.24,2a12.43,12.43,0,0,1-9.92,4.52c-6.61,0-12-5.08-12-12.58,0-7,4.89-12.58,11.55-12.58,7.13,0,11.23,5.68,11.23,12.76a9.72,9.72,0,0,1,0,1.12h-19.1C289.08,293.58,292.81,296.51,297,296.51Zm7-10.81c-.37-4.38-2.89-8.2-7.69-8.2-4.19,0-7.36,3.49-7.82,8.2Z"/><path class="cls-1" d="M322,299.54A16.56,16.56,0,0,1,312,296l1.82-2.56a14.07,14.07,0,0,0,8.34,3.07c2.89,0,5-1.49,5-3.82v-.09c0-2.42-2.84-3.35-6-4.24-3.77-1.07-8-2.38-8-6.8v-.09c0-4.15,3.45-6.89,8.2-6.89a16.46,16.46,0,0,1,8.66,2.66l-1.63,2.7a13.62,13.62,0,0,0-7.13-2.33c-2.84,0-4.66,1.49-4.66,3.49v.09c0,2.28,3,3.17,6.2,4.15,3.73,1.12,7.73,2.56,7.73,6.89v.09C330.53,296.89,326.76,299.54,322,299.54Z"/><path class="cls-1" d="M356.51,306.53v-12.3c-2,2.89-4.8,5.36-9.22,5.36-5.78,0-11.5-4.57-11.5-12.53s5.73-12.58,11.5-12.58a10.86,10.86,0,0,1,9.22,5.12V275h3.59v31.53Zm-8.57-28.83c-4.66,0-8.48,3.45-8.48,9.32s3.91,9.36,8.48,9.36,8.71-3.73,8.71-9.36A9,9,0,0,0,347.94,277.7Z"/><path class="cls-1" d="M385.2,275h3.54v24.08H385.2v-4.19a9.17,9.17,0,0,1-8.24,4.71c-5.82,0-9.22-3.91-9.22-9.64V275h3.59v14.07c0,4.47,2.42,7.27,6.66,7.27s7.22-3,7.22-7.54Z"/><path class="cls-1" d="M396.88,269.73v-4H401v4Zm.23,29.34V275h3.59v24.08Z"/><path class="cls-1" d="M417,299.54A16.56,16.56,0,0,1,407,296l1.82-2.56a14.07,14.07,0,0,0,8.34,3.07c2.89,0,5-1.49,5-3.82v-.09c0-2.42-2.84-3.35-6-4.24-3.77-1.07-8-2.38-8-6.8v-.09c0-4.15,3.45-6.89,8.2-6.89a16.46,16.46,0,0,1,8.66,2.66l-1.63,2.7a13.62,13.62,0,0,0-7.13-2.33c-2.84,0-4.66,1.49-4.66,3.49v.09c0,2.28,3,3.17,6.2,4.15,3.73,1.12,7.73,2.56,7.73,6.89v.09C425.57,296.89,421.8,299.54,417,299.54Z"/><path class="cls-1" d="M433.62,279.61l-1.07-2.93a19.88,19.88,0,0,1,8.76-2c6.57,0,10.25,3.35,10.25,9.69v14.72h-3.45v-3.63a10.55,10.55,0,0,1-8.71,4.15c-4.47,0-9-2.52-9-7.55s4.19-7.83,10.29-7.83a25.6,25.6,0,0,1,7.41,1v-.84c0-4.33-2.66-6.57-7.17-6.57A16.78,16.78,0,0,0,433.62,279.61Zm.42,12.3c0,3.07,2.8,4.84,6.06,4.84,4.42,0,8.06-2.7,8.06-6.52V287.9a25.11,25.11,0,0,0-7.08-1C436.55,286.87,434,288.83,434,291.9Z"/><path class="cls-1" d="M483.77,296.51a10,10,0,0,0,7.59-3.4l2.24,2a12.43,12.43,0,0,1-9.92,4.52c-6.61,0-12-5.08-12-12.58,0-7,4.89-12.58,11.55-12.58,7.13,0,11.23,5.68,11.23,12.76a9.72,9.72,0,0,1,0,1.12H475.3C475.81,293.58,479.53,296.51,483.77,296.51Zm7-10.81c-.37-4.38-2.89-8.2-7.69-8.2-4.19,0-7.36,3.49-7.82,8.2Z"/><path class="cls-1" d="M528.29,274.48c5.54,0,8.94,3.73,8.94,9.69v14.91h-3.59V285c0-4.66-2.33-7.27-6.24-7.27-3.63,0-6.66,2.7-6.66,7.45v13.88h-3.54V284.92c0-4.52-2.38-7.17-6.19-7.17s-6.71,3.17-6.71,7.59v13.74h-3.59V275h3.59V279c1.58-2.38,3.73-4.57,7.78-4.57a8.18,8.18,0,0,1,7.73,4.8A9.6,9.6,0,0,1,528.29,274.48Z"/><path class="cls-1" d="M583.14,269.83H563.26V281H581v3.35H563.26v11.41h20.12v3.35h-23.8V266.47h23.57Z"/><path class="cls-1" d="M609,299.08v-4.84c-2,2.89-4.8,5.36-9.22,5.36-5.78,0-11.5-4.57-11.5-12.53s5.73-12.58,11.5-12.58a10.86,10.86,0,0,1,9.22,5.12V265.07h3.59v34Zm-8.57-21.38c-4.66,0-8.48,3.45-8.48,9.32s3.91,9.36,8.48,9.36,8.71-3.73,8.71-9.36A9,9,0,0,0,600.46,277.7Z"/><path class="cls-1" d="M637.72,275h3.54v24.08h-3.54v-4.19a9.17,9.17,0,0,1-8.24,4.71c-5.82,0-9.22-3.91-9.22-9.64V275h3.59v14.07c0,4.47,2.42,7.27,6.66,7.27s7.22-3,7.22-7.54Z"/><path class="cls-1" d="M660.16,299.64a12.58,12.58,0,1,1,9.64-20.87l-2.37,2.51c-1.91-2-4.05-3.63-7.31-3.63-4.89,0-8.62,4.15-8.62,9.36s3.82,9.41,8.85,9.41a9.94,9.94,0,0,0,7.36-3.59L670,295A12.41,12.41,0,0,1,660.16,299.64Z"/><path class="cls-1" d="M677.29,279.61l-1.07-2.93a19.88,19.88,0,0,1,8.76-2c6.57,0,10.25,3.35,10.25,9.69v14.72h-3.45v-3.63a10.55,10.55,0,0,1-8.71,4.15c-4.47,0-9-2.52-9-7.55s4.19-7.83,10.29-7.83a25.6,25.6,0,0,1,7.41,1v-.84c0-4.33-2.66-6.57-7.17-6.57A16.77,16.77,0,0,0,677.29,279.61Zm.42,12.3c0,3.07,2.8,4.84,6.06,4.84,4.42,0,8.06-2.7,8.06-6.52V287.9a25.09,25.09,0,0,0-7.08-1C680.23,286.87,677.71,288.83,677.71,291.9Z"/><path class="cls-1" d="M701.37,287.11a12.54,12.54,0,0,1,22-8.34L721,281.28c-1.91-2-4.05-3.63-7.31-3.63-4.89,0-8.62,4.15-8.62,9.36s3.82,9.41,8.85,9.41a9.94,9.94,0,0,0,7.36-3.59l2.28,2.14a12.6,12.6,0,0,1-9.13,4.66l-3.07,6.66-3.49-1.58,3.63-5.31A12.34,12.34,0,0,1,701.37,287.11Z"/><path class="cls-1" d="M730.84,279.61l-1.07-2.93a19.88,19.88,0,0,1,8.76-2c6.57,0,10.25,3.35,10.25,9.69v14.72h-3.45v-3.63a10.55,10.55,0,0,1-8.71,4.15c-4.47,0-9-2.52-9-7.55s4.19-7.83,10.29-7.83a25.6,25.6,0,0,1,7.41,1v-.84c0-4.33-2.66-6.57-7.17-6.57A16.78,16.78,0,0,0,730.84,279.61Zm.42,12.3c0,3.07,2.8,4.84,6.06,4.84,4.42,0,8.06-2.7,8.06-6.52V287.9a25.11,25.11,0,0,0-7.08-1C733.78,286.87,731.26,288.83,731.26,291.9Zm11-20.54c-2.1,0-4.66-1.86-6.24-1.86-1.21,0-1.72.61-2.42,2.28l-2.19-.61c.93-3.49,2.19-4.89,4.42-4.89s4.66,1.86,6.24,1.86c1.21,0,1.72-.61,2.42-2.28l2.19.61C745.75,270,744.49,271.36,742.25,271.36Z"/><path class="cls-1" d="M767.4,299.64a12.35,12.35,0,0,1-12.48-12.53,12.55,12.55,0,1,1,12.48,12.53Zm0-22c-5.22,0-8.8,4.15-8.8,9.36s3.82,9.41,8.9,9.41,8.85-4.15,8.85-9.32S772.48,277.65,767.4,277.65Z"/><path class="cls-1" d="M811.08,296.51a10,10,0,0,0,7.59-3.4l2.24,2a12.43,12.43,0,0,1-9.92,4.52c-6.61,0-12-5.08-12-12.58,0-7,4.89-12.58,11.55-12.58,7.13,0,11.23,5.68,11.23,12.76a9.72,9.72,0,0,1,0,1.12H802.6C803.11,293.58,806.84,296.51,811.08,296.51Zm7-10.81c-.37-4.38-2.89-8.2-7.69-8.2-4.19,0-7.36,3.49-7.82,8.2Z"/><path class="cls-1" d="M857.5,299.64c-9.41,0-16.35-7.41-16.35-16.82s6.89-16.91,16.49-16.91a17,17,0,0,1,12.72,5.17l-2.51,2.7c-2.75-2.61-5.82-4.47-10.25-4.47-7.22,0-12.62,5.82-12.62,13.41s5.45,13.51,12.62,13.51c4.47,0,7.41-1.72,10.53-4.71l2.42,2.38C867.14,297.35,863.42,299.64,857.5,299.64Z"/><path class="cls-1" d="M876.45,269.73v-4h4.1v4Zm.23,29.34V275h3.59v24.08Z"/><path class="cls-1" d="M899.22,296.51a10,10,0,0,0,7.59-3.4l2.24,2a12.43,12.43,0,0,1-9.92,4.52c-6.61,0-12-5.08-12-12.58,0-7,4.89-12.58,11.55-12.58,7.13,0,11.23,5.68,11.23,12.76a9.72,9.72,0,0,1,0,1.12h-19.1C891.26,293.58,895,296.51,899.22,296.51Zm7-10.81c-.37-4.38-2.89-8.2-7.69-8.2-4.19,0-7.36,3.49-7.82,8.2ZM895,271.36h-3l4.94-6.1h3.17l4.94,6.1H902l-3.49-3.12Z"/><path class="cls-1" d="M919.76,299.08h-3.59V275h3.59v4.19a9.12,9.12,0,0,1,8.24-4.7c5.82,0,9.22,3.91,9.22,9.64v15h-3.59V285c0-4.47-2.42-7.27-6.66-7.27s-7.22,3-7.22,7.55Z"/><path class="cls-1" d="M955.7,299.64a12.58,12.58,0,1,1,9.64-20.87L963,281.28c-1.91-2-4.05-3.63-7.31-3.63-4.89,0-8.62,4.15-8.62,9.36s3.82,9.41,8.85,9.41a9.94,9.94,0,0,0,7.36-3.59l2.28,2.14A12.41,12.41,0,0,1,955.7,299.64Z"/><path class="cls-1" d="M971.53,269.73v-4h4.1v4Zm.23,29.34V275h3.59v24.08Z"/><path class="cls-1" d="M985.08,279.61,984,276.67a19.88,19.88,0,0,1,8.76-2c6.57,0,10.25,3.35,10.25,9.69v14.72h-3.45v-3.63a10.55,10.55,0,0,1-8.71,4.15c-4.47,0-9-2.52-9-7.55s4.19-7.83,10.29-7.83a25.6,25.6,0,0,1,7.41,1v-.84c0-4.33-2.66-6.57-7.17-6.57A16.78,16.78,0,0,0,985.08,279.61Zm.42,12.3c0,3.07,2.8,4.84,6.06,4.84,4.42,0,8.06-2.7,8.06-6.52V287.9a25.11,25.11,0,0,0-7.08-1C988,286.87,985.5,288.83,985.5,291.9Z"/><path class="cls-2" d="M164.06,93.9c-15.69-4.53-38.94-7.34-60.68-7.34h0c-20.38.12-44.15,3-60.58,7.33a2.48,2.48,0,0,0-1.85,2.4V212.94c0,23.46,18.69,42.27,45.45,45.75a132.23,132.23,0,0,0,16.95,1.07,136.09,136.09,0,0,0,17.1-1.07c26.76-3.4,45.45-22.21,45.45-45.75V96.29A2.48,2.48,0,0,0,164.06,93.9Z"/><path class="cls-1" d="M166.41,90.84c-16.29-4.71-40.44-7.63-63-7.63h0c-21.16.13-45.86,3.11-62.92,7.61a2.58,2.58,0,0,0-1.92,2.5V214.48c0,24.37,19.41,43.91,47.21,47.52a137.35,137.35,0,0,0,17.6,1.11A141.36,141.36,0,0,0,121.06,262c27.8-3.53,47.21-23.07,47.21-47.52V93.31A2.58,2.58,0,0,0,166.41,90.84ZM108.74,210.92l-4.57-6.17c-.82-1.11-1.45-2.29-.65-3.66a4,4,0,0,1,3.7-2h.07a2.45,2.45,0,0,1,2,1.09l3.84,5.28,1.56,2.15.78,1.07,3.92,5.4a3.64,3.64,0,0,1,.43.76,2.5,2.5,0,0,1-.25,2.39,4.94,4.94,0,0,1-.31.44l-.11.12-.23.26-.14.13-.23.2-.17.11-.24.15-.19.09-.25.11-.21.07-.26.08-.23,0-.27,0h-.61a3.14,3.14,0,0,1-2.28-1.3l-1.63-2.21-2.5-3.38Zm45.18,28.75-29.37-38-.48.38c-1.15-.24-2.68-.95-3.26-.47s-.18,2.12-.17,3.3l-.69.59h0l-.08,0-1.22.47-1,.42-.1,0-.37-.51-1.56-2.15-.89-1.22-2.95-4.06a5.44,5.44,0,0,0-4.43-2.33h-.1a7,7,0,0,0-6.3,3.45c-1.27,2.17-1,4.51.83,7l3.13,4.22,1.35,1.82q-1.39,1-2.75,2c-.77.59-1.51,1.2-2.24,1.82l-.4.34c-.2.16-.4.33-.58.51-.34.29-.67.6-1,.9l-.2.19c-.44.41-.88.83-1.31,1.26-.72.72-1.42,1.46-2.11,2.21-2.29,1.17-5,1.93-6.47,3.85s-1.33,5-1.84,7.57c-.32.57-.65,1.15-1,1.73s-.59,1.14-.86,1.71-.52,1.06-.75,1.6-.54,1.21-.79,1.83c-.19.46-.38.93-.55,1.4s-.36.94-.52,1.41-.34.94-.49,1.42q-.37,1.12-.69,2.25c-1.46,2.1-3.85,4-4.26,6.34a5.65,5.65,0,0,0,.09,2.16A51.7,51.7,0,0,1,56.09,243.2a38.74,38.74,0,0,1-12.44-28.72V189.42c.13-.34.26-.67.4-1,.25-.62.52-1.23.79-1.83s.49-1.07.75-1.6.57-1.15.86-1.71.63-1.16,1-1.73c.51-2.59.38-5.59,1.84-7.57s4.18-2.68,6.47-3.85c.69-.75,1.39-1.49,2.11-2.21.43-.43.87-.85,1.31-1.26l.2-.19c.33-.3.66-.61,1-.9.18-.17.38-.34.58-.5l.4-.34c.73-.62,1.47-1.22,2.24-1.82s1.46-1.1,2.21-1.62l.09.12.27.37.66.89,2.07,2.81.42.57.65.88,1,1.32a6.14,6.14,0,0,0,4.31,2.5l.14,0h.42a6.73,6.73,0,0,0,5.84-3.27,5.59,5.59,0,0,0-.29-6.53l-3.92-5.4L77,155l.72-.3,1-.42,1.22-.47.05,0h0l.69-.59c0-1.18-.42-2.82.17-3.3s2.11.23,3.26.47l.48-.38-41-53.06V95.32c16.58-4.12,39.73-6.83,59.7-6.95h0c21.28,0,43.92,2.63,59.73,6.9v28.1l-.86-.29.86.32h0l-.93-.35-.09,0-.15-.05c-.55-.2-1.11-.39-1.67-.56q-1.9-.62-3.83-1.1l-1.27-.3a1.28,1.28,0,0,0-.26-.06l-1.39-.3-.77-.14c-1.52-1-2.85-3.3-4.5-3.47s-3.35,1.68-5,2.41c-.54,0-1.07,0-1.61-.05-1.5,0-3,0-4.5.13q-.74,0-1.49.12t-1.5.15c-.5,0-1,.12-1.49.18-.66.09-1.32.19-2,.3s-1.16.2-1.74.32-1.42.3-2.12.47c-2.89-.17-6-1.06-8.53-.08s-4.12,3.51-6.06,5.53c-1,.51-1.95,1-2.9,1.6-.52.31-1,.63-1.55.95l-.23.15c-.38.24-.76.49-1.12.74l-.64.43-.43.3c-.79.55-1.56,1.12-2.33,1.71-1,.81-2.05,1.65-3,2.51l-.45-.61-3.28-4.52a5.44,5.44,0,0,0-4.43-2.33h-.1a7,7,0,0,0-6.3,3.45c-1.27,2.17-1,4.51.83,7L88.59,141l.56.76,1.52,2,.25.34.24.32-.32.43c-.26.35-.52.71-.76,1.06a.23.23,0,0,0,0,.07h0l-.74.52c-1.13-.31-2.62-1.11-3.23-.67s-.31,2.1-.37,3.28l-.77.58-.28.22,39.91,51.67.28-.22.77-.58c.06-1.17-.24-2.84.37-3.28s2.1.36,3.23.67l.74-.52h0a.22.22,0,0,1,0-.07c.25-.35.51-.71.76-1.06s.43-.59.66-.88l.07-.09.2.27q2.39,3.23,4.78,6.47a6.14,6.14,0,0,0,4.31,2.5l.14,0h.43a6.72,6.72,0,0,0,5.83-3.27,5.59,5.59,0,0,0-.29-6.53l-3.13-4.31-.74-1-1.11-1.53-.57-.78-.74-1-.18-.25q1.24-1.06,2.54-2.07c.77-.59,1.54-1.16,2.33-1.71l.43-.3.64-.43c.37-.26.75-.5,1.12-.74l.23-.15c.51-.32,1-.64,1.55-.95.95-.56,1.92-1.09,2.9-1.6,1.93-2,3.61-4.59,6.06-5.53a10.52,10.52,0,0,1,4.91-.31v42.12A39,39,0,0,1,153.91,239.66ZM63,149.71a4.23,4.23,0,0,1,.33-.49l.12-.14c.08-.1.16-.19.25-.28l.17-.14.25-.2.19-.12.26-.15.22-.09.27-.11.24-.06.29-.07.26,0,.3,0h.61a2.45,2.45,0,0,1,2,1.09l3.84,5.28,1.56,2.15.78,1.07,3.92,5.4a2.62,2.62,0,0,1,.19,3.15,3.72,3.72,0,0,1-3.29,1.87h-.17a3.15,3.15,0,0,1-2.28-1.3l-1.63-2.21-2.5-3.38-.93-1.26-4.62-6.24a5.3,5.3,0,0,1-.93-1.73A2.43,2.43,0,0,1,63,149.71ZM139.46,190l1.85,2.55,3.13,4.31a2.62,2.62,0,0,1,.19,3.15,3.72,3.72,0,0,1-3.29,1.87h-.17a3.15,3.15,0,0,1-2.28-1.3q-2.38-3.25-4.78-6.48l-.67-.9-1.35-1.82-2.88-3.89a8.12,8.12,0,0,1-.56-.85,3.69,3.69,0,0,1-.38-1,2.42,2.42,0,0,1,.3-1.86l0,0a4.24,4.24,0,0,1,.31-.46l.13-.15c.08-.09.16-.19.25-.27l.17-.14.25-.2.2-.12.26-.15.22-.09.28-.11.23-.06.29-.08.25,0,.3,0h.61a2.45,2.45,0,0,1,2,1.09l3.81,5.24Zm-35.34-41.36a5,5,0,0,1-.31.44l-.11.12-.23.26-.15.13-.23.2-.17.11-.24.15-.19.09-.25.11-.21.07-.26.08-.23,0-.27,0h-.61a3.15,3.15,0,0,1-2.28-1.3q-2.38-3.25-4.78-6.48l-.5-.68-1.52-2-2.88-3.89c-.82-1.11-1.45-2.29-.65-3.66a4,4,0,0,1,3.7-2h.07a2.45,2.45,0,0,1,2,1.09L97.77,137l1.18,1.62,1.85,2.55,3.13,4.31A2.62,2.62,0,0,1,104.11,148.61Z"/><path class="cls-1" d="M202,244.73c1.53-8.58,3-17.66,4.92-28.72a93.81,93.81,0,0,1-28.64,12.47c1.09.19,2.2.4,3.28.65a50,50,0,0,1,11.46,4l.1.07.27.18.13.12a2.57,2.57,0,0,1,.23.22l.11.14a2.55,2.55,0,0,1,.18.27l.08.15a2.56,2.56,0,0,1,.12.3l0,.08s0,.06,0,.09a2.56,2.56,0,0,1,.06.31c0,.07,0,.14,0,.21s0,.1,0,.14,0,.12,0,.18,0,.09,0,.14,0,.08,0,.12l-2.12,16.75A36.21,36.21,0,0,0,202,244.73Z"/><path class="cls-1" d="M4.92,244.73a36.21,36.21,0,0,0,9.76,7.81l-2.13-16.86s0,0,0,0,0-.17,0-.26,0-.17,0-.26,0-.13,0-.2a2.57,2.57,0,0,1,.06-.3v0c0-.05,0-.1.06-.15a2.58,2.58,0,0,1,.12-.28c0-.06.08-.12.11-.18a2.58,2.58,0,0,1,.16-.23l.15-.16.2-.2.18-.13.24-.16.05,0a50,50,0,0,1,11.46-4c1.08-.24,2.19-.46,3.28-.65A93.81,93.81,0,0,1,0,216C2,227.07,3.39,236.14,4.92,244.73Z"/><path class="cls-1" d="M189.27,235a2.56,2.56,0,0,1,.2-.68,53.51,53.51,0,0,0-8.47-2.65A95.4,95.4,0,0,0,170.32,230l6.44,23.1C183.87,248.4,188,242.37,189.27,235Z"/><path class="cls-1" d="M17.45,234.3a2.56,2.56,0,0,1,.2.64c1.22,7.31,5.43,13.37,12.54,18.12l6.42-23a95.4,95.4,0,0,0-10.68,1.63A53.51,53.51,0,0,0,17.45,234.3Z"/><path class="cls-1" d="M188,266l3.87-30.63c-4.53,27.11-43.94,31.37-65,32.64-7.61.46-15.41.68-23.21.68s-15.77-.23-23.45-.68c-21-1.24-60.5-5.54-65-32.64L19,266c4.26,25.92,41.14,32.09,62.23,32.86,7.78.29,15.57.45,23.34.45,7.08,0,14.14-.14,21.16-.45C146.7,297.91,183.65,292.18,188,266Z"/><path class="cls-3" d="M118,68.15a3.34,3.34,0,0,0-.95-2.51,1.37,1.37,0,0,1,.1-2,3.39,3.39,0,0,0,1.21-2.4c.1-1.91-1.52-3.34-3.59-3.64a86.52,86.52,0,0,0-22.61,0c-2.06.32-3.69,1.72-3.59,3.64a3.38,3.38,0,0,0,1.21,2.4,1.37,1.37,0,0,1,.1,2,3.34,3.34,0,0,0-.94,2.5,3.47,3.47,0,1,0,.36,6.93,3.53,3.53,0,0,0,3.68,3.31q3.5-.14,7-.18t7,0q3.5,0,7,.18a3.53,3.53,0,0,0,3.68-3.31,3.55,3.55,0,0,0,3.76-3.25A3.51,3.51,0,0,0,118,68.15Z"/><path class="cls-2" d="M115.42,70.52a170.73,170.73,0,0,0-24,0,.79.79,0,1,0,.11,1.57,169.21,169.21,0,0,1,23.78,0h.06a.79.79,0,0,0,.05-1.57Z"/><path class="cls-2" d="M94.18,62.2h.06a119.79,119.79,0,0,1,18.36,0,.79.79,0,1,0,.12-1.57,121.38,121.38,0,0,0-18.6,0,.79.79,0,0,0,.06,1.57Z"/><path id="_Caminho_" data-name="&lt;Caminho&gt;" class="cls-3" d="M93.2,19.93c-.08,2.94-.25,5.65,2.07,9.8,2.83,5.06,6.16,7.57,8.74,11.73,2.28,3.66,2.48,7.07.31,12.37,0-4.37-6.93-10.55-8.19-12.07a21.62,21.62,0,0,1-5.25-10.4A17.72,17.72,0,0,1,93.2,19.93Z"/><path id="_Caminho_2" data-name="&lt;Caminho&gt;" class="cls-4" d="M107.69,48.19c-.1.1,2-3.83-3.1-10.65-5.71-7.63-9.49-10.95-9.49-20C95.1,8.87,102.56,0,102.56,0c0,8.08,5,12.27,9.74,18.52a17.87,17.87,0,0,1,3.7,13.4,16.86,16.86,0,0,1-2.28,6.81c.36-4.68-.71-8-5.68-13.63-4-4.49-6.32-7.5-7-13-.34,4.43-.46,8.66,5.05,14.87a18.88,18.88,0,0,1,5.06,9.85A14,14,0,0,1,107.69,48.19Z"/><path class="cls-3" d="M72.26,71.46a2.85,2.85,0,0,0-1.13-2,1.17,1.17,0,0,1-.18-1.73,2.89,2.89,0,0,0,.7-2.18c-.17-1.63-1.72-2.61-3.51-2.6a73.92,73.92,0,0,0-19.09,3c-1.7.55-2.88,1.94-2.54,3.55a2.89,2.89,0,0,0,1.34,1.86,1.17,1.17,0,0,1,.35,1.7,2.86,2.86,0,0,0-.47,2.24A3,3,0,1,0,49,81.11a3,3,0,0,0,3.54,2.3q2.93-.58,5.88-1.08t5.9-.93q3-.42,5.93-.77a3,3,0,0,0,2.67-3.28,3,3,0,0,0,2.75-3.25A3,3,0,0,0,72.26,71.46Z"/><path class="cls-2" d="M69.95,74a138.57,138.57,0,0,0-19.24,3A.64.64,0,0,0,51,78.22a137.34,137.34,0,0,1,19.06-3h0A.64.64,0,0,0,69.95,74Z"/><path class="cls-2" d="M51.87,70h0a97.28,97.28,0,0,1,14.74-2.31.64.64,0,0,0-.1-1.27,98.51,98.51,0,0,0-14.91,2.34A.64.64,0,0,0,51.87,70Z"/><path id="_Caminho_3" data-name="&lt;Caminho&gt;" class="cls-3" d="M46.41,27.67c-.08,2.94-.25,5.65,2.07,9.8,2.83,5.06,6.16,7.57,8.74,11.73,2.28,3.66,2.48,7.07.31,12.37,0-4.37-6.93-10.55-8.19-12.07A21.62,21.62,0,0,1,44.1,39.1,17.72,17.72,0,0,1,46.41,27.67Z"/><path id="_Caminho_4" data-name="&lt;Caminho&gt;" class="cls-4" d="M60.9,55.94c-.1.1,2-3.83-3.1-10.65-5.71-7.63-9.49-10.95-9.49-20,0-8.69,7.46-17.57,7.46-17.57,0,8.08,5,12.27,9.74,18.52a17.87,17.87,0,0,1,3.7,13.4,16.86,16.86,0,0,1-2.28,6.81c.36-4.68-.71-8-5.68-13.63-4-4.49-6.32-7.5-7-13-.34,4.43-.46,8.66,5.05,14.87a18.88,18.88,0,0,1,5.06,9.85A14,14,0,0,1,60.9,55.94Z"/><path class="cls-3" d="M134.59,71.46a2.85,2.85,0,0,1,1.13-2,1.17,1.17,0,0,0,.18-1.73,2.89,2.89,0,0,1-.7-2.18c.17-1.63,1.72-2.61,3.51-2.6a73.92,73.92,0,0,1,19.09,3c1.7.55,2.88,1.94,2.54,3.55A2.89,2.89,0,0,1,159,71.37a1.17,1.17,0,0,0-.35,1.7,2.86,2.86,0,0,1,.47,2.24,3,3,0,1,1-1.22,5.8,3,3,0,0,1-3.54,2.3q-2.93-.58-5.88-1.08t-5.9-.93q-3-.42-5.93-.77A3,3,0,0,1,134,77.36a3,3,0,0,1-2.75-3.25A3,3,0,0,1,134.59,71.46Z"/><path class="cls-2" d="M137.4,74a138.57,138.57,0,0,1,19.24,3,.64.64,0,1,1-.29,1.24,137.34,137.34,0,0,0-19.06-3h0A.64.64,0,0,1,137.4,74Z"/><path class="cls-2" d="M155.47,70h0a97.28,97.28,0,0,0-14.74-2.31.64.64,0,1,1,.1-1.27,98.51,98.51,0,0,1,14.91,2.34.64.64,0,0,1-.24,1.25Z"/><path id="_Caminho_5" data-name="&lt;Caminho&gt;" class="cls-3" d="M140,27.67c-.08,2.94-.25,5.65,2.07,9.8,2.83,5.06,6.16,7.57,8.74,11.73,2.28,3.66,2.48,7.07.31,12.37,0-4.37-6.93-10.55-8.19-12.07a21.62,21.62,0,0,1-5.25-10.4A17.72,17.72,0,0,1,140,27.67Z"/><path id="_Caminho_6" data-name="&lt;Caminho&gt;" class="cls-4" d="M154.48,55.94c-.1.1,2-3.83-3.1-10.65-5.71-7.63-9.49-10.95-9.49-20,0-8.69,7.46-17.57,7.46-17.57,0,8.08,5,12.27,9.74,18.52a17.87,17.87,0,0,1,3.7,13.4,16.86,16.86,0,0,1-2.28,6.81c.36-4.68-.71-8-5.68-13.63-4-4.49-6.32-7.5-7-13-.34,4.43-.46,8.66,5.05,14.87a18.88,18.88,0,0,1,5.06,9.85A14,14,0,0,1,154.48,55.94Z"/><path class="cls-2" d="M26.14,259.07c0-.14.09-.17.24-.07a68.26,68.26,0,0,0,7.17,4.22.43.43,0,0,1,.23.37c0,1,0,1.48,0,2.53,0,.16-.09.22-.23.15-1.58-.85-2.38-1.31-4-2.32-.1-.06-.14,0-.14.07,0,1.64.07,2.5.14,4.23a.31.31,0,0,0,.15.26c1.37.92,2.05,1.34,3.4,2.13a.51.51,0,0,1,.24.42c0,1.14,0,1.72.09,2.86,0,.17-.08.23-.21.15-1.33-.82-2-1.26-3.35-2.21q-.14-.1-.13.07c.18,2.91.29,4.37.63,6.84,0,.14-.05.17-.19.06-1-.78-1.46-1.19-2.43-2.07a.82.82,0,0,1-.26-.43A124.38,124.38,0,0,1,26.14,259.07Z"/><path class="cls-2" d="M37.12,265.19c0-.15.09-.21.23-.14,1,.45,1.52.67,2.52,1.07a.36.36,0,0,1,.22.34c-.09,5.44-.13,9.65.1,15.69a.24.24,0,0,0,.14.23c1.49.71,2.24,1,3.72,1.61a.39.39,0,0,1,.22.36c0,1.08,0,1.6.09,2.56,0,.15-.07.21-.2.16a43,43,0,0,1-6.4-3.07.48.48,0,0,1-.23-.36C37,277.21,37.06,271.75,37.12,265.19Z"/><path class="cls-2" d="M46.72,283.05c-.07-5.73,0-9.47.08-14.3,0-.15.09-.22.22-.18,1,.28,1.45.41,2.42.65a.29.29,0,0,1,.21.3c-.1,5-.15,9-.09,14.87,0,1.06.43,1.81,1.14,2s1.14-.34,1.13-1.41c0-5.92,0-10,.09-14.92,0-.15.09-.23.22-.2,1,.21,1.44.31,2.4.5a.27.27,0,0,1,.21.28c-.07,4.75-.1,8.67-.08,14.5,0,3.84-1.46,5-3.91,4.31S46.77,286.83,46.72,283.05Z"/><path class="cls-2" d="M58.34,271.27c0-.15.09-.22.22-.2,2.58.43,3.85.61,6.53,1a.26.26,0,0,1,.23.26v2.52c0,.17-.09.27-.23.25l-3.77-.52c-.09,0-.13,0-.13.15,0,1.69,0,2.61,0,4.48,0,.13,0,.2.13.21l3.27.45c.13,0,.22.16.22.35v3.13c0,.19-.09.31-.22.29l-3.27-.46q-.13,0-.13.17c0,1.95,0,2.92,0,4.67,0,.11,0,.18.13.19,1.5.22,2.25.33,3.79.53a.28.28,0,0,1,.23.31v2.52a.19.19,0,0,1-.23.2c-2.68-.34-4-.51-6.56-.93a.27.27,0,0,1-.22-.27C58.24,284.23,58.27,277.65,58.34,271.27Z"/><path class="cls-2" d="M68.65,272.77a.19.19,0,0,1,.23-.2l2.81.32a.32.32,0,0,1,.31.26c1,4.1,1.53,7.48,2.54,12.88h.11V273.41a.19.19,0,0,1,.22-.21l2.14.18a.24.24,0,0,1,.22.25v19.13A.2.2,0,0,1,77,293l-2.7-.22a.31.31,0,0,1-.32-.26c-1.06-4.08-1.59-7.47-2.65-12.9h-.11v12.65a.19.19,0,0,1-.22.21l-2.14-.22a.24.24,0,0,1-.23-.26Z"/><path class="cls-2" d="M81,273.89a.2.2,0,0,1,.22-.22c1.55.09,2.32.13,3.86.2,2.11.1,3.34.87,3.91,3,.27,1.07.4,2.38.4,6.93s-.13,5.86-.4,6.91c-.56,2.12-1.8,2.82-3.91,2.72-1.54-.07-2.32-.11-3.86-.21A.23.23,0,0,1,81,293Zm3.08,16.51.72,0c.74,0,1.13-.29,1.37-1.14.17-.6.25-1.43.25-5.56s-.08-5-.25-5.58c-.23-.87-.63-1.23-1.37-1.26l-.72,0c-.09,0-.13,0-.13.16v13.22C83.94,290.34,84,290.39,84.07,290.4Z"/><path class="cls-2" d="M93,291.06c-.25-.86-.31-1.55-.31-7.13s.07-6.26.31-7.11A3.54,3.54,0,0,1,96.91,274a3.64,3.64,0,0,1,3.91,2.93c.25.86.31,1.55.31,7.12s-.07,6.27-.31,7.12A3.55,3.55,0,0,1,96.91,294,3.67,3.67,0,0,1,93,291.06Zm5-.93c.11-.46.16-.85.16-6.1s0-5.65-.16-6.11a1.12,1.12,0,0,0-1.08-.94,1.09,1.09,0,0,0-1.08.92c-.11.46-.16.85-.16,6.1s0,5.65.16,6.11a1.13,1.13,0,0,0,1.08.95A1.09,1.09,0,0,0,98,290.13Z"/><path class="cls-2" d="M110.51,284c0-5.6.09-6.38.3-7.18a3.57,3.57,0,0,1,3.81-2.92c2.46-.06,3.9,1.05,4,4.4,0,.18,0,.33-.2.36l-2.37.62c-.14,0-.24-.06-.25-.26,0-1.59-.42-2.15-1.17-2.14a1,1,0,0,0-1,.9c-.1.42-.14.66-.14,6.16s0,5.74.13,6.16a.94.94,0,0,0,1,.85c.74,0,1.15-.6,1.17-2.2,0-.21.11-.3.25-.28l2.36.46c.16,0,.2.17.2.35-.14,3.36-1.58,4.58-4,4.65a3.37,3.37,0,0,1-3.79-2.76C110.59,290.37,110.5,289.6,110.51,284Z"/><path class="cls-2" d="M127.6,293.13a.2.2,0,0,1-.25-.17c-.68-2.35-1-4-1.71-7.17l-.85.05c-.09,0-.14.07-.14.2,0,3.13,0,4.7,0,7a.23.23,0,0,1-.23.24l-2.49.13a.2.2,0,0,1-.22-.22c0-6.17,0-13,0-19.15a.23.23,0,0,1,.23-.24c1.46-.07,2.19-.11,3.65-.2,2.72-.17,4.47.74,4.46,5.35,0,2.62-.66,4.52-1.72,5.61.83,3.59,1.24,5.46,2.07,8.09,0,.11,0,.23-.11.24Zm-.5-13.92c0-2.17-.49-2.69-1.63-2.62l-.65,0c-.09,0-.14.06-.14.18,0,2,0,3.07,0,5.27,0,.13,0,.19.13.18l.65,0C126.6,282.15,127.09,281.4,127.1,279.21Z"/><path class="cls-2" d="M133.63,273.24a.24.24,0,0,1,.22-.25c2.66-.26,4-.41,6.64-.77a.18.18,0,0,1,.22.2c0,.92,0,1.43,0,2.52a.28.28,0,0,1-.22.31c-1.52.2-2.28.29-3.8.46-.09,0-.13.07-.13.18,0,1.67,0,2.6,0,4.47,0,.13,0,.19.13.18,1.32-.14,2-.22,3.29-.39.13,0,.22.1.22.29,0,1.25,0,1.88,0,3.13,0,.19-.09.33-.22.35-1.32.16-2,.24-3.29.38q-.13,0-.13.2c0,1.95,0,2.92,0,4.66,0,.11,0,.16.13.16,1.53-.16,2.29-.25,3.82-.43.13,0,.22.08.22.25,0,1.09,0,1.6,0,2.52a.25.25,0,0,1-.23.26c-2.67.32-4,.46-6.67.71a.19.19,0,0,1-.22-.21C133.6,286.25,133.61,279.42,133.63,273.24Z"/><path class="cls-2" d="M147.71,291.09c-2.78.48-4.09-.74-4.12-4.22,0-.18,0-.31.18-.36l2.44-.9c.16-.06.25,0,.25.2,0,1.9.43,2.49,1.32,2.33s1.25-.72,1.27-2.59-.25-2.43-1.42-2.85l-.95-.34c-2.21-.81-3-2.46-3-5.73,0-3.69,1.33-5.26,4.18-5.76s4.16.63,4.25,3.77a.37.37,0,0,1-.22.37l-2.42.93c-.14.06-.26,0-.26-.2,0-1.45-.42-2.08-1.26-1.93s-1.22.79-1.22,2.17.25,2,1.48,2.46l1,.33c2.17.74,3,2.19,2.93,5.67C152.05,288.64,150.76,290.57,147.71,291.09Z"/><path class="cls-2" d="M155.45,279.41c.14-5.48.23-6.34.46-7.21a5.52,5.52,0,0,1,4.16-4.1c2.65-.76,4.16.14,4.17,3.4a.46.46,0,0,1-.23.42c-1,.56-1.52.82-2.54,1.35-.14.07-.26,0-.25-.19,0-1.56-.39-2-1.19-1.81a1.52,1.52,0,0,0-1.11,1.19c-.12.45-.14.76-.32,6.09s-.2,5.6-.12,6c.11.54.44.73,1,.54.76-.26,1.22-1,1.34-2.58a.36.36,0,0,1,.27-.36c1-.13,1.45-.21,2.41-.4.16,0,.2.09.18.26-.38,3.34-2,5.38-4.48,6.23-2,.7-3.23.09-3.69-1.81C155.34,285.68,155.31,284.9,155.45,279.41Z"/><path class="cls-2" d="M167.69,266.06a.4.4,0,0,1,.25-.35c1.06-.41,1.59-.63,2.63-1.08.14-.06.23,0,.22.16-.31,6.95-.51,11.63-1.39,18.39a.55.55,0,0,1-.26.39c-1,.57-1.5.84-2.5,1.35-.14.07-.21,0-.2-.14C167.23,278,167.41,273,167.69,266.06Z"/><path class="cls-2" d="M175.34,279.42c-.13.1-.21.07-.18-.08a128.86,128.86,0,0,0,1.4-14.48c0-.11,0-.13-.13-.08-1,.56-1.45.82-2.43,1.33-.14.07-.22,0-.21-.15.06-1.06.08-1.59.13-2.61a.45.45,0,0,1,.24-.38,48.77,48.77,0,0,0,7.84-4.7c.12-.09.2-.05.2.1,0,1-.06,1.45-.11,2.42a.57.57,0,0,1-.22.41c-.9.68-1.36,1-2.29,1.62a.3.3,0,0,0-.14.24A111.13,111.13,0,0,1,178,277a.8.8,0,0,1-.26.43C176.81,278.26,176.32,278.66,175.34,279.42Z"/></g></g></svg>