<svg xmlns="http://www.w3.org/2000/svg" xmlns:xlink="http://www.w3.org/1999/xlink" viewBox="0 0 470.35 139.6"><defs><style>.cls-1,.cls-3,.cls-5{stroke:#fff;stroke-miterlimit:10;}.cls-1{stroke-width:3px;fill:url(#Gradiente_sem_nome_21);}.cls-2{opacity:0.23;}.cls-3{fill:none;}.cls-4,.cls-5{fill:#fff;}</style><radialGradient id="Gradiente_sem_nome_21" cx="60.91" cy="69.8" r="63.88" gradientUnits="userSpaceOnUse"><stop offset="0" stop-color="#056fd8"/><stop offset="0.04" stop-color="#056cd3"/><stop offset="0.27" stop-color="#035bb8"/><stop offset="0.5" stop-color="#014fa5"/><stop offset="0.74" stop-color="#00479a"/><stop offset="1" stop-color="#004596"/></radialGradient></defs><title>logo-nippec_4</title><g id="Camada_2" data-name="Camada 2"><g id="Camada_2-2" data-name="Camada 2"><polygon class="cls-1" points="120.31 103.06 61.8 137.87 2.41 104.61 1.51 36.54 60.01 1.73 119.41 34.99 120.31 103.06"/><g class="cls-2"><line class="cls-3" x1="59.93" y1="1.64" x2="61.88" y2="137.96"/><line class="cls-3" x1="1.75" y1="36.45" x2="120.55" y2="103.15"/><line class="cls-3" x1="119.58" y1="34.99" x2="2.24" y2="104.61"/></g><path class="cls-4" d="M36.74,42.54h11L73,75.81V42.54H84.76v54H74.65L48.48,62.22V96.58H36.74Z"/><path class="cls-5" d="M149.77,36.28H161l25.87,34v-34h12V91.49H188.49L161.76,56.4v35.1h-12Z"/><path class="cls-5" d="M206.16,36.28h12.15V91.49H206.16Z"/><path class="cls-5" d="M225.64,36.28H248.2a26.56,26.56,0,0,1,8.87,1.38,18.85,18.85,0,0,1,6.63,3.9,17.08,17.08,0,0,1,4.18,6,20.05,20.05,0,0,1,1.46,7.77v.16A19.36,19.36,0,0,1,267.6,64,17.22,17.22,0,0,1,262.83,70a20.68,20.68,0,0,1-7.1,3.67A30.08,30.08,0,0,1,247,74.93h-9.23V91.49H225.64Zm21.77,27.84q4.57,0,7.1-2.41a7.9,7.9,0,0,0,2.52-6v-.16a7.53,7.53,0,0,0-2.64-6.23,11.19,11.19,0,0,0-7.22-2.13h-9.39V64.13Z"/><path class="cls-5" d="M271.86,36.28h22.56a26.56,26.56,0,0,1,8.87,1.38,18.85,18.85,0,0,1,6.63,3.9,17.08,17.08,0,0,1,4.18,6,20.05,20.05,0,0,1,1.46,7.77v.16A19.36,19.36,0,0,1,313.82,64,17.22,17.22,0,0,1,309,70a20.68,20.68,0,0,1-7.1,3.67,30.08,30.08,0,0,1-8.72,1.22H284V91.49H271.86Zm21.77,27.84q4.57,0,7.1-2.41a7.9,7.9,0,0,0,2.52-6v-.16a7.53,7.53,0,0,0-2.64-6.23,11.19,11.19,0,0,0-7.22-2.13H284V64.13Z"/><path class="cls-5" d="M318.08,36.28h41.57V47.09H330.07v11.2h26V69.1h-26V80.69h30V91.49h-42Z"/><path class="cls-5" d="M390.33,92.44A28.6,28.6,0,0,1,379,90.23a27.22,27.22,0,0,1-14.91-15.06A29.09,29.09,0,0,1,362,64v-.16a28.79,28.79,0,0,1,2.13-11.08,28.51,28.51,0,0,1,5.92-9.07,27.42,27.42,0,0,1,9.07-6.15,29.52,29.52,0,0,1,11.67-2.25,36.54,36.54,0,0,1,7.06.63,29.49,29.49,0,0,1,5.8,1.73,25.2,25.2,0,0,1,4.81,2.68,32.68,32.68,0,0,1,4.1,3.47l-7.73,8.91a29.27,29.27,0,0,0-6.59-4.57,16.78,16.78,0,0,0-7.53-1.66,15.39,15.39,0,0,0-6.43,1.34,15.24,15.24,0,0,0-5.09,3.71,17.28,17.28,0,0,0-3.31,5.48,18.62,18.62,0,0,0-1.18,6.66v.16a18.94,18.94,0,0,0,1.18,6.7,17.55,17.55,0,0,0,3.27,5.52,15.18,15.18,0,0,0,11.55,5.13,16.91,16.91,0,0,0,8-1.73,31.08,31.08,0,0,0,6.51-4.73L413,82.58a40,40,0,0,1-4.42,4.1,26.25,26.25,0,0,1-5,3.12,25.91,25.91,0,0,1-6,2A35.93,35.93,0,0,1,390.33,92.44Z"/><path class="cls-4" d="M158,99.1h1.31v12h-1.08l-7.72-9.8v9.8H149.2v-12h1.26l7.53,9.58Z"/><path class="cls-4" d="M168.72,102.23H170v8.83h-1.3v-1.54a3.36,3.36,0,0,1-3,1.72,3.22,3.22,0,0,1-3.38-3.53v-5.48h1.31v5.16a2.35,2.35,0,0,0,2.44,2.66,2.61,2.61,0,0,0,2.65-2.77ZM165.53,101l1.62-2.48,1.37.63L166.59,101Z"/><path class="cls-4" d="M177,111.26a4.61,4.61,0,1,1,3.53-7.65l-.87.92a3.56,3.56,0,0,0-2.68-1.33,3.26,3.26,0,0,0-3.16,3.43,3.3,3.3,0,0,0,3.24,3.45,3.64,3.64,0,0,0,2.7-1.31l.84.79A4.55,4.55,0,0,1,177,111.26Z"/><path class="cls-4" d="M182.84,111.05V98.59h1.31v12.46Z"/><path class="cls-4" d="M191.1,110.11a3.65,3.65,0,0,0,2.78-1.25l.82.73a4.56,4.56,0,0,1-3.64,1.66,4.62,4.62,0,0,1-.17-9.22c2.61,0,4.11,2.08,4.11,4.68a3.56,3.56,0,0,1,0,.41h-7A3.09,3.09,0,0,0,191.1,110.11Zm2.58-4c-.14-1.6-1.06-3-2.82-3a3,3,0,0,0-2.87,3Z"/><path class="cls-4" d="M201.34,111.26a4.53,4.53,0,0,1-4.58-4.59,4.6,4.6,0,1,1,4.58,4.59Zm0-8.06a3.24,3.24,0,0,0-3.23,3.43,3.32,3.32,0,0,0,3.26,3.45,3.25,3.25,0,0,0,3.24-3.41A3.33,3.33,0,0,0,201.34,103.2Z"/><path class="cls-4" d="M215.15,99.1v12H213.8v-12Z"/><path class="cls-4" d="M219.74,111.05h-1.31v-8.83h1.31v1.54a3.34,3.34,0,0,1,3-1.72,3.22,3.22,0,0,1,3.38,3.53v5.48h-1.31V105.9a2.35,2.35,0,0,0-2.44-2.66,2.6,2.6,0,0,0-2.65,2.77Z"/><path class="cls-4" d="M230.71,108.54A1.31,1.31,0,0,0,232.2,110a2.77,2.77,0,0,0,1.28-.31v1.13a3.31,3.31,0,0,1-1.59.38,2.25,2.25,0,0,1-2.49-2.49v-5.33h-1.23v-1.16h1.23V99.56h1.31v2.66h2.8v1.16h-2.8Z"/><path class="cls-4" d="M239.47,110.11a3.65,3.65,0,0,0,2.78-1.25l.82.73a4.56,4.56,0,0,1-3.64,1.66,4.62,4.62,0,0,1-.17-9.22c2.61,0,4.11,2.08,4.11,4.68a3.56,3.56,0,0,1,0,.41h-7A3.09,3.09,0,0,0,239.47,110.11Zm2.58-4c-.14-1.6-1.06-3-2.82-3a3,3,0,0,0-2.87,3Z"/><path class="cls-4" d="M249.59,113.82a6.92,6.92,0,0,1-4-1.23l.6-1a5.64,5.64,0,0,0,3.4,1.13,2.9,2.9,0,0,0,3.21-3.14v-1a4.18,4.18,0,0,1-3.47,1.86,4.17,4.17,0,0,1,0-8.33,4.14,4.14,0,0,1,3.45,1.78v-1.59h1.31v7.29C254.08,112.37,252.3,113.82,249.59,113.82Zm0-10.62a2.91,2.91,0,0,0-3.06,3,3,3,0,0,0,3.06,3,3,3,0,1,0,0-6Z"/><path class="cls-4" d="M258.33,111.05H257v-8.83h1.31v2.3a3.78,3.78,0,0,1,3.6-2.46v1.42h-.1c-1.93,0-3.5,1.38-3.5,4Z"/><path class="cls-4" d="M264,103.92l-.39-1.08a7.29,7.29,0,0,1,3.21-.73c2.41,0,3.76,1.23,3.76,3.55v5.4h-1.26v-1.33a3.87,3.87,0,0,1-3.19,1.52c-1.64,0-3.3-.92-3.3-2.77s1.54-2.87,3.77-2.87a9.38,9.38,0,0,1,2.71.38v-.31c0-1.59-1-2.41-2.63-2.41A6.15,6.15,0,0,0,264,103.92Zm.15,4.51c0,1.13,1,1.78,2.22,1.78,1.62,0,3-1,3-2.39V107a9.2,9.2,0,0,0-2.6-.38C265.09,106.58,264.16,107.3,264.16,108.42Z"/><path class="cls-4" d="M280.46,111.05v-1.78a4,4,0,0,1-3.38,2,4.62,4.62,0,0,1,0-9.2,4,4,0,0,1,3.38,1.88V98.59h1.31v12.46Zm-3.14-7.84a3.12,3.12,0,0,0-3.11,3.41,3.18,3.18,0,0,0,3.11,3.43,3.43,3.43,0,0,0,0-6.85Z"/><path class="cls-4" d="M288.74,111.26a4.53,4.53,0,0,1-4.58-4.59,4.6,4.6,0,1,1,4.58,4.59Zm0-8.06a3.24,3.24,0,0,0-3.23,3.43,3.32,3.32,0,0,0,3.26,3.45,3.25,3.25,0,0,0,3.24-3.41A3.33,3.33,0,0,0,288.74,103.2Z"/><path class="cls-4" d="M307.94,111.05v-1.78a4,4,0,0,1-3.38,2,4.62,4.62,0,0,1,0-9.2,4,4,0,0,1,3.38,1.88V98.59h1.31v12.46Zm-3.14-7.84a3.12,3.12,0,0,0-3.11,3.41,3.18,3.18,0,0,0,3.11,3.43,3.43,3.43,0,0,0,0-6.85Z"/><path class="cls-4" d="M316.08,110.11a3.65,3.65,0,0,0,2.78-1.25l.82.73a4.56,4.56,0,0,1-3.64,1.66,4.62,4.62,0,0,1-.17-9.22c2.61,0,4.11,2.08,4.11,4.68a3.56,3.56,0,0,1,0,.41h-7A3.09,3.09,0,0,0,316.08,110.11Zm2.58-4c-.14-1.6-1.06-3-2.82-3a3,3,0,0,0-2.87,3Z"/><path class="cls-4" d="M331.89,106.84H329v4.22h-1.35v-12h4.47c2.7,0,4.47,1.43,4.47,3.81C336.58,105.5,334.43,106.84,331.89,106.84Zm.12-6.49h-3v5.26h3c2,0,3.28-1.06,3.28-2.65S333.94,100.35,332,100.35Z"/><path class="cls-4" d="M342.84,111.26a4.53,4.53,0,0,1-4.58-4.59,4.6,4.6,0,1,1,4.58,4.59Zm0-8.06a3.24,3.24,0,0,0-3.23,3.43,3.32,3.32,0,0,0,3.26,3.45,3.25,3.25,0,0,0,3.24-3.41A3.33,3.33,0,0,0,342.84,103.2Zm-.5-2.3L344,98.42l1.37.63-1.93,1.84Z"/><path class="cls-4" d="M352.76,111.22a6.07,6.07,0,0,1-3.65-1.3l.67-.94a5.16,5.16,0,0,0,3.06,1.13c1.06,0,1.83-.55,1.83-1.4v0c0-.89-1-1.23-2.2-1.55-1.38-.39-2.92-.87-2.92-2.49v0c0-1.52,1.26-2.53,3-2.53a6,6,0,0,1,3.18,1l-.6,1a5,5,0,0,0-2.61-.85c-1,0-1.71.55-1.71,1.28v0c0,.84,1.09,1.16,2.27,1.52,1.37.41,2.83.94,2.83,2.53v0C355.9,110.25,354.52,111.22,352.76,111.22Z"/><path class="cls-4" d="M358,106.61v-1.38h4.75v1.38Z"/><path class="cls-4" d="M371.07,111.26a5.87,5.87,0,0,1-6.08-6.16,6,6,0,0,1,6-6.2,6.3,6.3,0,0,1,4.46,1.59l-.87,1a5.08,5.08,0,0,0-3.64-1.37,4.67,4.67,0,0,0-4.54,4.92c0,2.87,1.83,5,4.73,5a5.63,5.63,0,0,0,3.45-1.19v-3h-3.64v-1.21h4.93v4.76A7.24,7.24,0,0,1,371.07,111.26Z"/><path class="cls-4" d="M380,111.05h-1.31v-8.83H380v2.3a3.78,3.78,0,0,1,3.6-2.46v1.42h-.1c-1.93,0-3.5,1.38-3.5,4Z"/><path class="cls-4" d="M385.68,103.92l-.39-1.08a7.29,7.29,0,0,1,3.21-.73c2.41,0,3.76,1.23,3.76,3.55v5.4H391v-1.33a3.87,3.87,0,0,1-3.19,1.52c-1.64,0-3.3-.92-3.3-2.77s1.54-2.87,3.77-2.87A9.38,9.38,0,0,1,391,106v-.31c0-1.59-1-2.41-2.63-2.41A6.15,6.15,0,0,0,385.68,103.92Zm.15,4.51c0,1.13,1,1.78,2.22,1.78,1.62,0,3-1,3-2.39V107a9.2,9.2,0,0,0-2.59-.38C386.76,106.58,385.83,107.3,385.83,108.42Z"/><path class="cls-4" d="M402.14,111.05v-1.78a4,4,0,0,1-3.38,2,4.62,4.62,0,0,1,0-9.2,4,4,0,0,1,3.38,1.88V98.59h1.31v12.46ZM399,103.22a3.12,3.12,0,0,0-3.11,3.41,3.18,3.18,0,0,0,3.11,3.43,3.43,3.43,0,0,0,0-6.85Z"/><path class="cls-4" d="M412.65,102.23h1.3v8.83h-1.3v-1.54a3.36,3.36,0,0,1-3,1.72,3.22,3.22,0,0,1-3.38-3.53v-5.48h1.31v5.16A2.35,2.35,0,0,0,410,110a2.61,2.61,0,0,0,2.65-2.77Z"/><path class="cls-4" d="M417.41,103.92l-.39-1.08a7.29,7.29,0,0,1,3.21-.73c2.41,0,3.76,1.23,3.76,3.55v5.4h-1.26v-1.33a3.87,3.87,0,0,1-3.19,1.52c-1.64,0-3.3-.92-3.3-2.77s1.54-2.87,3.77-2.87a9.38,9.38,0,0,1,2.71.38v-.31c0-1.59-1-2.41-2.63-2.41A6.15,6.15,0,0,0,417.41,103.92Zm.15,4.51c0,1.13,1,1.78,2.22,1.78,1.62,0,3-1,3-2.39V107a9.2,9.2,0,0,0-2.6-.38C418.48,106.58,417.56,107.3,417.56,108.42Z"/><path class="cls-4" d="M426.23,106.67a4.6,4.6,0,0,1,8.06-3.06l-.87.92a3.56,3.56,0,0,0-2.68-1.33,3.26,3.26,0,0,0-3.16,3.43,3.3,3.3,0,0,0,3.24,3.45,3.64,3.64,0,0,0,2.7-1.31l.84.79a4.62,4.62,0,0,1-3.35,1.71l-1.13,2.44-1.28-.58,1.33-1.95A4.52,4.52,0,0,1,426.23,106.67Z"/><path class="cls-4" d="M437,103.92l-.39-1.08a7.29,7.29,0,0,1,3.21-.73c2.41,0,3.76,1.23,3.76,3.55v5.4h-1.26v-1.33a3.87,3.87,0,0,1-3.19,1.52c-1.64,0-3.3-.92-3.3-2.77s1.54-2.87,3.77-2.87a9.38,9.38,0,0,1,2.71.38v-.31c0-1.59-1-2.41-2.63-2.41A6.15,6.15,0,0,0,437,103.92Zm.15,4.51c0,1.13,1,1.78,2.22,1.78,1.62,0,3-1,3-2.39V107a9.2,9.2,0,0,0-2.59-.38C438.11,106.58,437.19,107.3,437.19,108.42Zm4-7.53c-.77,0-1.71-.68-2.29-.68s-.63.22-.89.84l-.8-.22c.34-1.28.8-1.79,1.62-1.79s1.71.68,2.29.68.63-.22.89-.84l.8.22C442.5,100.38,442,100.89,441.22,100.89Z"/><path class="cls-4" d="M450.44,111.26a4.53,4.53,0,0,1-4.58-4.59,4.6,4.6,0,1,1,4.58,4.59Zm0-8.06a3.24,3.24,0,0,0-3.23,3.43,3.32,3.32,0,0,0,3.26,3.45,3.25,3.25,0,0,0,3.24-3.41A3.33,3.33,0,0,0,450.44,103.2Z"/><path class="cls-4" d="M466.44,110.11a3.65,3.65,0,0,0,2.78-1.25l.82.73a4.56,4.56,0,0,1-3.64,1.66,4.62,4.62,0,0,1-.17-9.22c2.61,0,4.11,2.08,4.11,4.68a3.56,3.56,0,0,1,0,.41h-7A3.09,3.09,0,0,0,466.44,110.11Zm2.58-4c-.14-1.6-1.06-3-2.82-3a3,3,0,0,0-2.87,3Z"/><path class="cls-4" d="M153.45,127.32h-2.9v4.22H149.2v-12h4.47c2.7,0,4.47,1.43,4.47,3.81C158.14,126,156,127.32,153.45,127.32Zm.12-6.49h-3v5.26h3c2,0,3.28-1.06,3.28-2.65S155.5,120.83,153.57,120.83Z"/><path class="cls-4" d="M164.18,130.59a3.65,3.65,0,0,0,2.78-1.25l.82.73a4.56,4.56,0,0,1-3.64,1.66,4.62,4.62,0,0,1-.17-9.22c2.61,0,4.11,2.08,4.11,4.68a3.56,3.56,0,0,1,0,.41h-7A3.09,3.09,0,0,0,164.18,130.59Zm2.58-4c-.14-1.6-1.06-3-2.82-3a3,3,0,0,0-2.87,3Z"/><path class="cls-4" d="M173.32,131.7a6.07,6.07,0,0,1-3.65-1.3l.67-.94a5.16,5.16,0,0,0,3.06,1.13c1.06,0,1.83-.55,1.83-1.4v0c0-.89-1-1.23-2.2-1.55-1.38-.39-2.92-.87-2.92-2.49v0c0-1.52,1.26-2.53,3-2.53a6,6,0,0,1,3.18,1l-.6,1a5,5,0,0,0-2.61-.85c-1,0-1.71.55-1.71,1.28v0c0,.84,1.09,1.16,2.27,1.52,1.37.41,2.83.94,2.83,2.53v0C176.46,130.73,175.07,131.7,173.32,131.7Z"/><path class="cls-4" d="M186,134.26v-4.51a4,4,0,0,1-3.38,2,4.62,4.62,0,0,1,0-9.2A4,4,0,0,1,186,124.4v-1.69h1.31v11.56Zm-3.14-10.57a3.12,3.12,0,0,0-3.11,3.41,3.18,3.18,0,0,0,3.11,3.43,3.43,3.43,0,0,0,0-6.85Z"/><path class="cls-4" d="M196.49,122.71h1.3v8.83h-1.3V130a3.36,3.36,0,0,1-3,1.72,3.22,3.22,0,0,1-3.38-3.53v-5.48h1.31v5.16a2.35,2.35,0,0,0,2.44,2.66,2.61,2.61,0,0,0,2.65-2.77Z"/><path class="cls-4" d="M200.78,120.78v-1.45h1.5v1.45Zm.09,10.76v-8.83h1.31v8.83Z"/><path class="cls-4" d="M208.15,131.7a6.07,6.07,0,0,1-3.65-1.3l.67-.94a5.16,5.16,0,0,0,3.06,1.13c1.06,0,1.83-.55,1.83-1.4v0c0-.89-1-1.23-2.2-1.55-1.38-.39-2.92-.87-2.92-2.49v0c0-1.52,1.26-2.53,3-2.53a6,6,0,0,1,3.18,1l-.6,1a5,5,0,0,0-2.61-.85c-1,0-1.71.55-1.71,1.28v0c0,.84,1.09,1.16,2.27,1.52,1.37.41,2.83.94,2.83,2.53v0C211.29,130.73,209.91,131.7,208.15,131.7Z"/><path class="cls-4" d="M214.24,124.4l-.39-1.08a7.29,7.29,0,0,1,3.21-.73c2.41,0,3.76,1.23,3.76,3.55v5.4h-1.26V130.2a3.87,3.87,0,0,1-3.19,1.52c-1.64,0-3.3-.92-3.3-2.77s1.54-2.87,3.77-2.87a9.38,9.38,0,0,1,2.71.38v-.31c0-1.59-1-2.41-2.63-2.41A6.15,6.15,0,0,0,214.24,124.4Zm.15,4.51c0,1.13,1,1.78,2.22,1.78,1.62,0,3-1,3-2.39v-.85a9.2,9.2,0,0,0-2.6-.38C215.32,127.06,214.4,127.78,214.4,128.9Z"/><path class="cls-4" d="M232.62,130.59a3.65,3.65,0,0,0,2.78-1.25l.82.73a4.56,4.56,0,0,1-3.64,1.66,4.62,4.62,0,0,1-.17-9.22c2.61,0,4.11,2.08,4.11,4.68a3.56,3.56,0,0,1,0,.41h-7A3.09,3.09,0,0,0,232.62,130.59Zm2.58-4c-.14-1.6-1.06-3-2.82-3a3,3,0,0,0-2.87,3Z"/><path class="cls-4" d="M248.94,122.52c2,0,3.28,1.37,3.28,3.55v5.46h-1.31v-5.16c0-1.71-.85-2.66-2.29-2.66a2.47,2.47,0,0,0-2.44,2.73v5.09h-1.3v-5.19c0-1.66-.87-2.63-2.27-2.63a2.56,2.56,0,0,0-2.46,2.78v5h-1.31v-8.83h1.31v1.49a3.22,3.22,0,0,1,2.85-1.67,3,3,0,0,1,2.83,1.76A3.52,3.52,0,0,1,248.94,122.52Z"/><path class="cls-4" d="M269,120.81h-7.29v4.08h6.52v1.23h-6.52v4.18h7.38v1.23h-8.72v-12H269Z"/><path class="cls-4" d="M278.54,131.53v-1.78a4,4,0,0,1-3.38,2,4.62,4.62,0,0,1,0-9.2,4,4,0,0,1,3.38,1.88v-5.33h1.31v12.46Zm-3.14-7.84a3.12,3.12,0,0,0-3.11,3.41,3.18,3.18,0,0,0,3.11,3.43,3.43,3.43,0,0,0,0-6.85Z"/><path class="cls-4" d="M289,122.71h1.3v8.83H289V130a3.36,3.36,0,0,1-3,1.72,3.22,3.22,0,0,1-3.38-3.53v-5.48H284v5.16a2.35,2.35,0,0,0,2.44,2.66,2.61,2.61,0,0,0,2.65-2.77Z"/><path class="cls-4" d="M297.27,131.74a4.61,4.61,0,1,1,3.53-7.65l-.87.92a3.56,3.56,0,0,0-2.68-1.33,3.26,3.26,0,0,0-3.16,3.43,3.3,3.3,0,0,0,3.24,3.45,3.64,3.64,0,0,0,2.7-1.31l.84.79A4.55,4.55,0,0,1,297.27,131.74Z"/><path class="cls-4" d="M303.55,124.4l-.39-1.08a7.29,7.29,0,0,1,3.21-.73c2.41,0,3.76,1.23,3.76,3.55v5.4h-1.26V130.2a3.87,3.87,0,0,1-3.19,1.52c-1.64,0-3.3-.92-3.3-2.77s1.54-2.87,3.77-2.87a9.38,9.38,0,0,1,2.71.38v-.31c0-1.59-1-2.41-2.63-2.41A6.15,6.15,0,0,0,303.55,124.4Zm.15,4.51c0,1.13,1,1.78,2.22,1.78,1.62,0,3-1,3-2.39v-.85a9.2,9.2,0,0,0-2.59-.38C304.63,127.06,303.71,127.78,303.71,128.9Z"/><path class="cls-4" d="M312.38,127.15a4.6,4.6,0,0,1,8.06-3.06l-.87.92a3.56,3.56,0,0,0-2.68-1.33,3.26,3.26,0,0,0-3.16,3.43,3.3,3.3,0,0,0,3.24,3.45,3.64,3.64,0,0,0,2.7-1.31l.84.79a4.62,4.62,0,0,1-3.35,1.71L316,134.18l-1.28-.58,1.33-1.95A4.52,4.52,0,0,1,312.38,127.15Z"/><path class="cls-4" d="M323.18,124.4l-.39-1.08a7.29,7.29,0,0,1,3.21-.73c2.41,0,3.76,1.23,3.76,3.55v5.4h-1.26V130.2a3.87,3.87,0,0,1-3.19,1.52c-1.64,0-3.3-.92-3.3-2.77s1.54-2.87,3.77-2.87a9.38,9.38,0,0,1,2.71.38v-.31c0-1.59-1-2.41-2.63-2.41A6.15,6.15,0,0,0,323.18,124.4Zm.15,4.51c0,1.13,1,1.78,2.22,1.78,1.62,0,3-1,3-2.39v-.85a9.2,9.2,0,0,0-2.6-.38C324.26,127.06,323.33,127.78,323.33,128.9Zm4-7.53c-.77,0-1.71-.68-2.29-.68s-.63.22-.89.84l-.8-.22c.34-1.28.8-1.79,1.62-1.79s1.71.68,2.29.68.63-.22.89-.84l.8.22C328.64,120.86,328.18,121.37,327.36,121.37Z"/><path class="cls-4" d="M336.58,131.74a4.53,4.53,0,0,1-4.58-4.59,4.6,4.6,0,1,1,4.58,4.59Zm0-8.06a3.24,3.24,0,0,0-3.23,3.43,3.32,3.32,0,0,0,3.26,3.45,3.25,3.25,0,0,0,3.24-3.41A3.33,3.33,0,0,0,336.58,123.68Z"/><path class="cls-4" d="M352.59,130.59a3.65,3.65,0,0,0,2.78-1.25l.82.73a4.56,4.56,0,0,1-3.64,1.66,4.62,4.62,0,0,1-.17-9.22c2.61,0,4.11,2.08,4.11,4.68a3.56,3.56,0,0,1,0,.41h-7A3.09,3.09,0,0,0,352.59,130.59Zm2.58-4c-.14-1.6-1.06-3-2.82-3a3,3,0,0,0-2.87,3Z"/><path class="cls-4" d="M369.61,131.74a6.18,6.18,0,0,1,.05-12.36,6.22,6.22,0,0,1,4.66,1.89l-.92,1a5.19,5.19,0,0,0-3.76-1.64,4.94,4.94,0,0,0,0,9.87,5.19,5.19,0,0,0,3.86-1.72l.89.87A6.22,6.22,0,0,1,369.61,131.74Z"/><path class="cls-4" d="M376.55,120.78v-1.45h1.5v1.45Zm.09,10.76v-8.83H378v8.83Z"/><path class="cls-4" d="M384.9,130.59a3.65,3.65,0,0,0,2.78-1.25l.82.73a4.56,4.56,0,0,1-3.64,1.66,4.62,4.62,0,0,1-.17-9.22c2.61,0,4.11,2.08,4.11,4.68a3.56,3.56,0,0,1,0,.41h-7A3.09,3.09,0,0,0,384.9,130.59Zm2.58-4c-.14-1.6-1.06-3-2.82-3a3,3,0,0,0-2.87,3Zm-4.13-5.26h-1.09l1.81-2.24h1.16l1.81,2.24H385.9l-1.28-1.14Z"/><path class="cls-4" d="M392.42,131.53h-1.31v-8.83h1.31v1.54a3.34,3.34,0,0,1,3-1.72,3.22,3.22,0,0,1,3.38,3.53v5.48h-1.31v-5.16a2.35,2.35,0,0,0-2.44-2.66,2.6,2.6,0,0,0-2.65,2.77Z"/><path class="cls-4" d="M405.6,131.74a4.61,4.61,0,1,1,3.53-7.65l-.87.92a3.56,3.56,0,0,0-2.68-1.33,3.26,3.26,0,0,0-3.16,3.43,3.3,3.3,0,0,0,3.24,3.45,3.64,3.64,0,0,0,2.7-1.31l.84.79A4.55,4.55,0,0,1,405.6,131.74Z"/><path class="cls-4" d="M411.4,120.78v-1.45h1.5v1.45Zm.09,10.76v-8.83h1.31v8.83Z"/><path class="cls-4" d="M416.37,124.4l-.39-1.08a7.29,7.29,0,0,1,3.21-.73c2.41,0,3.76,1.23,3.76,3.55v5.4h-1.26V130.2a3.87,3.87,0,0,1-3.19,1.52c-1.64,0-3.3-.92-3.3-2.77s1.54-2.87,3.77-2.87a9.38,9.38,0,0,1,2.71.38v-.31c0-1.59-1-2.41-2.63-2.41A6.15,6.15,0,0,0,416.37,124.4Zm.15,4.51c0,1.13,1,1.78,2.22,1.78,1.62,0,3-1,3-2.39v-.85a9.2,9.2,0,0,0-2.6-.38C417.44,127.06,416.52,127.78,416.52,128.9Z"/></g></g></svg>