<svg xmlns="http://www.w3.org/2000/svg" viewBox="0 0 438.35 120"><defs><style>.cls-1{fill:#fff;}</style></defs><title>logo-branca-nippec-ufs</title><g id="Camada_2" data-name="Camada 2"><g id="Camada_1-2" data-name="Camada 1"><path class="cls-1" d="M99.88,25.89h9.94l23,30.17V25.89h10.64v49h-9.17L110.52,43.74V74.89H99.88Z"/><path class="cls-1" d="M155.67,25.89h10.78v49H155.67Z"/><path class="cls-1" d="M178.7,25.89h20a23.56,23.56,0,0,1,7.88,1.23,16.72,16.72,0,0,1,5.88,3.46,15.16,15.16,0,0,1,3.71,5.35,17.81,17.81,0,0,1,1.29,6.9V43a17.18,17.18,0,0,1-1.54,7.49,15.29,15.29,0,0,1-4.24,5.39,18.34,18.34,0,0,1-6.3,3.25,26.69,26.69,0,0,1-7.73,1.08h-8.19v14.7H178.7ZM198,50.6a8.77,8.77,0,0,0,6.3-2.13,7,7,0,0,0,2.24-5.29V43a6.69,6.69,0,0,0-2.35-5.53,9.93,9.93,0,0,0-6.4-1.89h-8.33v15Z"/><path class="cls-1" d="M225.46,25.89h20a23.56,23.56,0,0,1,7.88,1.23,16.72,16.72,0,0,1,5.88,3.46,15.16,15.16,0,0,1,3.71,5.35,17.81,17.81,0,0,1,1.29,6.9V43a17.18,17.18,0,0,1-1.54,7.49,15.29,15.29,0,0,1-4.24,5.39,18.34,18.34,0,0,1-6.3,3.25,26.69,26.69,0,0,1-7.73,1.08h-8.19v14.7H225.46ZM244.78,50.6a8.77,8.77,0,0,0,6.3-2.13,7,7,0,0,0,2.24-5.29V43A6.69,6.69,0,0,0,251,37.51a9.93,9.93,0,0,0-6.4-1.89h-8.33v15Z"/><path class="cls-1" d="M272.22,25.89h36.89v9.59H282.86v9.94H306V55h-23.1V65.3h26.6v9.59H272.22Z"/><path class="cls-1" d="M342.08,75.73a25.37,25.37,0,0,1-10-2,24.16,24.16,0,0,1-13.23-13.37,25.8,25.8,0,0,1-1.89-9.87v-.14a25.55,25.55,0,0,1,1.89-9.83,25.28,25.28,0,0,1,5.25-8,24.33,24.33,0,0,1,8-5.46,26.21,26.21,0,0,1,10.36-2,32.43,32.43,0,0,1,6.27.56,26.2,26.2,0,0,1,5.15,1.54,22.38,22.38,0,0,1,4.27,2.38,29,29,0,0,1,3.64,3.08L355,40.52a26,26,0,0,0-5.85-4.06A14.89,14.89,0,0,0,342.43,35a13.66,13.66,0,0,0-5.71,1.19,13.51,13.51,0,0,0-4.51,3.29,15.33,15.33,0,0,0-2.94,4.86,16.53,16.53,0,0,0-1,5.92v.14a16.81,16.81,0,0,0,1,6,15.58,15.58,0,0,0,2.91,4.9,13.47,13.47,0,0,0,10.25,4.55,15,15,0,0,0,7.1-1.54,27.57,27.57,0,0,0,5.77-4.2L362.17,67a35.47,35.47,0,0,1-3.92,3.64,23.29,23.29,0,0,1-4.44,2.77,23,23,0,0,1-5.29,1.75A31.89,31.89,0,0,1,342.08,75.73Z"/><path class="cls-1" d="M108.92,82.91h1.39v12.6h-1.13L101,85.18V95.52H99.65V82.91H101L108.92,93Z"/><path class="cls-1" d="M120.24,86.21h1.37v9.31h-1.37V93.9a3.55,3.55,0,0,1-3.19,1.82A3.4,3.4,0,0,1,113.49,92V86.21h1.39v5.44c0,1.73.94,2.81,2.57,2.81a2.75,2.75,0,0,0,2.79-2.92Zm-3.37-1.33,1.71-2.61,1.44.67-2,1.94Z"/><path class="cls-1" d="M128.92,95.73a4.86,4.86,0,1,1,3.73-8.07l-.92,1a3.76,3.76,0,0,0-2.83-1.4,3.44,3.44,0,0,0-3.33,3.62A3.48,3.48,0,0,0,129,94.49a3.84,3.84,0,0,0,2.84-1.39l.88.83A4.8,4.8,0,0,1,128.92,95.73Z"/><path class="cls-1" d="M135.13,95.52V82.37h1.39V95.52Z"/><path class="cls-1" d="M143.84,94.53a3.85,3.85,0,0,0,2.93-1.31l.86.77a4.81,4.81,0,0,1-3.83,1.75,4.87,4.87,0,0,1-.18-9.72c2.75,0,4.34,2.2,4.34,4.93a3.76,3.76,0,0,1,0,.43h-7.38A3.26,3.26,0,0,0,143.84,94.53Zm2.72-4.18c-.14-1.69-1.12-3.17-3-3.17a3.21,3.21,0,0,0-3,3.17Z"/><path class="cls-1" d="M154.64,95.73a4.77,4.77,0,0,1-4.83-4.84,4.85,4.85,0,1,1,4.83,4.84Zm0-8.5a3.42,3.42,0,0,0-3.4,3.62,3.5,3.5,0,0,0,3.44,3.64,3.43,3.43,0,0,0,3.42-3.6A3.52,3.52,0,0,0,154.64,87.23Z"/><path class="cls-1" d="M169.2,82.91v12.6h-1.42V82.91Z"/><path class="cls-1" d="M174,95.52h-1.39V86.21H174v1.62A3.52,3.52,0,0,1,177.23,86a3.4,3.4,0,0,1,3.56,3.73v5.78h-1.39V90.08c0-1.73-.94-2.81-2.57-2.81A2.74,2.74,0,0,0,174,90.19Z"/><path class="cls-1" d="M185.62,92.87a1.38,1.38,0,0,0,1.57,1.55,2.92,2.92,0,0,0,1.35-.32v1.19a3.49,3.49,0,0,1-1.67.4A2.37,2.37,0,0,1,184.23,93V87.43h-1.3V86.21h1.3V83.4h1.39v2.81h3v1.22h-3Z"/><path class="cls-1" d="M194.85,94.53a3.85,3.85,0,0,0,2.93-1.31l.86.77a4.81,4.81,0,0,1-3.83,1.75,4.87,4.87,0,0,1-.18-9.72c2.75,0,4.34,2.2,4.34,4.93a3.76,3.76,0,0,1,0,.43h-7.38A3.26,3.26,0,0,0,194.85,94.53Zm2.72-4.18c-.14-1.69-1.12-3.17-3-3.17a3.21,3.21,0,0,0-3,3.17Z"/><path class="cls-1" d="M205.52,98.43a7.3,7.3,0,0,1-4.23-1.3l.63-1.08a6,6,0,0,0,3.58,1.19,3.06,3.06,0,0,0,3.38-3.31v-1.1a4.41,4.41,0,0,1-3.65,2,4.39,4.39,0,0,1,0-8.79,4.36,4.36,0,0,1,3.64,1.87V86.21h1.39V93.9C210.26,96.9,208.39,98.43,205.52,98.43Zm0-11.2a3.07,3.07,0,0,0-3.22,3.15,3.14,3.14,0,0,0,3.22,3.19,3.18,3.18,0,1,0,0-6.34Z"/><path class="cls-1" d="M214.74,95.52h-1.39V86.21h1.39v2.43a4,4,0,0,1,3.8-2.59v1.49h-.11c-2,0-3.69,1.46-3.69,4.27Z"/><path class="cls-1" d="M220.73,88l-.41-1.13a7.69,7.69,0,0,1,3.39-.77c2.54,0,4,1.3,4,3.75v5.69h-1.33v-1.4a4.08,4.08,0,0,1-3.37,1.6c-1.73,0-3.48-1-3.48-2.92s1.62-3,4-3a9.89,9.89,0,0,1,2.86.4v-.32c0-1.67-1-2.54-2.77-2.54A6.48,6.48,0,0,0,220.73,88Zm.16,4.75c0,1.19,1.08,1.87,2.34,1.87,1.71,0,3.12-1,3.12-2.52v-.9a9.71,9.71,0,0,0-2.74-.4C221.87,90.8,220.9,91.55,220.9,92.74Z"/><path class="cls-1" d="M238.09,95.52V93.64a4.18,4.18,0,0,1-3.56,2.07,4.87,4.87,0,0,1,0-9.71,4.2,4.2,0,0,1,3.56,2V82.37h1.39V95.52Zm-3.31-8.26a3.29,3.29,0,0,0-3.28,3.6,3.36,3.36,0,0,0,3.28,3.62,3.62,3.62,0,0,0,0-7.22Z"/><path class="cls-1" d="M246.82,95.73A4.77,4.77,0,0,1,242,90.89a4.85,4.85,0,1,1,4.83,4.84Zm0-8.5a3.42,3.42,0,0,0-3.4,3.62,3.5,3.5,0,0,0,3.44,3.64,3.43,3.43,0,0,0,3.42-3.6A3.52,3.52,0,0,0,246.82,87.23Z"/><path class="cls-1" d="M267.07,95.52V93.64a4.18,4.18,0,0,1-3.56,2.07,4.87,4.87,0,0,1,0-9.71,4.2,4.2,0,0,1,3.56,2V82.37h1.39V95.52Zm-3.31-8.26a3.29,3.29,0,0,0-3.28,3.6,3.36,3.36,0,0,0,3.28,3.62,3.62,3.62,0,0,0,0-7.22Z"/><path class="cls-1" d="M275.65,94.53a3.85,3.85,0,0,0,2.93-1.31l.86.77a4.81,4.81,0,0,1-3.83,1.75,4.87,4.87,0,0,1-.18-9.72c2.75,0,4.34,2.2,4.34,4.93a3.76,3.76,0,0,1,0,.43h-7.38A3.26,3.26,0,0,0,275.65,94.53Zm2.72-4.18c-.14-1.69-1.12-3.17-3-3.17a3.21,3.21,0,0,0-3,3.17Z"/><path class="cls-1" d="M292.32,91.07h-3.06v4.45h-1.42V82.91h4.72c2.84,0,4.72,1.51,4.72,4C297.27,89.66,295,91.07,292.32,91.07Zm.13-6.84h-3.19v5.55h3.11c2.09,0,3.46-1.12,3.46-2.79S294.48,84.23,292.45,84.23Z"/><path class="cls-1" d="M303.88,95.73A4.77,4.77,0,0,1,299,90.89a4.85,4.85,0,1,1,4.83,4.84Zm0-8.5a3.42,3.42,0,0,0-3.4,3.62,3.5,3.5,0,0,0,3.44,3.64,3.43,3.43,0,0,0,3.42-3.6A3.52,3.52,0,0,0,303.88,87.23Zm-.52-2.43,1.71-2.61,1.44.67-2,1.94Z"/><path class="cls-1" d="M314.33,95.7a6.4,6.4,0,0,1-3.85-1.37l.7-1a5.44,5.44,0,0,0,3.22,1.19c1.12,0,1.93-.58,1.93-1.48v0c0-.94-1.1-1.3-2.32-1.64-1.46-.41-3.08-.92-3.08-2.63v0c0-1.6,1.33-2.66,3.17-2.66a6.36,6.36,0,0,1,3.35,1l-.63,1a5.26,5.26,0,0,0-2.75-.9c-1.1,0-1.8.58-1.8,1.35v0c0,.88,1.15,1.22,2.4,1.6,1.44.43,3,1,3,2.66v0C317.65,94.67,316.19,95.7,314.33,95.7Z"/><path class="cls-1" d="M319.84,90.83V89.38h5v1.46Z"/><path class="cls-1" d="M333.65,95.73a6.19,6.19,0,0,1-6.41-6.5,6.33,6.33,0,0,1,6.32-6.54,6.64,6.64,0,0,1,4.7,1.67l-.92,1.08A5.36,5.36,0,0,0,333.5,84a4.93,4.93,0,0,0-4.79,5.19c0,3,1.93,5.26,5,5.26a5.93,5.93,0,0,0,3.64-1.26V90.06H333.5V88.78h5.2v5A7.64,7.64,0,0,1,333.65,95.73Z"/><path class="cls-1" d="M343.06,95.52h-1.39V86.21h1.39v2.43a4,4,0,0,1,3.8-2.59v1.49h-.11c-2,0-3.69,1.46-3.69,4.27Z"/><path class="cls-1" d="M349.05,88l-.41-1.13a7.69,7.69,0,0,1,3.39-.77c2.54,0,4,1.3,4,3.75v5.69h-1.33v-1.4a4.08,4.08,0,0,1-3.37,1.6c-1.73,0-3.48-1-3.48-2.92s1.62-3,4-3a9.9,9.9,0,0,1,2.86.4v-.32c0-1.67-1-2.54-2.77-2.54A6.48,6.48,0,0,0,349.05,88Zm.16,4.75c0,1.19,1.08,1.87,2.34,1.87,1.71,0,3.11-1,3.11-2.52v-.9a9.7,9.7,0,0,0-2.74-.4C350.19,90.8,349.22,91.55,349.22,92.74Z"/><path class="cls-1" d="M366.41,95.52V93.64a4.18,4.18,0,0,1-3.56,2.07,4.87,4.87,0,0,1,0-9.71,4.2,4.2,0,0,1,3.56,2V82.37h1.39V95.52Zm-3.31-8.26a3.29,3.29,0,0,0-3.28,3.6,3.36,3.36,0,0,0,3.28,3.62,3.62,3.62,0,0,0,0-7.22Z"/><path class="cls-1" d="M377.49,86.21h1.37v9.31h-1.37V93.9a3.55,3.55,0,0,1-3.19,1.82A3.4,3.4,0,0,1,370.74,92V86.21h1.39v5.44c0,1.73.94,2.81,2.57,2.81a2.75,2.75,0,0,0,2.79-2.92Z"/><path class="cls-1" d="M382.51,88l-.41-1.13a7.69,7.69,0,0,1,3.39-.77c2.54,0,4,1.3,4,3.75v5.69h-1.33v-1.4a4.08,4.08,0,0,1-3.37,1.6c-1.73,0-3.48-1-3.48-2.92s1.62-3,4-3a9.89,9.89,0,0,1,2.86.4v-.32c0-1.67-1-2.54-2.77-2.54A6.48,6.48,0,0,0,382.51,88Zm.16,4.75c0,1.19,1.08,1.87,2.34,1.87,1.71,0,3.12-1,3.12-2.52v-.9a9.71,9.71,0,0,0-2.74-.4C383.65,90.8,382.68,91.55,382.68,92.74Z"/><path class="cls-1" d="M391.82,90.89a4.85,4.85,0,0,1,8.5-3.22l-.92,1a3.76,3.76,0,0,0-2.83-1.4,3.44,3.44,0,0,0-3.33,3.62,3.48,3.48,0,0,0,3.42,3.64,3.84,3.84,0,0,0,2.84-1.39l.88.83a4.87,4.87,0,0,1-3.53,1.8l-1.19,2.57-1.35-.61,1.4-2.05A4.77,4.77,0,0,1,391.82,90.89Z"/><path class="cls-1" d="M403.21,88l-.41-1.13a7.69,7.69,0,0,1,3.39-.77c2.54,0,4,1.3,4,3.75v5.69h-1.33v-1.4a4.08,4.08,0,0,1-3.37,1.6c-1.73,0-3.48-1-3.48-2.92s1.62-3,4-3a9.9,9.9,0,0,1,2.86.4v-.32c0-1.67-1-2.54-2.77-2.54A6.48,6.48,0,0,0,403.21,88Zm.16,4.75c0,1.19,1.08,1.87,2.34,1.87,1.71,0,3.11-1,3.11-2.52v-.9a9.7,9.7,0,0,0-2.74-.4C404.35,90.8,403.38,91.55,403.38,92.74Zm4.25-7.94c-.81,0-1.8-.72-2.41-.72s-.67.23-.94.88l-.85-.23c.36-1.35.85-1.89,1.71-1.89s1.8.72,2.41.72.67-.23.94-.88l.85.23C409,84.26,408.49,84.8,407.63,84.8Z"/><path class="cls-1" d="M417.35,95.73a4.77,4.77,0,0,1-4.83-4.84,4.85,4.85,0,1,1,4.83,4.84Zm0-8.5a3.42,3.42,0,0,0-3.4,3.62,3.5,3.5,0,0,0,3.44,3.64,3.43,3.43,0,0,0,3.42-3.6A3.52,3.52,0,0,0,417.35,87.23Z"/><path class="cls-1" d="M434.23,94.53a3.85,3.85,0,0,0,2.93-1.31L438,94a4.81,4.81,0,0,1-3.83,1.75A4.87,4.87,0,0,1,434,86c2.75,0,4.34,2.2,4.34,4.93a3.76,3.76,0,0,1,0,.43H431A3.26,3.26,0,0,0,434.23,94.53Zm2.72-4.18c-.14-1.69-1.12-3.17-3-3.17a3.21,3.21,0,0,0-3,3.17Z"/><path class="cls-1" d="M104.13,112.67h-3.06v4.45H99.65v-12.6h4.72c2.84,0,4.72,1.51,4.72,4C109.08,111.26,106.82,112.67,104.13,112.67Zm.13-6.84h-3.19v5.55h3.11c2.09,0,3.46-1.12,3.46-2.79S106.29,105.83,104.26,105.83Z"/><path class="cls-1" d="M115.45,116.13a3.85,3.85,0,0,0,2.93-1.31l.86.77a4.81,4.81,0,0,1-3.83,1.75,4.87,4.87,0,0,1-.18-9.72c2.75,0,4.34,2.2,4.34,4.93a3.76,3.76,0,0,1,0,.43h-7.38A3.26,3.26,0,0,0,115.45,116.13Zm2.72-4.18c-.14-1.69-1.12-3.17-3-3.17a3.21,3.21,0,0,0-3,3.17Z"/><path class="cls-1" d="M125.08,117.3a6.4,6.4,0,0,1-3.85-1.37l.7-1a5.44,5.44,0,0,0,3.22,1.19c1.12,0,1.93-.58,1.93-1.48v0c0-.94-1.1-1.3-2.32-1.64-1.46-.41-3.08-.92-3.08-2.63v0c0-1.6,1.33-2.66,3.17-2.66a6.36,6.36,0,0,1,3.35,1l-.63,1a5.26,5.26,0,0,0-2.75-.9c-1.1,0-1.8.58-1.8,1.35v0c0,.88,1.15,1.22,2.4,1.6,1.44.43,3,1,3,2.66v0C128.4,116.27,126.94,117.3,125.08,117.3Z"/><path class="cls-1" d="M138.44,120v-4.75a4.18,4.18,0,0,1-3.56,2.07,4.87,4.87,0,0,1,0-9.71,4.2,4.2,0,0,1,3.56,2v-1.78h1.39V120Zm-3.31-11.15a3.29,3.29,0,0,0-3.28,3.6,3.36,3.36,0,0,0,3.28,3.62,3.62,3.62,0,0,0,0-7.22Z"/><path class="cls-1" d="M149.53,107.81h1.37v9.31h-1.37V115.5a3.55,3.55,0,0,1-3.19,1.82,3.4,3.4,0,0,1-3.57-3.73v-5.78h1.39v5.44c0,1.73.94,2.81,2.57,2.81a2.75,2.75,0,0,0,2.79-2.92Z"/><path class="cls-1" d="M154,105.77v-1.53h1.58v1.53Zm.09,11.34v-9.31h1.39v9.31Z"/><path class="cls-1" d="M161.82,117.3a6.4,6.4,0,0,1-3.85-1.37l.7-1a5.44,5.44,0,0,0,3.22,1.19c1.12,0,1.93-.58,1.93-1.48v0c0-.94-1.1-1.3-2.32-1.64-1.46-.41-3.08-.92-3.08-2.63v0c0-1.6,1.33-2.66,3.17-2.66a6.36,6.36,0,0,1,3.35,1l-.63,1a5.26,5.26,0,0,0-2.75-.9c-1.1,0-1.8.58-1.8,1.35v0c0,.88,1.15,1.22,2.4,1.6,1.44.43,3,1,3,2.66v0C165.13,116.27,163.68,117.3,161.82,117.3Z"/><path class="cls-1" d="M168.25,109.59l-.41-1.13a7.69,7.69,0,0,1,3.39-.77c2.54,0,4,1.3,4,3.75v5.69h-1.33v-1.4a4.08,4.08,0,0,1-3.37,1.6c-1.73,0-3.48-1-3.48-2.92s1.62-3,4-3a9.89,9.89,0,0,1,2.86.4v-.32c0-1.67-1-2.54-2.77-2.54A6.48,6.48,0,0,0,168.25,109.59Zm.16,4.75c0,1.19,1.08,1.87,2.34,1.87,1.71,0,3.12-1,3.12-2.52v-.9a9.71,9.71,0,0,0-2.74-.4C169.38,112.4,168.41,113.15,168.41,114.34Z"/><path class="cls-1" d="M187.63,116.13a3.85,3.85,0,0,0,2.93-1.31l.86.77a4.81,4.81,0,0,1-3.83,1.75,4.87,4.87,0,0,1-.18-9.72c2.75,0,4.34,2.2,4.34,4.93a3.76,3.76,0,0,1,0,.43h-7.38A3.26,3.26,0,0,0,187.63,116.13Zm2.72-4.18c-.14-1.69-1.12-3.17-3-3.17a3.21,3.21,0,0,0-3,3.17Z"/><path class="cls-1" d="M204.84,107.61c2.14,0,3.46,1.44,3.46,3.75v5.76h-1.39v-5.44c0-1.8-.9-2.81-2.41-2.81a2.61,2.61,0,0,0-2.58,2.88v5.37h-1.37v-5.47c0-1.75-.92-2.77-2.39-2.77a2.7,2.7,0,0,0-2.59,2.94v5.31h-1.39v-9.31h1.39v1.57a3.4,3.4,0,0,1,3-1.76,3.16,3.16,0,0,1,3,1.85A3.71,3.71,0,0,1,204.84,107.61Z"/><path class="cls-1" d="M226,105.81h-7.69v4.3h6.88v1.3h-6.88v4.41h7.78v1.3h-9.2v-12.6H226Z"/><path class="cls-1" d="M236.05,117.12v-1.87a4.18,4.18,0,0,1-3.56,2.07,4.87,4.87,0,0,1,0-9.71,4.2,4.2,0,0,1,3.56,2V104h1.39v13.14Zm-3.31-8.26a3.29,3.29,0,0,0-3.28,3.6,3.36,3.36,0,0,0,3.28,3.62,3.62,3.62,0,0,0,0-7.22Z"/><path class="cls-1" d="M247.14,107.81h1.37v9.31h-1.37V115.5a3.55,3.55,0,0,1-3.19,1.82,3.4,3.4,0,0,1-3.56-3.73v-5.78h1.39v5.44c0,1.73.94,2.81,2.57,2.81a2.75,2.75,0,0,0,2.79-2.92Z"/><path class="cls-1" d="M255.82,117.33a4.86,4.86,0,1,1,3.73-8.07l-.92,1a3.76,3.76,0,0,0-2.83-1.4,3.44,3.44,0,0,0-3.33,3.62,3.48,3.48,0,0,0,3.42,3.64,3.84,3.84,0,0,0,2.84-1.39l.88.83A4.8,4.8,0,0,1,255.82,117.33Z"/><path class="cls-1" d="M262.44,109.59l-.41-1.13a7.69,7.69,0,0,1,3.39-.77c2.54,0,4,1.3,4,3.75v5.69H268v-1.4a4.08,4.08,0,0,1-3.37,1.6c-1.73,0-3.48-1-3.48-2.92s1.62-3,4-3a9.9,9.9,0,0,1,2.86.4v-.32c0-1.67-1-2.54-2.77-2.54A6.48,6.48,0,0,0,262.44,109.59Zm.16,4.75c0,1.19,1.08,1.87,2.34,1.87,1.71,0,3.11-1,3.11-2.52v-.9a9.7,9.7,0,0,0-2.74-.4C263.57,112.4,262.6,113.15,262.6,114.34Z"/><path class="cls-1" d="M271.74,112.49a4.85,4.85,0,0,1,8.5-3.22l-.92,1a3.76,3.76,0,0,0-2.83-1.4,3.44,3.44,0,0,0-3.33,3.62,3.48,3.48,0,0,0,3.42,3.64,3.84,3.84,0,0,0,2.84-1.39l.88.83a4.87,4.87,0,0,1-3.53,1.8l-1.19,2.57-1.35-.61,1.4-2.05A4.77,4.77,0,0,1,271.74,112.49Z"/><path class="cls-1" d="M283.14,109.59l-.41-1.13a7.69,7.69,0,0,1,3.39-.77c2.54,0,4,1.3,4,3.75v5.69h-1.33v-1.4a4.08,4.08,0,0,1-3.37,1.6c-1.73,0-3.48-1-3.48-2.92s1.62-3,4-3a9.89,9.89,0,0,1,2.86.4v-.32c0-1.67-1-2.54-2.77-2.54A6.48,6.48,0,0,0,283.14,109.59Zm.16,4.75c0,1.19,1.08,1.87,2.34,1.87,1.71,0,3.12-1,3.12-2.52v-.9a9.71,9.71,0,0,0-2.74-.4C284.27,112.4,283.3,113.15,283.3,114.34Zm4.25-7.94c-.81,0-1.8-.72-2.41-.72s-.67.23-.94.88l-.85-.23c.36-1.35.85-1.89,1.71-1.89s1.8.72,2.41.72.67-.23.94-.88l.85.23C288.9,105.86,288.41,106.4,287.55,106.4Z"/><path class="cls-1" d="M297.27,117.33a4.77,4.77,0,0,1-4.83-4.84,4.85,4.85,0,1,1,4.83,4.84Zm0-8.5a3.42,3.42,0,0,0-3.4,3.62,3.5,3.5,0,0,0,3.44,3.64,3.43,3.43,0,0,0,3.42-3.6A3.52,3.52,0,0,0,297.27,108.83Z"/><path class="cls-1" d="M314.15,116.13a3.85,3.85,0,0,0,2.93-1.31l.86.77a4.81,4.81,0,0,1-3.83,1.75,4.87,4.87,0,0,1-.18-9.72c2.75,0,4.34,2.2,4.34,4.93a3.76,3.76,0,0,1,0,.43h-7.38A3.26,3.26,0,0,0,314.15,116.13Zm2.72-4.18c-.14-1.69-1.12-3.17-3-3.17a3.21,3.21,0,0,0-3,3.17Z"/><path class="cls-1" d="M332.1,117.33a6.52,6.52,0,0,1,.05-13,6.56,6.56,0,0,1,4.92,2l-1,1a5.48,5.48,0,0,0-4-1.73,5.21,5.21,0,0,0,0,10.41,5.47,5.47,0,0,0,4.07-1.82l.94.92A6.56,6.56,0,0,1,332.1,117.33Z"/><path class="cls-1" d="M339.42,105.77v-1.53H341v1.53Zm.09,11.34v-9.31h1.39v9.31Z"/><path class="cls-1" d="M348.23,116.13a3.85,3.85,0,0,0,2.93-1.31l.86.77a4.81,4.81,0,0,1-3.83,1.75,4.87,4.87,0,0,1-.18-9.72c2.75,0,4.34,2.2,4.34,4.93a3.76,3.76,0,0,1,0,.43H345A3.26,3.26,0,0,0,348.23,116.13Zm2.72-4.18c-.14-1.69-1.12-3.17-3-3.17a3.21,3.21,0,0,0-3,3.17Zm-4.36-5.55h-1.15l1.91-2.36h1.22l1.91,2.36h-1.19l-1.35-1.21Z"/><path class="cls-1" d="M356.16,117.12h-1.39v-9.31h1.39v1.62a3.52,3.52,0,0,1,3.19-1.82,3.4,3.4,0,0,1,3.57,3.73v5.78h-1.39v-5.44c0-1.73-.94-2.81-2.57-2.81a2.74,2.74,0,0,0-2.79,2.92Z"/><path class="cls-1" d="M370.06,117.33a4.86,4.86,0,1,1,3.73-8.07l-.92,1a3.76,3.76,0,0,0-2.83-1.4,3.44,3.44,0,0,0-3.33,3.62,3.48,3.48,0,0,0,3.42,3.64A3.84,3.84,0,0,0,373,114.7l.88.83A4.8,4.8,0,0,1,370.06,117.33Z"/><path class="cls-1" d="M376.18,105.77v-1.53h1.58v1.53Zm.09,11.34v-9.31h1.39v9.31Z"/><path class="cls-1" d="M381.42,109.59l-.41-1.13a7.69,7.69,0,0,1,3.39-.77c2.54,0,4,1.3,4,3.75v5.69H387v-1.4a4.08,4.08,0,0,1-3.37,1.6c-1.73,0-3.48-1-3.48-2.92s1.62-3,4-3a9.89,9.89,0,0,1,2.86.4v-.32c0-1.67-1-2.54-2.77-2.54A6.48,6.48,0,0,0,381.42,109.59Zm.16,4.75c0,1.19,1.08,1.87,2.34,1.87,1.71,0,3.12-1,3.12-2.52v-.9a9.71,9.71,0,0,0-2.74-.4C382.55,112.4,381.58,113.15,381.58,114.34Z"/><path class="cls-1" d="M65.94,36c-6.46-1.86-16-3-25-3h0A109.92,109.92,0,0,0,16,36a1,1,0,0,0-.76,1V85c0,9.66,7.69,17.4,18.71,18.83a54.43,54.43,0,0,0,7,.44,56,56,0,0,0,7-.44c11-1.4,18.71-9.14,18.71-18.83V37A1,1,0,0,0,65.94,36ZM43.09,83.58l-1.81-2.45A1.23,1.23,0,0,1,41,79.68a1.58,1.58,0,0,1,1.47-.78h0a1,1,0,0,1,.8.43l1.52,2.09.62.85.31.42,1.55,2.14a1.44,1.44,0,0,1,.17.3,1,1,0,0,1-.1.95l-.12.17,0,0-.09.1-.06.05-.09.08-.07,0-.09.06-.08,0-.1,0-.08,0-.1,0-.09,0-.11,0H46a1.25,1.25,0,0,1-.9-.51l-.65-.88-1-1.34ZM61,95,49.35,79.9l-.19.15c-.46-.09-1.06-.38-1.29-.19s-.07.84-.07,1.31l-.27.23h0L47,81.6l-.41.16,0,0-.15-.2-.62-.85-.35-.48-1.17-1.61a2.16,2.16,0,0,0-1.76-.92h0A2.76,2.76,0,0,0,40,79.08a2.36,2.36,0,0,0,.33,2.76l1.24,1.67.53.72q-.55.38-1.09.79c-.3.24-.6.47-.89.72l-.16.14-.23.2-.4.36-.08.07-.52.5c-.29.28-.56.58-.84.87a7,7,0,0,0-2.56,1.52c-.58.78-.53,2-.73,3l-.38.68c-.12.22-.23.45-.34.68s-.2.42-.3.63-.21.48-.31.73-.15.37-.22.55-.14.37-.21.56-.13.37-.19.56-.19.59-.27.89c-.58.83-1.52,1.58-1.69,2.51a2.24,2.24,0,0,0,0,.86,20.49,20.49,0,0,1-8.5-4.7A15.35,15.35,0,0,1,17.3,85V75.06l.16-.4c.1-.24.21-.49.31-.73s.19-.42.3-.63.23-.46.34-.68.25-.46.38-.68c.2-1,.15-2.22.73-3a7,7,0,0,1,2.56-1.52c.27-.3.55-.59.84-.87l.52-.5.08-.07.4-.36.23-.2.16-.14c.29-.25.58-.49.89-.72s.58-.44.88-.64l0,0,.11.15.26.35.82,1.11.17.23.26.35.39.52a2.43,2.43,0,0,0,1.71,1H30a2.67,2.67,0,0,0,2.31-1.3,2.21,2.21,0,0,0-.12-2.59l-1.55-2.14-.17-.23.29-.12.41-.16.48-.19h0L32,60.7c0-.47-.16-1.12.07-1.31s.84.09,1.29.19l.19-.15L17.3,38.4v-.63A109.38,109.38,0,0,1,41,35h0a98,98,0,0,1,23.67,2.74V48.89l-.34-.11.34.13h0l-.37-.14h0l-.06,0-.66-.22q-.75-.25-1.52-.44l-.5-.12-.1,0-.55-.12-.31-.05c-.6-.41-1.13-1.31-1.78-1.37s-1.33.66-2,1l-.64,0c-.59,0-1.19,0-1.78.05l-.59,0-.59.06-.59.07-.78.12-.69.13-.84.19c-1.15-.07-2.37-.42-3.38,0s-1.63,1.39-2.4,2.19c-.39.2-.77.41-1.15.64l-.61.38-.09.06-.45.29-.25.17-.17.12c-.31.22-.62.44-.92.68s-.81.66-1.2,1l-.18-.24-1.3-1.79a2.16,2.16,0,0,0-1.75-.92h0a2.76,2.76,0,0,0-2.5,1.37,2.36,2.36,0,0,0,.33,2.76l.92,1.24.22.3.6.81.1.13.1.13-.13.17-.3.42,0,0h0l-.3.21c-.45-.12-1-.44-1.28-.27s-.12.83-.15,1.3l-.31.23-.11.09L49.35,79.9l.11-.09.31-.23c0-.47-.09-1.12.15-1.3s.83.14,1.28.27l.3-.21h0l0,0,.3-.42.26-.35,0,0,.08.11,1.89,2.56a2.43,2.43,0,0,0,1.71,1H56a2.66,2.66,0,0,0,2.31-1.3,2.21,2.21,0,0,0-.12-2.59L57,75.59l-.29-.41-.44-.6L56,74.27l-.29-.4-.07-.1q.49-.42,1-.82c.3-.24.61-.46.92-.68l.17-.12L58,72l.45-.29.09-.06.61-.38c.38-.22.76-.43,1.15-.64.77-.8,1.43-1.82,2.4-2.19a4.17,4.17,0,0,1,1.95-.12V85A15.43,15.43,0,0,1,61,95ZM25,59.33l.13-.19,0-.05.1-.11.07-.05.1-.08.08,0,.1-.06.09,0,.11,0,.09,0,.11,0,.1,0,.12,0h.24a1,1,0,0,1,.8.43l1.52,2.09.62.85.31.42,1.55,2.14a1,1,0,0,1,.07,1.25,1.47,1.47,0,0,1-1.3.74H30a1.25,1.25,0,0,1-.9-.51l-.65-.88-1-1.34-.37-.5-1.83-2.47a2.1,2.1,0,0,1-.37-.69A1,1,0,0,1,25,59.33Zm30.3,16,.73,1L57.24,78a1,1,0,0,1,.07,1.25A1.47,1.47,0,0,1,56,80h-.07a1.25,1.25,0,0,1-.9-.51l-1.9-2.57-.27-.36-.54-.72L51.2,74.29A3.22,3.22,0,0,1,51,74a1.46,1.46,0,0,1-.15-.38,1,1,0,0,1,.12-.74h0l.12-.18.05-.06.1-.11.07-.05.1-.08.08,0,.1-.06.09,0,.11,0,.09,0,.11,0,.1,0,.12,0h.24a1,1,0,0,1,.8.43l1.51,2.08Zm-14-16.39-.12.17,0,0-.09.1-.06.05-.09.08-.07,0-.09.06-.08,0-.1,0-.08,0-.1,0-.09,0-.11,0h-.24a1.25,1.25,0,0,1-.9-.51l-1.9-2.57-.2-.27-.6-.81-1.14-1.54a1.23,1.23,0,0,1-.26-1.45,1.58,1.58,0,0,1,1.47-.78h0a1,1,0,0,1,.8.43l1.56,2.15.47.64.73,1,1.24,1.71A1,1,0,0,1,41.26,58.89Z"/><path class="cls-1" d="M80,97c.61-3.4,1.18-7,2-11.38a37.17,37.17,0,0,1-11.35,4.94c.43.07.87.16,1.3.26a19.82,19.82,0,0,1,4.54,1.57l0,0,.11.07.05,0,.09.09,0,.06.07.11,0,.06,0,.12V93a1,1,0,0,1,0,.12s0,.05,0,.08,0,0,0,.06,0,0,0,.07v.05s0,0,0,0l-.84,6.64A14.35,14.35,0,0,0,80,97Z"/><path class="cls-1" d="M2,97a14.35,14.35,0,0,0,3.87,3.1L5,93.39s0,0,0,0,0-.07,0-.1,0-.07,0-.1,0-.05,0-.08A1,1,0,0,1,5,93H5l0-.06,0-.11,0-.07.06-.09.06-.06.08-.08.07-.05.09-.06h0a19.82,19.82,0,0,1,4.54-1.57c.43-.1.87-.18,1.3-.26A37.17,37.17,0,0,1,0,85.59C.77,90,1.34,93.58,2,97Z"/><path class="cls-1" d="M75,93.11a1,1,0,0,1,.08-.27,21.2,21.2,0,0,0-3.36-1.05,37.8,37.8,0,0,0-4.23-.64L70,100.3A10.55,10.55,0,0,0,75,93.11Z"/><path class="cls-1" d="M6.92,92.84A1,1,0,0,1,7,93.1a10.64,10.64,0,0,0,5,7.18l2.54-9.13a37.8,37.8,0,0,0-4.23.64A21.2,21.2,0,0,0,6.92,92.84Z"/><path class="cls-1" d="M33.6,109.72h-.28s-.05,0-.05.06V115s0,.07.05.07h.28c.29,0,.45-.12.54-.45a9.87,9.87,0,0,0,.1-2.21,10,10,0,0,0-.1-2.21C34,109.87,33.89,109.73,33.6,109.72Z"/><path class="cls-1" d="M38.4,109.75a.43.43,0,0,0-.43.36,13.76,13.76,0,0,0-.06,2.42A13.82,13.82,0,0,0,38,115a.45.45,0,0,0,.43.38.43.43,0,0,0,.43-.36,13.61,13.61,0,0,0,.06-2.42,13.64,13.64,0,0,0-.06-2.42A.44.44,0,0,0,38.4,109.75Z"/><path class="cls-1" d="M49.72,109.6l-.26,0s-.05,0-.05.07c0,.78,0,1.21,0,2.09,0,.05,0,.07.05.07l.26,0c.45,0,.65-.32.65-1.19S50.17,109.57,49.72,109.6Z"/><path class="cls-1" d="M50.24,106.2c-3,.18-6.11.27-9.2.27s-6.25-.09-9.29-.27C23.44,105.71,7.78,104,6,93.26L7.52,105.4c1.69,10.27,16.3,12.72,24.66,13,3.08.11,6.17.18,9.25.18,2.81,0,5.6-.06,8.39-.18,8.32-.37,23-2.64,24.66-13L76,93.26C74.22,104,58.6,105.7,50.24,106.2Zm-36.94-.69c-.63-.34-.94-.52-1.59-.92,0,0-.06,0-.06,0,0,.65,0,1,.05,1.67a.12.12,0,0,0,.06.1c.54.36.81.53,1.35.84a.2.2,0,0,1,.09.17c0,.45,0,.68,0,1.13,0,.07,0,.09-.08.06-.53-.33-.79-.5-1.33-.88,0,0-.05,0-.05,0,.07,1.15.12,1.73.25,2.71,0,.06,0,.07-.07,0-.38-.31-.58-.47-1-.82a.33.33,0,0,1-.1-.17,49.36,49.36,0,0,1-.54-6.84c0-.06,0-.07.1,0a27.07,27.07,0,0,0,2.84,1.67.17.17,0,0,1,.09.15c0,.38,0,.59,0,1C13.39,105.52,13.36,105.54,13.3,105.51Zm4.2,8.25A17.06,17.06,0,0,1,15,112.54a.19.19,0,0,1-.09-.14c-.2-2.55-.19-4.71-.16-7.31,0-.06,0-.08.09-.06l1,.42a.14.14,0,0,1,.09.13c0,2.16-.05,3.83,0,6.22a.1.1,0,0,0,.05.09c.59.28.89.41,1.48.64a.15.15,0,0,1,.09.14c0,.43,0,.63,0,1C17.59,113.75,17.55,113.78,17.5,113.76Zm4.16-.77c0,1.52-.58,2-1.55,1.71s-1.59-1-1.6-2.53c0-2.27,0-3.75,0-5.67,0-.06,0-.09.09-.07l1,.26a.11.11,0,0,1,.08.12c0,2-.06,3.55,0,5.89,0,.42.17.72.45.79s.45-.14.45-.56c0-2.35,0-4,0-5.91,0-.06,0-.09.09-.08l1,.2a.11.11,0,0,1,.08.11C21.67,109.13,21.66,110.68,21.67,113Zm4.22-4.07c0,.07,0,.11-.09.1l-1.5-.21s-.05,0-.05.06c0,.67,0,1,0,1.78,0,0,0,.08.05.08l1.3.18c.05,0,.09.06.09.14v1.24c0,.08,0,.12-.09.11l-1.3-.18s-.05,0-.05.07c0,.77,0,1.16,0,1.85,0,0,0,.07.05.08l1.5.21a.11.11,0,0,1,.09.12v1a.07.07,0,0,1-.09.08c-1.06-.13-1.57-.2-2.6-.37a.11.11,0,0,1-.09-.11c0-2.51,0-5.12,0-7.65,0-.06,0-.09.09-.08,1,.17,1.53.24,2.59.39a.1.1,0,0,1,.09.1Zm4.73,7.1a.08.08,0,0,1-.09.08L29.45,116a.12.12,0,0,1-.12-.1c-.42-1.62-.63-3-1.05-5.11h0v5a.08.08,0,0,1-.09.08l-.85-.09a.1.1,0,0,1-.09-.1v-7.61a.07.07,0,0,1,.09-.08l1.11.13a.13.13,0,0,1,.12.1c.4,1.62.6,3,1,5.11h0v-5a.08.08,0,0,1,.09-.08l.85.07a.09.09,0,0,1,.09.1Zm4.65-.8a1.31,1.31,0,0,1-1.55,1.08l-1.53-.08a.09.09,0,0,1-.09-.1v-7.58a.08.08,0,0,1,.09-.09l1.53.08a1.44,1.44,0,0,1,1.55,1.2,11.66,11.66,0,0,1,.16,2.75A11.49,11.49,0,0,1,35.26,115.21Zm4.69.17a1.41,1.41,0,0,1-1.55,1.13,1.45,1.45,0,0,1-1.55-1.18,11.24,11.24,0,0,1-.12-2.82,11.14,11.14,0,0,1,.12-2.82,1.4,1.4,0,0,1,1.55-1.12,1.44,1.44,0,0,1,1.55,1.16,11.2,11.2,0,0,1,.12,2.82A11.18,11.18,0,0,1,39.95,115.38ZM45,115a.37.37,0,0,0,.4.34c.29,0,.45-.24.46-.87,0-.08,0-.12.1-.11l.94.18c.06,0,.08.07.08.14-.06,1.33-.63,1.82-1.6,1.84a1.34,1.34,0,0,1-1.5-1.09,12.85,12.85,0,0,1-.11-2.84,12.9,12.9,0,0,1,.12-2.85,1.42,1.42,0,0,1,1.51-1.16c1,0,1.54.42,1.6,1.74,0,.07,0,.13-.08.14l-.94.24c-.05,0-.1,0-.1-.1,0-.63-.17-.85-.46-.85a.4.4,0,0,0-.4.36,14.79,14.79,0,0,0-.06,2.44A14.81,14.81,0,0,0,45,115Zm6.61,1.12-1.07.08a.08.08,0,0,1-.1-.07c-.27-.93-.41-1.57-.68-2.84l-.34,0s-.05,0-.05.08c0,1.24,0,1.86,0,2.79a.09.09,0,0,1-.09.1l-1,.05a.08.08,0,0,1-.09-.09c0-2.45,0-5.14,0-7.59a.09.09,0,0,1,.09-.1l1.45-.08c1.08-.07,1.77.29,1.77,2.12a3.17,3.17,0,0,1-.68,2.22c.33,1.42.49,2.16.82,3.2C51.69,116,51.68,116.07,51.63,116.08ZM55.76,109a.11.11,0,0,1-.09.12l-1.51.18s-.05,0-.05.07c0,.66,0,1,0,1.77,0,0,0,.07.05.07l1.3-.15c.05,0,.09,0,.09.11,0,.49,0,.75,0,1.24,0,.08,0,.13-.09.14l-1.31.15s-.05,0-.05.08c0,.77,0,1.16,0,1.85,0,0,0,.07.05.06l1.51-.17c.05,0,.09,0,.09.1,0,.43,0,.64,0,1a.1.1,0,0,1-.09.1c-1.06.13-1.59.18-2.64.28a.08.08,0,0,1-.09-.08c0-2.45,0-5.15,0-7.6a.1.1,0,0,1,.09-.1c1.05-.1,1.58-.16,2.63-.3a.07.07,0,0,1,.09.08C55.76,108.32,55.76,108.52,55.76,109Zm3,1.38.38.13c.86.29,1.19.87,1.16,2.25,0,1.67-.55,2.43-1.76,2.64s-1.62-.29-1.63-1.67c0-.07,0-.12.07-.14l1-.36c.06,0,.1,0,.1.08,0,.75.17,1,.52.92s.49-.29.5-1-.1-1-.56-1.13l-.37-.14c-.88-.32-1.17-1-1.17-2.27,0-1.46.53-2.08,1.66-2.28s1.65.25,1.68,1.49a.15.15,0,0,1-.09.15l-1,.37c-.06,0-.1,0-.1-.08,0-.58-.17-.82-.5-.77s-.48.31-.48.86S58.26,110.16,58.75,110.33ZM65,107.76l-1,.53c-.06,0-.1,0-.1-.07,0-.62-.15-.81-.47-.72A.6.6,0,0,0,63,108a16.62,16.62,0,0,0-.13,2.41,17.46,17.46,0,0,0,0,2.37c0,.21.17.29.39.21s.48-.39.53-1a.14.14,0,0,1,.11-.14c.38-.05.58-.08,1-.16.06,0,.08,0,.07.1a2.68,2.68,0,0,1-1.77,2.47c-.81.28-1.28,0-1.46-.72a13.68,13.68,0,0,1,0-2.78,13.86,13.86,0,0,1,.18-2.86,2.19,2.19,0,0,1,1.65-1.63c1.05-.3,1.65.05,1.65,1.35A.18.18,0,0,1,65,107.76Zm2.13,4.46a.22.22,0,0,1-.1.15c-.4.23-.59.33-1,.54-.05,0-.08,0-.08-.06.31-2.69.38-4.66.5-7.42a.16.16,0,0,1,.1-.14l1-.43c.06,0,.09,0,.09.06C67.56,107.68,67.48,109.54,67.13,112.22Zm5-8.88a.23.23,0,0,1-.09.16c-.36.27-.54.4-.91.64a.12.12,0,0,0-.05.1,44,44,0,0,1-.56,5.52.32.32,0,0,1-.1.17c-.38.33-.58.49-1,.79-.05,0-.08,0-.07,0A51,51,0,0,0,70,105s0-.05,0,0c-.38.22-.57.33-1,.53-.05,0-.09,0-.09-.06,0-.42,0-.63.05-1a.18.18,0,0,1,.1-.15,19.3,19.3,0,0,0,3.11-1.86s.08,0,.08,0C72.19,102.76,72.18,103,72.16,103.34Z"/><path class="cls-1" d="M46.74,27a1.32,1.32,0,0,0-.37-1,.54.54,0,0,1,0-.8,1.34,1.34,0,0,0,.48-.95,1.48,1.48,0,0,0-1.42-1.44,34.29,34.29,0,0,0-9,0,1.49,1.49,0,0,0-1.42,1.44,1.34,1.34,0,0,0,.48.95.54.54,0,0,1,0,.8,1.32,1.32,0,0,0-.37,1,1.38,1.38,0,1,0,.14,2.75,1.4,1.4,0,0,0,1.46,1.31Q38.21,31,39.6,31t2.77,0q1.39,0,2.77.07a1.4,1.4,0,0,0,1.46-1.31,1.41,1.41,0,0,0,1.49-1.29A1.39,1.39,0,0,0,46.74,27ZM37.3,24a48.11,48.11,0,0,1,7.37,0,.31.31,0,0,1,0,.62,47.48,47.48,0,0,0-7.27,0h0a.31.31,0,0,1,0-.62Zm8.42,4.54h0a67,67,0,0,0-9.42,0,.31.31,0,0,1,0-.62,67.65,67.65,0,0,1,9.51,0,.31.31,0,0,1,0,.62Z"/><path id="_Caminho_" data-name="&lt;Caminho&gt;" class="cls-1" d="M36.93,7.9a6.37,6.37,0,0,0,.82,3.88c1.12,2,2.44,3,3.47,4.65.9,1.45,1,2.8.12,4.9,0-1.73-2.74-4.18-3.25-4.78A8.57,8.57,0,0,1,36,12.43,7,7,0,0,1,36.93,7.9Z"/><path id="_Caminho_2" data-name="&lt;Caminho&gt;" class="cls-1" d="M42.67,19.1s.79-1.52-1.23-4.22c-2.26-3-3.76-4.34-3.76-7.92s3-7,3-7c0,3.2,2,4.86,3.86,7.34A7.08,7.08,0,0,1,46,12.65a6.68,6.68,0,0,1-.9,2.7c.14-1.86-.28-3.17-2.25-5.4C41.24,8.17,40.31,7,40,4.81a6.76,6.76,0,0,0,2,5.89,7.48,7.48,0,0,1,2,3.9A5.57,5.57,0,0,1,42.67,19.1Z"/><path class="cls-1" d="M28.64,28.32a1.13,1.13,0,0,0-.45-.79.46.46,0,0,1-.07-.68,1.15,1.15,0,0,0,.28-.86A1.27,1.27,0,0,0,27,25a29.3,29.3,0,0,0-7.56,1.19,1.27,1.27,0,0,0-1,1.4,1.15,1.15,0,0,0,.53.74.46.46,0,0,1,.14.67,1.13,1.13,0,0,0-.18.89,1.18,1.18,0,1,0,.49,2.3,1.19,1.19,0,0,0,1.4.91q1.16-.23,2.33-.43t2.34-.37q1.17-.17,2.35-.31a1.19,1.19,0,0,0,1.06-1.3A1.2,1.2,0,0,0,30,29.37,1.19,1.19,0,0,0,28.64,28.32Zm-8.18-1.09a39,39,0,0,1,5.91-.93.25.25,0,0,1,0,.5,38.52,38.52,0,0,0-5.83.92h0a.25.25,0,0,1-.1-.5Zm7.32,2.58h0A54.42,54.42,0,0,0,20.21,31a.25.25,0,0,1-.11-.49,54.93,54.93,0,0,1,7.62-1.2.25.25,0,0,1,.06.5Z"/><path id="_Caminho_3" data-name="&lt;Caminho&gt;" class="cls-1" d="M18.39,11a6.37,6.37,0,0,0,.82,3.88c1.12,2,2.44,3,3.47,4.65.9,1.45,1,2.8.12,4.9,0-1.73-2.74-4.18-3.25-4.78a8.57,8.57,0,0,1-2.08-4.12A7,7,0,0,1,18.39,11Z"/><path id="_Caminho_4" data-name="&lt;Caminho&gt;" class="cls-1" d="M24.13,22.17s.79-1.52-1.23-4.22c-2.26-3-3.76-4.34-3.76-7.92s3-7,3-7c0,3.2,2,4.86,3.86,7.34a7.08,7.08,0,0,1,1.47,5.31,6.68,6.68,0,0,1-.9,2.7c.14-1.86-.28-3.17-2.25-5.4-1.57-1.78-2.5-3-2.78-5.13a6.76,6.76,0,0,0,2,5.89,7.48,7.48,0,0,1,2,3.9A5.57,5.57,0,0,1,24.13,22.17Z"/><path class="cls-1" d="M63.05,29.84a1.13,1.13,0,0,0-.18-.89.46.46,0,0,1,.14-.67,1.15,1.15,0,0,0,.53-.74,1.27,1.27,0,0,0-1-1.4A29.29,29.29,0,0,0,55,25a1.27,1.27,0,0,0-1.39,1,1.15,1.15,0,0,0,.28.86.46.46,0,0,1-.07.68,1.13,1.13,0,0,0-.45.79A1.19,1.19,0,0,0,52,29.37a1.2,1.2,0,0,0,1.09,1.29A1.19,1.19,0,0,0,54.15,32q1.18.14,2.35.31t2.34.37q1.17.2,2.33.43a1.19,1.19,0,0,0,1.4-.91,1.18,1.18,0,1,0,.48-2.3ZM55.8,26.3a39,39,0,0,1,5.91.93.25.25,0,0,1-.1.5h0a38.52,38.52,0,0,0-5.83-.92.25.25,0,0,1,0-.5ZM62,31a54.41,54.41,0,0,0-7.55-1.19h0a.25.25,0,0,1,.05-.5,54.94,54.94,0,0,1,7.63,1.2A.25.25,0,0,1,62,31Z"/><path id="_Caminho_5" data-name="&lt;Caminho&gt;" class="cls-1" d="M55.47,11a6.37,6.37,0,0,0,.82,3.88c1.12,2,2.44,3,3.47,4.65.9,1.45,1,2.8.12,4.9,0-1.73-2.74-4.18-3.25-4.78a8.57,8.57,0,0,1-2.08-4.12A7,7,0,0,1,55.47,11Z"/><path id="_Caminho_6" data-name="&lt;Caminho&gt;" class="cls-1" d="M61.21,22.17S62,20.65,60,17.94c-2.26-3-3.76-4.34-3.76-7.92s3-7,3-7c0,3.2,2,4.86,3.86,7.34a7.08,7.08,0,0,1,1.47,5.31,6.68,6.68,0,0,1-.9,2.7c.14-1.86-.28-3.17-2.25-5.4-1.57-1.78-2.5-3-2.78-5.13a6.76,6.76,0,0,0,2,5.89,7.48,7.48,0,0,1,2,3.9A5.57,5.57,0,0,1,61.21,22.17Z"/></g></g></svg>