<svg xmlns="http://www.w3.org/2000/svg" viewBox="0 0 1576.61 131.11"><defs><style>.cls-1{fill:#fff;}</style></defs><title>logo-nippec-nome</title><g id="Camada_2" data-name="Camada 2"><g id="Camada_1-2" data-name="Camada 1"><path class="cls-1" d="M0,2.17H25.71l59.4,78v-78h27.53V128.93H88.91L27.53,48.35v80.58H0Z"/><path class="cls-1" d="M144.33,2.17h27.89V128.93H144.33Z"/><path class="cls-1" d="M203.9,2.17h51.79a61,61,0,0,1,20.37,3.17,43.25,43.25,0,0,1,15.21,9,39.21,39.21,0,0,1,9.6,13.85A46.06,46.06,0,0,1,304.23,46v.36a44.45,44.45,0,0,1-4,19.38,39.54,39.54,0,0,1-11,13.94A47.46,47.46,0,0,1,273,88.1a69,69,0,0,1-20,2.81H231.79v38H203.9Zm50,63.92q10.5,0,16.3-5.52A18.13,18.13,0,0,0,276,46.9v-.36q0-9.41-6.07-14.31t-16.57-4.89H231.79V66.1Z"/><path class="cls-1" d="M324.87,2.17h51.79A61,61,0,0,1,397,5.34a43.25,43.25,0,0,1,15.21,9,39.21,39.21,0,0,1,9.6,13.85A46.06,46.06,0,0,1,425.19,46v.36a44.45,44.45,0,0,1-4,19.38,39.54,39.54,0,0,1-11,13.94A47.46,47.46,0,0,1,394,88.1a69,69,0,0,1-20,2.81H352.76v38H324.87Zm50,63.92q10.5,0,16.3-5.52a18.13,18.13,0,0,0,5.8-13.67v-.36q0-9.41-6.07-14.31t-16.57-4.89H352.76V66.1Z"/><path class="cls-1" d="M445.83,2.17h95.43V27H473.36V52.7h59.76V77.51H473.36v26.62h68.81v24.81H445.83Z"/><path class="cls-1" d="M626.56,131.11A65.63,65.63,0,0,1,600.66,126a62.5,62.5,0,0,1-34.23-34.59,66.75,66.75,0,0,1-4.89-25.53v-.36a66.09,66.09,0,0,1,4.89-25.44A65.39,65.39,0,0,1,580,19.29,63,63,0,0,1,600.84,5.16,67.8,67.8,0,0,1,627.64,0a83.91,83.91,0,0,1,16.21,1.45,67.77,67.77,0,0,1,13.31,4,57.91,57.91,0,0,1,11,6.16,74.91,74.91,0,0,1,9.42,8L659.88,40a67.24,67.24,0,0,0-15.12-10.5,38.52,38.52,0,0,0-17.29-3.8,35.33,35.33,0,0,0-14.76,3.08A35,35,0,0,0,601,37.3a39.67,39.67,0,0,0-7.61,12.58,42.76,42.76,0,0,0-2.72,15.3v.36a43.49,43.49,0,0,0,2.72,15.39,40.3,40.3,0,0,0,7.52,12.68,34.86,34.86,0,0,0,26.53,11.77q10.87,0,18.38-4a71.32,71.32,0,0,0,14.94-10.86l17.75,17.93a91.77,91.77,0,0,1-10.14,9.42,60.24,60.24,0,0,1-11.5,7.15,59.53,59.53,0,0,1-13.67,4.53A82.51,82.51,0,0,1,626.56,131.11Z"/><path class="cls-1" d="M724.39,18.7H728V51.3H725L704,24.57V51.3H700.4V18.7h3.45l20.54,26.13Z"/><path class="cls-1" d="M753.68,27.22h3.54V51.3h-3.54V47.11a9.17,9.17,0,0,1-8.24,4.71c-5.82,0-9.22-3.91-9.22-9.64v-15h3.59V41.29c0,4.47,2.42,7.27,6.66,7.27s7.22-3,7.22-7.54ZM745,23.78,749.39,17l3.73,1.72-5.26,5Z"/><path class="cls-1" d="M776.12,51.86A12.58,12.58,0,1,1,785.76,31l-2.37,2.51c-1.91-2-4.05-3.63-7.31-3.63-4.89,0-8.62,4.15-8.62,9.36s3.82,9.41,8.85,9.41a9.94,9.94,0,0,0,7.36-3.59l2.28,2.14A12.41,12.41,0,0,1,776.12,51.86Z"/><path class="cls-1" d="M792.18,51.3v-34h3.59v34Z"/><path class="cls-1" d="M814.72,48.74a10,10,0,0,0,7.59-3.4l2.24,2a12.43,12.43,0,0,1-9.92,4.52c-6.61,0-12-5.08-12-12.58,0-7,4.89-12.58,11.55-12.58,7.13,0,11.23,5.68,11.23,12.76a9.72,9.72,0,0,1,0,1.12h-19.1C806.76,45.81,810.48,48.74,814.72,48.74Zm7-10.81c-.37-4.38-2.89-8.2-7.69-8.2-4.19,0-7.36,3.49-7.83,8.2Z"/><path class="cls-1" d="M842.66,51.86a12.35,12.35,0,0,1-12.48-12.53,12.55,12.55,0,1,1,12.48,12.53Zm0-22c-5.22,0-8.8,4.15-8.8,9.36s3.82,9.41,8.9,9.41,8.85-4.15,8.85-9.32S847.74,29.88,842.66,29.88Z"/><path class="cls-1" d="M880.33,18.7V51.3h-3.68V18.7Z"/><path class="cls-1" d="M892.86,51.3h-3.59V27.22h3.59v4.19a9.12,9.12,0,0,1,8.24-4.7c5.82,0,9.22,3.91,9.22,9.64v15h-3.59V37.24c0-4.47-2.42-7.27-6.66-7.27s-7.22,3-7.22,7.55Z"/><path class="cls-1" d="M922.8,44.46c0,2.94,1.63,4,4.05,4a7.55,7.55,0,0,0,3.49-.84V50.7a9,9,0,0,1-4.33,1c-3.87,0-6.8-1.91-6.8-6.8V30.39h-3.35V27.22h3.35V20h3.59v7.27h7.64v3.17H922.8Z"/><path class="cls-1" d="M946.69,48.74a10,10,0,0,0,7.59-3.4l2.24,2a12.43,12.43,0,0,1-9.92,4.52c-6.61,0-12-5.08-12-12.58,0-7,4.89-12.58,11.55-12.58,7.13,0,11.23,5.68,11.23,12.76a9.72,9.72,0,0,1,0,1.12h-19.1C938.72,45.81,942.45,48.74,946.69,48.74Zm7-10.81c-.37-4.38-2.89-8.2-7.69-8.2-4.19,0-7.36,3.49-7.82,8.2Z"/><path class="cls-1" d="M974.3,58.85a18.88,18.88,0,0,1-10.95-3.35L965,52.7a15.38,15.38,0,0,0,9.27,3.07c5.31,0,8.76-2.93,8.76-8.57V44.36c-2.1,2.79-5,5.08-9.45,5.08a11.12,11.12,0,0,1-11.32-11.32A11.4,11.4,0,0,1,983,31.56V27.22h3.59V47.11C986.55,54.89,981.71,58.85,974.3,58.85Zm0-29c-4.57,0-8.34,3.12-8.34,8.15a8.13,8.13,0,0,0,8.34,8.24c4.57,0,8.85-3.26,8.85-8.2S978.82,29.88,974.25,29.88Z"/><path class="cls-1" d="M998.14,51.3h-3.59V27.22h3.59v6.29c1.77-4,5.26-6.89,9.83-6.71v3.87h-.28c-5.26,0-9.55,3.77-9.55,11Z"/><path class="cls-1" d="M1013.64,31.83l-1.07-2.93a19.88,19.88,0,0,1,8.76-2c6.57,0,10.25,3.35,10.25,9.69V51.3h-3.45V47.67a10.55,10.55,0,0,1-8.71,4.15c-4.47,0-9-2.52-9-7.55s4.19-7.83,10.29-7.83a25.6,25.6,0,0,1,7.41,1v-.84c0-4.33-2.66-6.57-7.17-6.57A16.78,16.78,0,0,0,1013.64,31.83Zm.42,12.3c0,3.07,2.8,4.84,6.06,4.84,4.42,0,8.06-2.7,8.06-6.52V40.13a25.11,25.11,0,0,0-7.08-1C1016.58,39.1,1014.06,41.06,1014.06,44.13Z"/><path class="cls-1" d="M1058.54,51.3V46.46c-2,2.89-4.8,5.36-9.22,5.36-5.78,0-11.5-4.57-11.5-12.53s5.73-12.58,11.5-12.58a10.86,10.86,0,0,1,9.22,5.12V17.3h3.59v34ZM1050,29.92c-4.66,0-8.48,3.45-8.48,9.32s3.91,9.36,8.48,9.36,8.71-3.73,8.71-9.36A9,9,0,0,0,1050,29.92Z"/><path class="cls-1" d="M1081.12,51.86a12.35,12.35,0,0,1-12.48-12.53,12.55,12.55,0,1,1,12.48,12.53Zm0-22c-5.22,0-8.8,4.15-8.8,9.36s3.82,9.41,8.9,9.41,8.85-4.15,8.85-9.32S1086.2,29.88,1081.12,29.88Z"/><path class="cls-1" d="M1133.51,51.3V46.46c-2,2.89-4.8,5.36-9.22,5.36-5.78,0-11.5-4.57-11.5-12.53s5.73-12.58,11.5-12.58a10.86,10.86,0,0,1,9.22,5.12V17.3h3.59v34Zm-8.57-21.38c-4.66,0-8.48,3.45-8.48,9.32s3.91,9.36,8.48,9.36,8.71-3.73,8.71-9.36A9,9,0,0,0,1124.94,29.92Z"/><path class="cls-1" d="M1155.71,48.74a10,10,0,0,0,7.59-3.4l2.24,2a12.43,12.43,0,0,1-9.92,4.52c-6.61,0-12-5.08-12-12.58,0-7,4.89-12.58,11.55-12.58,7.13,0,11.23,5.68,11.23,12.76a9.72,9.72,0,0,1,0,1.12h-19.1C1147.75,45.81,1151.48,48.74,1155.71,48.74Zm7-10.81c-.37-4.38-2.89-8.2-7.69-8.2-4.19,0-7.36,3.49-7.82,8.2Z"/><path class="cls-1" d="M1198.83,39.8h-7.92V51.3h-3.68V18.7h12.2c7.36,0,12.2,3.91,12.2,10.39C1211.64,36.17,1205.77,39.8,1198.83,39.8Zm.33-17.7h-8.24V36.45H1199c5.4,0,8.94-2.89,8.94-7.22C1207.92,24.52,1204.42,22.1,1199.16,22.1Z"/><path class="cls-1" d="M1228.73,51.86a12.35,12.35,0,0,1-12.48-12.53,12.55,12.55,0,1,1,12.48,12.53Zm0-22c-5.22,0-8.8,4.15-8.8,9.36s3.82,9.41,8.9,9.41,8.85-4.15,8.85-9.32S1233.8,29.88,1228.73,29.88Zm-1.35-6.29,4.42-6.75,3.73,1.72-5.26,5Z"/><path class="cls-1" d="M1255.78,51.77a16.56,16.56,0,0,1-10-3.54l1.82-2.56a14.07,14.07,0,0,0,8.34,3.07c2.89,0,5-1.49,5-3.82v-.09c0-2.42-2.84-3.35-6-4.24-3.77-1.07-8-2.38-8-6.8V33.7c0-4.15,3.45-6.89,8.2-6.89a16.46,16.46,0,0,1,8.66,2.66l-1.63,2.7a13.62,13.62,0,0,0-7.13-2.33c-2.84,0-4.66,1.49-4.66,3.49v.09c0,2.28,3,3.17,6.2,4.15,3.73,1.12,7.73,2.56,7.73,6.89v.09C1264.35,49.12,1260.58,51.77,1255.78,51.77Z"/><path class="cls-1" d="M1270,39.19V35.42H1283v3.77Z"/><path class="cls-1" d="M1305.75,51.86c-10.25,0-16.58-7.45-16.58-16.82,0-9,6.57-16.91,16.35-16.91a17.18,17.18,0,0,1,12.16,4.33l-2.38,2.8a13.87,13.87,0,0,0-9.92-3.73c-7.22,0-12.39,6.1-12.39,13.41,0,7.83,5,13.6,12.9,13.6a15.35,15.35,0,0,0,9.41-3.26v-8.1h-9.92V33.88h13.46v13A19.76,19.76,0,0,1,1305.75,51.86Z"/><path class="cls-1" d="M1330.1,51.3h-3.59V27.22h3.59v6.29c1.77-4,5.26-6.89,9.83-6.71v3.87h-.28c-5.26,0-9.55,3.77-9.55,11Z"/><path class="cls-1" d="M1345.6,31.83l-1.07-2.93a19.88,19.88,0,0,1,8.76-2c6.57,0,10.25,3.35,10.25,9.69V51.3h-3.45V47.67a10.55,10.55,0,0,1-8.71,4.15c-4.47,0-9-2.52-9-7.55s4.19-7.83,10.29-7.83a25.6,25.6,0,0,1,7.41,1v-.84c0-4.33-2.66-6.57-7.17-6.57A16.77,16.77,0,0,0,1345.6,31.83Zm.42,12.3c0,3.07,2.8,4.84,6.06,4.84,4.42,0,8.06-2.7,8.06-6.52V40.13a25.09,25.09,0,0,0-7.08-1C1348.54,39.1,1346,41.06,1346,44.13Z"/><path class="cls-1" d="M1390.5,51.3V46.46c-2,2.89-4.8,5.36-9.22,5.36-5.78,0-11.5-4.57-11.5-12.53s5.73-12.58,11.5-12.58a10.86,10.86,0,0,1,9.22,5.12V17.3h3.59v34Zm-8.57-21.38c-4.66,0-8.48,3.45-8.48,9.32s3.91,9.36,8.48,9.36,8.71-3.73,8.71-9.36A9,9,0,0,0,1381.92,29.92Z"/><path class="cls-1" d="M1419.18,27.22h3.54V51.3h-3.54V47.11a9.17,9.17,0,0,1-8.24,4.71c-5.82,0-9.22-3.91-9.22-9.64v-15h3.59V41.29c0,4.47,2.42,7.27,6.66,7.27s7.22-3,7.22-7.54Z"/><path class="cls-1" d="M1432.16,31.83l-1.07-2.93a19.88,19.88,0,0,1,8.76-2c6.57,0,10.25,3.35,10.25,9.69V51.3h-3.45V47.67a10.55,10.55,0,0,1-8.71,4.15c-4.47,0-9-2.52-9-7.55s4.19-7.83,10.29-7.83a25.6,25.6,0,0,1,7.41,1v-.84c0-4.33-2.66-6.57-7.17-6.57A16.78,16.78,0,0,0,1432.16,31.83Zm.42,12.3c0,3.07,2.8,4.84,6.06,4.84,4.42,0,8.06-2.7,8.06-6.52V40.13a25.11,25.11,0,0,0-7.08-1C1435.1,39.1,1432.58,41.06,1432.58,44.13Z"/><path class="cls-1" d="M1456.24,39.33a12.54,12.54,0,0,1,22-8.34l-2.37,2.51c-1.91-2-4.05-3.63-7.31-3.63-4.89,0-8.62,4.15-8.62,9.36s3.82,9.41,8.85,9.41a9.94,9.94,0,0,0,7.36-3.59l2.28,2.14a12.6,12.6,0,0,1-9.13,4.66l-3.07,6.66-3.49-1.58,3.63-5.31A12.34,12.34,0,0,1,1456.24,39.33Z"/><path class="cls-1" d="M1485.72,31.83l-1.07-2.93a19.88,19.88,0,0,1,8.76-2c6.57,0,10.25,3.35,10.25,9.69V51.3h-3.45V47.67a10.55,10.55,0,0,1-8.71,4.15c-4.47,0-9-2.52-9-7.55s4.19-7.83,10.29-7.83a25.6,25.6,0,0,1,7.41,1v-.84c0-4.33-2.66-6.57-7.17-6.57A16.77,16.77,0,0,0,1485.72,31.83Zm.42,12.3c0,3.07,2.8,4.84,6.06,4.84,4.42,0,8.06-2.7,8.06-6.52V40.13a25.09,25.09,0,0,0-7.08-1C1488.65,39.1,1486.13,41.06,1486.13,44.13Zm11-20.54c-2.1,0-4.66-1.86-6.24-1.86-1.21,0-1.72.61-2.42,2.28l-2.19-.61c.93-3.49,2.19-4.89,4.42-4.89s4.66,1.86,6.24,1.86c1.21,0,1.72-.61,2.42-2.28l2.19.61C1500.62,22.19,1499.36,23.59,1497.13,23.59Z"/><path class="cls-1" d="M1522.27,51.86a12.35,12.35,0,0,1-12.48-12.53,12.55,12.55,0,1,1,12.48,12.53Zm0-22c-5.22,0-8.8,4.15-8.8,9.36s3.82,9.41,8.9,9.41,8.85-4.15,8.85-9.32S1527.35,29.88,1522.27,29.88Z"/><path class="cls-1" d="M1565.95,48.74a10,10,0,0,0,7.59-3.4l2.24,2a12.43,12.43,0,0,1-9.92,4.52c-6.61,0-12-5.08-12-12.58,0-7,4.89-12.58,11.55-12.58,7.13,0,11.23,5.68,11.23,12.76a9.72,9.72,0,0,1,0,1.12h-19.1C1558,45.81,1561.71,48.74,1565.95,48.74Zm7-10.81c-.37-4.38-2.89-8.2-7.69-8.2-4.19,0-7.36,3.49-7.83,8.2Z"/><path class="cls-1" d="M712,95.68h-7.92v11.5H700.4V74.58h12.2c7.36,0,12.2,3.91,12.2,10.39C724.81,92,718.94,95.68,712,95.68Zm.33-17.7h-8.24V92.32h8.06c5.4,0,8.94-2.89,8.94-7.22C721.08,80.4,717.59,78,712.33,78Z"/><path class="cls-1" d="M741.29,104.62a10,10,0,0,0,7.59-3.4l2.24,2a12.43,12.43,0,0,1-9.92,4.52c-6.61,0-12-5.08-12-12.58,0-7,4.89-12.58,11.55-12.58,7.13,0,11.23,5.68,11.23,12.76a9.72,9.72,0,0,1,0,1.12h-19.1C733.33,101.69,737.05,104.62,741.29,104.62Zm7-10.81c-.37-4.38-2.89-8.2-7.69-8.2-4.19,0-7.36,3.49-7.82,8.2Z"/><path class="cls-1" d="M766.2,107.65a16.56,16.56,0,0,1-10-3.54l1.82-2.56a14.07,14.07,0,0,0,8.34,3.07c2.89,0,5-1.49,5-3.82v-.09c0-2.42-2.84-3.35-6-4.24-3.77-1.07-8-2.38-8-6.8v-.09c0-4.15,3.45-6.89,8.2-6.89a16.46,16.46,0,0,1,8.66,2.66L772.63,88a13.62,13.62,0,0,0-7.13-2.33c-2.84,0-4.66,1.49-4.66,3.49v.09c0,2.28,3,3.17,6.2,4.15,3.73,1.12,7.73,2.56,7.73,6.89v.09C774.77,105,771,107.65,766.2,107.65Z"/><path class="cls-1" d="M800.76,114.63v-12.3c-2,2.89-4.8,5.36-9.22,5.36-5.78,0-11.5-4.57-11.5-12.53s5.73-12.58,11.5-12.58a10.86,10.86,0,0,1,9.22,5.12V83.1h3.59v31.53ZM792.19,85.8c-4.66,0-8.48,3.45-8.48,9.32s3.91,9.36,8.48,9.36,8.71-3.73,8.71-9.36A9,9,0,0,0,792.19,85.8Z"/><path class="cls-1" d="M829.44,83.1H833v24.08h-3.54V103a9.17,9.17,0,0,1-8.24,4.71c-5.82,0-9.22-3.91-9.22-9.64v-15h3.59V97.17c0,4.47,2.42,7.27,6.66,7.27s7.22-3,7.22-7.54Z"/><path class="cls-1" d="M841.12,77.84v-4h4.1v4Zm.23,29.34V83.1h3.59v24.08Z"/><path class="cls-1" d="M861.24,107.65a16.56,16.56,0,0,1-10-3.54l1.82-2.56a14.07,14.07,0,0,0,8.34,3.07c2.89,0,5-1.49,5-3.82v-.09c0-2.42-2.84-3.35-6-4.24-3.77-1.07-8-2.38-8-6.8v-.09c0-4.15,3.45-6.89,8.2-6.89a16.46,16.46,0,0,1,8.66,2.66L867.67,88a13.62,13.62,0,0,0-7.13-2.33c-2.84,0-4.66,1.49-4.66,3.49v.09c0,2.28,3,3.17,6.2,4.15,3.73,1.12,7.73,2.56,7.73,6.89v.09C869.81,105,866,107.65,861.24,107.65Z"/><path class="cls-1" d="M877.86,87.71l-1.07-2.93a19.88,19.88,0,0,1,8.76-2c6.57,0,10.25,3.35,10.25,9.69v14.72h-3.45v-3.63a10.55,10.55,0,0,1-8.71,4.15c-4.47,0-9-2.52-9-7.55s4.19-7.83,10.29-7.83a25.6,25.6,0,0,1,7.41,1v-.84c0-4.33-2.66-6.57-7.17-6.57A16.78,16.78,0,0,0,877.86,87.71Zm.42,12.3c0,3.07,2.8,4.84,6.06,4.84,4.42,0,8.06-2.7,8.06-6.52V96a25.11,25.11,0,0,0-7.08-1C880.8,95,878.28,96.93,878.28,100Z"/><path class="cls-1" d="M928,104.62a10,10,0,0,0,7.59-3.4l2.24,2a12.43,12.43,0,0,1-9.92,4.52c-6.61,0-12-5.08-12-12.58,0-7,4.89-12.58,11.55-12.58,7.13,0,11.23,5.68,11.23,12.76a9.72,9.72,0,0,1,0,1.12h-19.1C920,101.69,923.78,104.62,928,104.62Zm7-10.81c-.37-4.38-2.89-8.2-7.69-8.2-4.19,0-7.36,3.49-7.82,8.2Z"/><path class="cls-1" d="M972.53,82.59c5.54,0,8.94,3.73,8.94,9.69v14.91h-3.59V93.12c0-4.66-2.33-7.27-6.24-7.27-3.63,0-6.66,2.7-6.66,7.45v13.88h-3.54V93c0-4.52-2.38-7.17-6.19-7.17s-6.71,3.17-6.71,7.59v13.74H945V83.1h3.59v4.05c1.58-2.38,3.73-4.57,7.78-4.57a8.18,8.18,0,0,1,7.73,4.8A9.6,9.6,0,0,1,972.53,82.59Z"/><path class="cls-1" d="M1027.39,77.93H1007.5V89.06h17.79v3.35H1007.5v11.41h20.12v3.35h-23.8V74.58h23.57Z"/><path class="cls-1" d="M1053.28,107.18v-4.84c-2,2.89-4.8,5.36-9.22,5.36-5.78,0-11.5-4.57-11.5-12.53s5.73-12.58,11.5-12.58a10.86,10.86,0,0,1,9.22,5.12V73.18h3.59v34Zm-8.57-21.38c-4.66,0-8.48,3.45-8.48,9.32s3.91,9.36,8.48,9.36,8.71-3.73,8.71-9.36A9,9,0,0,0,1044.71,85.8Z"/><path class="cls-1" d="M1082,83.1h3.54v24.08H1082V103a9.17,9.17,0,0,1-8.24,4.71c-5.82,0-9.22-3.91-9.22-9.64v-15h3.59V97.17c0,4.47,2.42,7.27,6.66,7.27s7.22-3,7.22-7.54Z"/><path class="cls-1" d="M1104.4,107.74A12.58,12.58,0,1,1,1114,86.87l-2.37,2.51c-1.91-2-4.05-3.63-7.31-3.63-4.89,0-8.62,4.15-8.62,9.36s3.82,9.41,8.85,9.41a9.94,9.94,0,0,0,7.36-3.59l2.28,2.14A12.41,12.41,0,0,1,1104.4,107.74Z"/><path class="cls-1" d="M1121.53,87.71l-1.07-2.93a19.88,19.88,0,0,1,8.76-2c6.57,0,10.25,3.35,10.25,9.69v14.72H1136v-3.63a10.55,10.55,0,0,1-8.71,4.15c-4.47,0-9-2.52-9-7.55s4.19-7.83,10.29-7.83a25.6,25.6,0,0,1,7.41,1v-.84c0-4.33-2.66-6.57-7.17-6.57A16.77,16.77,0,0,0,1121.53,87.71ZM1122,100c0,3.07,2.8,4.84,6.06,4.84,4.42,0,8.06-2.7,8.06-6.52V96a25.09,25.09,0,0,0-7.08-1C1124.47,95,1122,96.93,1122,100Z"/><path class="cls-1" d="M1145.61,95.21a12.54,12.54,0,0,1,22-8.34l-2.37,2.51c-1.91-2-4.05-3.63-7.31-3.63-4.89,0-8.62,4.15-8.62,9.36s3.82,9.41,8.85,9.41a9.94,9.94,0,0,0,7.36-3.59l2.28,2.14a12.6,12.6,0,0,1-9.13,4.66l-3.07,6.66-3.49-1.58,3.63-5.31A12.34,12.34,0,0,1,1145.61,95.21Z"/><path class="cls-1" d="M1175.08,87.71,1174,84.78a19.88,19.88,0,0,1,8.76-2c6.57,0,10.25,3.35,10.25,9.69v14.72h-3.45v-3.63a10.55,10.55,0,0,1-8.71,4.15c-4.47,0-9-2.52-9-7.55s4.19-7.83,10.29-7.83a25.6,25.6,0,0,1,7.41,1v-.84c0-4.33-2.66-6.57-7.17-6.57A16.78,16.78,0,0,0,1175.08,87.71Zm.42,12.3c0,3.07,2.8,4.84,6.06,4.84,4.42,0,8.06-2.7,8.06-6.52V96a25.11,25.11,0,0,0-7.08-1C1178,95,1175.5,96.93,1175.5,100Zm11-20.54c-2.1,0-4.66-1.86-6.24-1.86-1.21,0-1.72.61-2.42,2.28l-2.19-.61c.93-3.49,2.19-4.89,4.42-4.89s4.66,1.86,6.24,1.86c1.21,0,1.72-.61,2.42-2.28l2.19.61C1190,78.07,1188.73,79.47,1186.5,79.47Z"/><path class="cls-1" d="M1211.64,107.74a12.35,12.35,0,0,1-12.48-12.53,12.55,12.55,0,1,1,12.48,12.53Zm0-22c-5.22,0-8.8,4.15-8.8,9.36s3.82,9.41,8.9,9.41,8.85-4.15,8.85-9.32S1216.72,85.76,1211.64,85.76Z"/><path class="cls-1" d="M1255.32,104.62a10,10,0,0,0,7.59-3.4l2.24,2a12.43,12.43,0,0,1-9.92,4.52c-6.61,0-12-5.08-12-12.58,0-7,4.89-12.58,11.55-12.58,7.13,0,11.23,5.68,11.23,12.76a9.72,9.72,0,0,1,0,1.12h-19.1C1247.35,101.69,1251.08,104.62,1255.32,104.62Zm7-10.81c-.37-4.38-2.89-8.2-7.69-8.2-4.19,0-7.36,3.49-7.82,8.2Z"/><path class="cls-1" d="M1301.74,107.74c-9.41,0-16.35-7.41-16.35-16.82S1292.29,74,1301.88,74a17,17,0,0,1,12.72,5.17l-2.51,2.7c-2.75-2.61-5.82-4.47-10.25-4.47-7.22,0-12.62,5.82-12.62,13.41s5.45,13.51,12.62,13.51c4.47,0,7.41-1.72,10.53-4.71l2.42,2.38C1311.39,105.46,1307.66,107.74,1301.74,107.74Z"/><path class="cls-1" d="M1320.69,77.84v-4h4.1v4Zm.23,29.34V83.1h3.59v24.08Z"/><path class="cls-1" d="M1343.46,104.62a10,10,0,0,0,7.59-3.4l2.24,2a12.43,12.43,0,0,1-9.92,4.52c-6.61,0-12-5.08-12-12.58,0-7,4.89-12.58,11.55-12.58,7.13,0,11.23,5.68,11.23,12.76a9.72,9.72,0,0,1,0,1.12H1335C1335.5,101.69,1339.22,104.62,1343.46,104.62Zm7-10.81c-.37-4.38-2.89-8.2-7.69-8.2-4.19,0-7.36,3.49-7.82,8.2Zm-11.27-14.35h-3l4.94-6.1h3.17l4.94,6.1h-3.07l-3.49-3.12Z"/><path class="cls-1" d="M1364,107.18h-3.59V83.1H1364v4.19a9.12,9.12,0,0,1,8.24-4.7c5.82,0,9.22,3.91,9.22,9.64v15h-3.59V93.12c0-4.47-2.42-7.27-6.66-7.27s-7.22,3-7.22,7.55Z"/><path class="cls-1" d="M1399.95,107.74a12.58,12.58,0,1,1,9.64-20.87l-2.37,2.51c-1.91-2-4.05-3.63-7.31-3.63-4.89,0-8.62,4.15-8.62,9.36s3.82,9.41,8.85,9.41a9.94,9.94,0,0,0,7.36-3.59l2.28,2.14A12.41,12.41,0,0,1,1399.95,107.74Z"/><path class="cls-1" d="M1415.77,77.84v-4h4.1v4Zm.23,29.34V83.1h3.59v24.08Z"/><path class="cls-1" d="M1429.32,87.71l-1.07-2.93a19.88,19.88,0,0,1,8.76-2c6.57,0,10.25,3.35,10.25,9.69v14.72h-3.45v-3.63a10.55,10.55,0,0,1-8.71,4.15c-4.47,0-9-2.52-9-7.55s4.19-7.83,10.29-7.83a25.6,25.6,0,0,1,7.41,1v-.84c0-4.33-2.66-6.57-7.17-6.57A16.78,16.78,0,0,0,1429.32,87.71Zm.42,12.3c0,3.07,2.8,4.84,6.06,4.84,4.42,0,8.06-2.7,8.06-6.52V96a25.11,25.11,0,0,0-7.08-1C1432.26,95,1429.74,96.93,1429.74,100Z"/></g></g></svg>