<svg xmlns="http://www.w3.org/2000/svg" xmlns:xlink="http://www.w3.org/1999/xlink" viewBox="0 0 477.86 127.92"><defs><style>.cls-1{fill:url(#Gradiente_sem_nome_21);}.cls-2{opacity:0.23;}.cls-3{fill:none;stroke:#fff;stroke-miterlimit:10;}.cls-4{fill:#fff;}.cls-5{fill:#4d4d4d;}</style><radialGradient id="Gradiente_sem_nome_21" cx="55.75" cy="63.96" r="59.94" gradientUnits="userSpaceOnUse"><stop offset="0" stop-color="#056fd8"/><stop offset="0.04" stop-color="#056cd3"/><stop offset="0.27" stop-color="#035bb8"/><stop offset="0.5" stop-color="#014fa5"/><stop offset="0.74" stop-color="#00479a"/><stop offset="1" stop-color="#004596"/></radialGradient></defs><title>logo</title><g id="Camada_2" data-name="Camada 2"><g id="Camada_2-2" data-name="Camada 2"><polygon class="cls-1" points="111.47 95.17 56.59 127.83 0.85 96.62 0.02 32.75 54.91 0.09 110.64 31.3 111.47 95.17"/><g class="cls-2"><line class="cls-3" x1="54.83" y1="0.01" x2="56.66" y2="127.91"/><line class="cls-3" x1="0.24" y1="32.67" x2="111.7" y2="95.25"/><line class="cls-3" x1="110.79" y1="31.3" x2="0.7" y2="96.62"/></g><path class="cls-4" d="M33.07,38.38H43.36L67.12,69.6V38.38h11V89.08H68.64L44.08,56.85V89.08h-11Z"/><path class="cls-5" d="M150.64,34.13h13.92L196.73,76.4V34.13h14.9v68.64H198.79L165.55,59.14v43.64h-14.9Z"/><path class="cls-5" d="M220.75,34.13h15.1v68.64h-15.1Z"/><path class="cls-5" d="M245,34.13h28a33,33,0,0,1,11,1.72,23.44,23.44,0,0,1,8.24,4.85,21.25,21.25,0,0,1,5.2,7.5,24.94,24.94,0,0,1,1.81,9.66v.2a24.08,24.08,0,0,1-2.16,10.49,21.4,21.4,0,0,1-5.93,7.55,25.7,25.7,0,0,1-8.82,4.56,37.4,37.4,0,0,1-10.84,1.52H260.08v20.59H245ZM272,68.75q5.69,0,8.83-3a9.81,9.81,0,0,0,3.14-7.4v-.2q0-5.1-3.28-7.75t-9-2.65H260.08v21Z"/><path class="cls-5" d="M302.44,34.13h28a33,33,0,0,1,11,1.72,23.43,23.43,0,0,1,8.24,4.85,21.24,21.24,0,0,1,5.2,7.5,24.94,24.94,0,0,1,1.81,9.66v.2a24.08,24.08,0,0,1-2.16,10.49,21.41,21.41,0,0,1-5.93,7.55,25.71,25.71,0,0,1-8.82,4.56A37.39,37.39,0,0,1,329,82.18H317.54v20.59h-15.1ZM329.5,68.75q5.69,0,8.83-3a9.82,9.82,0,0,0,3.14-7.4v-.2q0-5.1-3.28-7.75t-9-2.65H317.54v21Z"/><path class="cls-5" d="M359.9,34.13h51.68V47.57H374.8V61.49h32.36V74.93H374.8V89.34h37.26v13.43H359.9Z"/><path class="cls-5" d="M449.72,104a35.55,35.55,0,0,1-14-2.75,33.85,33.85,0,0,1-18.53-18.73,36.17,36.17,0,0,1-2.65-13.83v-.2a35.8,35.8,0,0,1,2.65-13.78,35.44,35.44,0,0,1,7.35-11.28,34.09,34.09,0,0,1,11.28-7.65A36.71,36.71,0,0,1,450.31,33a45.42,45.42,0,0,1,8.78.78,36.67,36.67,0,0,1,7.21,2.16,31.36,31.36,0,0,1,6,3.33,40.6,40.6,0,0,1,5.1,4.31l-9.61,11.08a36.39,36.39,0,0,0-8.19-5.69,20.86,20.86,0,0,0-9.36-2.06,19.13,19.13,0,0,0-8,1.67,18.93,18.93,0,0,0-6.33,4.61A21.5,21.5,0,0,0,431.77,60a23.16,23.16,0,0,0-1.47,8.29v.2a23.55,23.55,0,0,0,1.47,8.33,21.82,21.82,0,0,0,4.07,6.86A18.87,18.87,0,0,0,450.21,90a21,21,0,0,0,10-2.16A38.66,38.66,0,0,0,468.25,82l9.61,9.71a49.58,49.58,0,0,1-5.49,5.1,32.6,32.6,0,0,1-6.23,3.87,32.26,32.26,0,0,1-7.4,2.45A44.74,44.74,0,0,1,449.72,104Z"/></g></g></svg>